M48
;DRILL file {Pcbnew (2013-07-07 BZR 4022)-stable} date 23/05/2015 13:05:36
;FORMAT={3:3/ absolute / metric / suppress leading zeros}
FMAT,2
METRIC,TZ
T1C0.300
T2C0.400
T3C0.450
T4C0.650
T5C0.762
T6C0.830
T7C1.016
%
G90
G05
M71
T1
X115291Y-72974
X115367Y-76378
X115722Y-92405
X115761Y-101600
X115799Y-98057
X115900Y-89510
X115938Y-79375
X116053Y-119736
X116192Y-86144
X116281Y-83083
X116815Y-77749
X117208Y-99911
X117627Y-72504
X118161Y-86411
X118542Y-118389
X118897Y-77470
X118910Y-113119
X119088Y-92240
X119659Y-80048
X119748Y-79235
X119786Y-75959
X119812Y-106680
X120206Y-72403
X120345Y-83071
X120688Y-74803
X120714Y-85954
X121336Y-99797
X121691Y-116307
X122098Y-78778
X122593Y-85789
X122606Y-111506
X122669Y-82423
X122707Y-75946
X122758Y-72390
X122911Y-89535
X122936Y-84201
X123025Y-103746
X123292Y-91376
X123393Y-79108
X123482Y-87478
X123533Y-98717
X123571Y-90068
X123876Y-95618
X124130Y-115646
X124206Y-82626
X124219Y-85738
X125146Y-94298
X125171Y-73787
X125298Y-72365
X125298Y-97714
X125324Y-75438
X125717Y-93701
X125844Y-112255
X125870Y-96799
X126263Y-93091
X126594Y-87478
X126873Y-92647
X126949Y-91859
X127000Y-79108
X127025Y-109830
X127051Y-80137
X127635Y-99314
X127737Y-96088
X127826Y-71895
X127876Y-82995
X128194Y-95288
X128676Y-113792
X128803Y-97599
X128829Y-78676
X128943Y-96152
X129159Y-77254
X129464Y-117805
X129642Y-81344
X129794Y-94666
X130505Y-78334
X130721Y-72288
X130772Y-97155
X130861Y-87897
X131559Y-97041
X131661Y-71653
X131826Y-77114
X132499Y-84011
X132626Y-105918
X133604Y-96152
X134176Y-83947
X134417Y-71844
X134544Y-109918
X134671Y-79731
X134747Y-117323
X134823Y-113703
X134861Y-96152
X134963Y-77064
X135001Y-88163
X135192Y-78867
X135357Y-82969
X135649Y-95479
X135763Y-78270
X136627Y-95047
X136804Y-77661
X136931Y-109144
X136957Y-71920
X137160Y-89459
X137211Y-84785
X137351Y-77000
X137579Y-94983
X137592Y-113665
X138125Y-108852
X138316Y-78219
X138341Y-99606
X138646Y-89294
X138684Y-105994
X138862Y-113665
X139421Y-99111
X139548Y-71476
X139916Y-81026
X140030Y-81915
X140068Y-78867
X140106Y-100101
X140132Y-104699
X140145Y-113678
X140360Y-98628
X141135Y-83058
X141402Y-100178
X141402Y-106197
X141427Y-113690
X141440Y-108229
X141719Y-90526
X141796Y-97917
X142037Y-71996
X142329Y-88671
X142380Y-92685
X142418Y-87909
X142596Y-80620
X142672Y-100101
X142684Y-113678
X142697Y-104089
X142697Y-108255
X143002Y-73609
X143916Y-101397
X143916Y-113690
X143929Y-108128
X144323Y-82614
X144374Y-90424
X145136Y-81953
X145199Y-101359
X145212Y-108153
X145225Y-113716
X145250Y-88087
X145390Y-99695
X145491Y-82715
X145860Y-73114
X145961Y-87465
X146469Y-113678
X146914Y-101854
X147104Y-72072
X147117Y-106756
X147472Y-95885
X147485Y-82296
X147765Y-113703
X147841Y-77724
X147968Y-87592
X148146Y-75629
X149009Y-113690
X149073Y-75641
X149606Y-71933
X149631Y-107645
X149809Y-101854
X149924Y-80378
X149962Y-75463
X150279Y-113690
X150368Y-81039
X150444Y-88278
X150876Y-75451
X151613Y-77013
X151701Y-97968
X151892Y-113716
X152362Y-72733
X152591Y-106007
X152806Y-94374
X153264Y-117335
X153302Y-109093
X153619Y-77165
X153708Y-89154
X153797Y-79197
X153924Y-90881
X154013Y-79959
X154686Y-72606
X155143Y-73787
X155143Y-93396
X155766Y-103645
X156426Y-84138
X156959Y-80975
X157074Y-86131
X157226Y-84722
X157264Y-71920
X158166Y-104978
X158471Y-116497
X158521Y-119520
X159156Y-110846
X159449Y-76644
X159563Y-87833
X159817Y-71869
X160553Y-92761
X160592Y-101270
X162458Y-113030
X162700Y-117259
X163144Y-72060
X163246Y-76467
T2
X118872Y-79121
X121031Y-97638
X122542Y-107112
X123317Y-106401
X127064Y-116408
X127838Y-78753
X128207Y-82131
X138760Y-107264
X138760Y-108229
X147028Y-108102
X147396Y-89294
X149479Y-109093
X151701Y-83757
X151803Y-85534
X152603Y-115646
X152730Y-84785
X153606Y-85662
X156362Y-111074
X156528Y-95733
X156731Y-75616
X158712Y-81801
X160020Y-107874
X160566Y-105067
X161315Y-95796
T3
X141072Y-78397
X144628Y-89091
X149377Y-79426
T5
X130112Y-102197
X135192Y-102197
T7
X116386Y-71754
X116548Y-103683
X116548Y-106223
X116548Y-108763
X116548Y-111303
X116548Y-113843
X116548Y-116383
X118922Y-71754
X120446Y-120014
X121462Y-71754
X122986Y-120014
X124002Y-71754
X125526Y-120014
X126542Y-71754
X128066Y-120014
X129082Y-71754
X130606Y-120014
X133146Y-71754
X133146Y-120014
X135686Y-71754
X138226Y-71754
X138226Y-117474
X138226Y-120014
X140766Y-71754
X140766Y-117474
X140766Y-120014
X143306Y-71754
X143306Y-117474
X143306Y-120014
X145846Y-71754
X145846Y-117474
X145846Y-120014
X148386Y-71754
X148386Y-117474
X148386Y-120014
X150926Y-71754
X150926Y-117474
X150926Y-120014
X153466Y-71754
X156006Y-71754
X158546Y-71754
X161086Y-71754
T4
X160320Y-81290G85X160120Y-81290
G05
X160320Y-85740G85X160120Y-85740
G05
T6
X163555Y-79425G85X162885Y-79425
G05
X163555Y-87605G85X162885Y-87605
G05
T0
M30
