G04 (created by PCBNEW (2013-07-07 BZR 4022)-stable) date 23/05/2015 13:05:33*
%MOIN*%
G04 Gerber Fmt 3.4, Leading zero omitted, Abs format*
%FSLAX34Y34*%
G01*
G70*
G90*
G04 APERTURE LIST*
%ADD10C,0.00590551*%
%ADD11R,0.0276X0.0394*%
%ADD12R,0.0315X0.0394*%
%ADD13R,0.08X0.144*%
%ADD14R,0.08X0.04*%
%ADD15R,0.06X0.08*%
%ADD16R,0.055X0.035*%
%ADD17R,0.035X0.055*%
%ADD18R,0.025X0.045*%
%ADD19R,0.045X0.025*%
%ADD20R,0.01X0.03*%
%ADD21R,0.03X0.01*%
%ADD22R,0.1181X0.1181*%
%ADD23R,0.06X0.06*%
%ADD24C,0.06*%
%ADD25R,0.0748031X0.114173*%
%ADD26R,0.0748031X0.061811*%
%ADD27R,0.0531496X0.015748*%
%ADD28O,0.0511811X0.0413386*%
%ADD29R,0.011811X0.06*%
%ADD30O,0.011811X0.06*%
%ADD31O,0.06X0.011811*%
%ADD32R,0.0472X0.0472*%
%ADD33C,0.056*%
%ADD34R,0.125984X0.0393701*%
%ADD35R,0.063X0.0866*%
%ADD36R,0.0551181X0.0472441*%
%ADD37C,0.0314961*%
%ADD38C,0.023622*%
%ADD39C,0.0393701*%
%ADD40C,0.011811*%
%ADD41C,0.019685*%
%ADD42C,0.015748*%
%ADD43C,0.00787402*%
%ADD44C,0.00866142*%
G04 APERTURE END LIST*
G54D10*
G54D11*
X61335Y-30375D03*
X61710Y-30375D03*
X62085Y-30375D03*
X62085Y-31375D03*
X61710Y-31375D03*
X61335Y-31375D03*
G54D12*
X62655Y-36502D03*
X63030Y-37368D03*
X62280Y-37368D03*
G54D13*
X61415Y-42415D03*
G54D14*
X64015Y-42415D03*
X64015Y-41515D03*
X64015Y-43315D03*
G54D15*
X56395Y-30885D03*
X57695Y-30885D03*
G54D16*
X61370Y-39315D03*
X61370Y-40065D03*
X61500Y-35815D03*
X61500Y-35065D03*
X64105Y-37410D03*
X64105Y-36660D03*
G54D17*
X47915Y-33270D03*
X47165Y-33270D03*
X63440Y-38325D03*
X64190Y-38325D03*
X62510Y-38340D03*
X61760Y-38340D03*
X46495Y-37020D03*
X45745Y-37020D03*
G54D16*
X47350Y-37735D03*
X47350Y-36985D03*
G54D17*
X48015Y-35795D03*
X47265Y-35795D03*
X47900Y-32050D03*
X47150Y-32050D03*
X47985Y-34585D03*
X47235Y-34585D03*
G54D18*
X58950Y-37170D03*
X59550Y-37170D03*
X61810Y-44525D03*
X62410Y-44525D03*
G54D19*
X57760Y-35640D03*
X57760Y-36240D03*
G54D18*
X45745Y-37925D03*
X46345Y-37925D03*
X53230Y-38735D03*
X52630Y-38735D03*
X51230Y-38705D03*
X51830Y-38705D03*
X52625Y-41685D03*
X53225Y-41685D03*
X51830Y-41715D03*
X51230Y-41715D03*
G54D20*
X60612Y-34324D03*
X60415Y-34324D03*
X60218Y-34324D03*
X60809Y-34324D03*
G54D21*
X61104Y-34029D03*
X61104Y-33832D03*
X61104Y-33635D03*
X61104Y-33438D03*
X61104Y-33242D03*
X61104Y-33045D03*
X61104Y-32848D03*
X61104Y-32651D03*
G54D20*
X59431Y-32356D03*
X60809Y-32356D03*
X60612Y-32356D03*
X60415Y-32356D03*
X60218Y-32356D03*
X60022Y-32356D03*
X59825Y-32356D03*
X59628Y-32356D03*
G54D21*
X59136Y-32651D03*
X59136Y-32848D03*
X59136Y-33045D03*
X59136Y-33242D03*
X59136Y-33438D03*
X59136Y-33635D03*
X59136Y-33832D03*
X59136Y-34029D03*
G54D20*
X59431Y-34324D03*
X59628Y-34324D03*
X59825Y-34324D03*
X60022Y-34324D03*
G54D22*
X60120Y-33340D03*
G54D23*
X45885Y-45820D03*
G54D24*
X45885Y-44820D03*
X45885Y-43820D03*
X45885Y-42820D03*
X45885Y-41820D03*
X45885Y-40820D03*
G54D25*
X64260Y-32880D03*
G54D26*
X64260Y-34490D03*
X64260Y-31269D03*
G54D27*
X63206Y-32880D03*
X63206Y-33135D03*
X63206Y-33391D03*
X63206Y-32624D03*
X63206Y-32368D03*
G54D28*
X63078Y-33755D03*
X63078Y-32004D03*
G54D29*
X51344Y-36776D03*
G54D30*
X51541Y-36776D03*
X51738Y-36776D03*
X51935Y-36776D03*
X52132Y-36776D03*
X52328Y-36776D03*
X52525Y-36776D03*
X52722Y-36776D03*
X52919Y-36776D03*
X53116Y-36776D03*
X53313Y-36776D03*
X53509Y-36776D03*
X53706Y-36776D03*
X53903Y-36776D03*
X54100Y-36776D03*
X54297Y-36776D03*
G54D31*
X55195Y-35941D03*
X55195Y-35744D03*
X55195Y-35547D03*
X55195Y-35350D03*
X55195Y-35153D03*
X55195Y-34957D03*
X55195Y-34760D03*
X55195Y-34563D03*
X55195Y-34366D03*
X55195Y-34169D03*
X55195Y-33972D03*
X55195Y-33776D03*
X55195Y-33579D03*
X55195Y-33382D03*
X55195Y-33185D03*
X55195Y-32988D03*
G54D30*
X54297Y-32090D03*
X54100Y-32090D03*
X53903Y-32090D03*
X53706Y-32090D03*
X53509Y-32090D03*
X53313Y-32090D03*
X53116Y-32090D03*
X52919Y-32090D03*
X52722Y-32090D03*
X52525Y-32090D03*
X52328Y-32090D03*
X52132Y-32090D03*
X51935Y-32090D03*
X51738Y-32090D03*
X51541Y-32090D03*
X51344Y-32090D03*
G54D31*
X50509Y-32988D03*
X50509Y-33185D03*
X50509Y-33579D03*
X50502Y-33382D03*
X50509Y-33776D03*
X50509Y-33972D03*
X50509Y-34169D03*
X50509Y-34366D03*
X50509Y-34563D03*
X50509Y-34760D03*
X50509Y-34954D03*
X50509Y-35151D03*
X50509Y-35348D03*
X50509Y-35545D03*
X50509Y-35741D03*
X50509Y-35938D03*
G54D32*
X46418Y-32075D03*
X45592Y-32075D03*
X46418Y-33285D03*
X45592Y-33285D03*
X64383Y-35815D03*
X63557Y-35815D03*
X46413Y-34605D03*
X45587Y-34605D03*
X46413Y-35815D03*
X45587Y-35815D03*
G54D33*
X53225Y-40235D03*
X51225Y-40235D03*
G54D34*
X61091Y-45372D03*
X63768Y-45372D03*
X63768Y-46947D03*
X61091Y-46947D03*
G54D35*
X62452Y-39820D03*
X63948Y-39820D03*
G54D23*
X59419Y-28249D03*
G54D24*
X57419Y-28249D03*
X56419Y-28249D03*
X55419Y-28249D03*
X54419Y-28249D03*
X53419Y-28249D03*
X52419Y-28249D03*
G54D23*
X50819Y-28249D03*
G54D24*
X49819Y-28249D03*
X48819Y-28249D03*
X47819Y-28249D03*
X46819Y-28249D03*
X45821Y-28249D03*
X58419Y-28249D03*
G54D23*
X59419Y-47249D03*
G54D24*
X58419Y-47249D03*
X57419Y-47249D03*
X56419Y-47249D03*
X55419Y-47249D03*
X54419Y-47249D03*
X52419Y-47249D03*
X50419Y-47249D03*
X49419Y-47249D03*
X48419Y-47249D03*
X47419Y-47249D03*
X51419Y-47249D03*
X54419Y-46249D03*
X55419Y-46249D03*
X56419Y-46249D03*
X57419Y-46249D03*
X58419Y-46249D03*
X59419Y-46249D03*
X60419Y-28249D03*
X61419Y-28249D03*
X62419Y-28249D03*
X63419Y-28249D03*
G54D36*
X59780Y-35506D03*
X59780Y-36373D03*
X58780Y-35506D03*
X58780Y-36373D03*
G54D37*
X61560Y-43730D03*
X63215Y-41365D03*
G54D38*
X53910Y-42970D03*
X49330Y-38470D03*
X54890Y-39020D03*
X50710Y-38425D03*
X56055Y-36490D03*
X56035Y-34910D03*
X51795Y-38205D03*
X55825Y-38550D03*
X49555Y-38110D03*
X54380Y-42855D03*
X55260Y-38830D03*
X51485Y-38250D03*
X57240Y-39250D03*
X56840Y-35600D03*
X50850Y-30415D03*
X50720Y-30975D03*
X51900Y-30360D03*
X51380Y-30840D03*
X53135Y-30340D03*
X53860Y-30575D03*
X55130Y-32250D03*
X59690Y-30320D03*
X57465Y-34435D03*
X60550Y-31180D03*
X56070Y-34610D03*
X61080Y-29050D03*
X60480Y-30380D03*
X53020Y-31390D03*
X56300Y-28980D03*
X49950Y-36475D03*
X54075Y-30315D03*
X48770Y-37645D03*
X48540Y-35975D03*
X49280Y-29050D03*
X45645Y-31250D03*
X45630Y-35240D03*
X57425Y-28785D03*
X54455Y-30795D03*
X53290Y-32665D03*
X50020Y-31550D03*
X53225Y-31050D03*
X48400Y-33150D03*
X48580Y-31145D03*
X50000Y-31145D03*
X53450Y-30815D03*
X48070Y-31015D03*
X48295Y-32450D03*
X51465Y-28460D03*
X52600Y-37855D03*
X50765Y-37855D03*
G54D37*
X50025Y-45830D03*
X60080Y-45530D03*
X58850Y-42950D03*
X54630Y-42610D03*
X48245Y-42170D03*
G54D38*
X48390Y-35250D03*
G54D37*
X57885Y-42560D03*
X54630Y-42230D03*
X48550Y-41890D03*
G54D38*
X48650Y-35460D03*
X48265Y-33775D03*
X48905Y-33755D03*
X48900Y-32530D03*
X47380Y-32705D03*
X54165Y-37395D03*
X57140Y-32265D03*
X53790Y-37420D03*
X56820Y-32525D03*
X47110Y-31515D03*
G54D37*
X46800Y-31150D03*
G54D38*
X46520Y-34020D03*
X55565Y-32700D03*
X51040Y-32025D03*
G54D37*
X50330Y-31005D03*
X50475Y-32335D03*
G54D39*
X55540Y-30865D03*
G54D38*
X49980Y-36165D03*
X54585Y-35155D03*
X59200Y-31905D03*
X59230Y-34755D03*
X60515Y-35100D03*
X61585Y-33125D03*
G54D37*
X47650Y-38440D03*
X58030Y-35155D03*
X63510Y-37715D03*
X63000Y-42470D03*
G54D39*
X56940Y-35075D03*
X58810Y-31270D03*
G54D38*
X58325Y-29775D03*
X49840Y-34440D03*
X49495Y-36890D03*
X50470Y-37515D03*
X53095Y-37855D03*
X59040Y-29710D03*
X53405Y-37590D03*
X50290Y-37830D03*
X49270Y-37125D03*
X59400Y-29705D03*
X58690Y-29780D03*
X49710Y-36650D03*
X61900Y-33355D03*
G54D37*
X61705Y-29770D03*
X61625Y-37690D03*
X62485Y-32205D03*
G54D38*
X51100Y-37270D03*
X54020Y-33380D03*
X52165Y-33075D03*
X54000Y-35220D03*
X60160Y-37155D03*
X61080Y-36770D03*
X54940Y-28140D03*
X52920Y-28285D03*
X49330Y-28490D03*
X51835Y-28210D03*
X53920Y-28315D03*
X55920Y-28345D03*
X50325Y-28305D03*
X62920Y-28295D03*
X61915Y-28315D03*
X57915Y-28375D03*
X60900Y-28585D03*
X59985Y-28635D03*
X58900Y-28320D03*
X48635Y-38865D03*
X47145Y-31195D03*
X50250Y-39100D03*
X60635Y-31480D03*
X59165Y-44760D03*
X58175Y-44765D03*
X57175Y-44770D03*
X56660Y-44760D03*
X57665Y-44755D03*
X58665Y-44760D03*
X60355Y-42950D03*
X59800Y-44770D03*
X55680Y-44760D03*
X54670Y-44750D03*
X54170Y-44750D03*
X55175Y-44755D03*
X56175Y-44755D03*
X62270Y-41330D03*
X61325Y-40805D03*
X63225Y-39870D03*
X61840Y-33910D03*
G54D37*
X59765Y-33675D03*
X60130Y-33380D03*
X59725Y-32975D03*
X60475Y-33725D03*
G54D38*
X64055Y-46165D03*
X62410Y-47055D03*
X62390Y-45865D03*
X60340Y-46195D03*
X62660Y-43640D03*
X63960Y-44500D03*
X57185Y-34680D03*
X55795Y-35640D03*
X52825Y-33050D03*
X53150Y-34710D03*
X50345Y-32675D03*
X51520Y-34605D03*
X58205Y-30600D03*
X56140Y-31740D03*
X55145Y-31050D03*
X55085Y-31900D03*
X58065Y-32400D03*
X57280Y-32565D03*
X47160Y-29905D03*
X47515Y-29450D03*
X48310Y-29900D03*
X48330Y-28500D03*
X49340Y-29700D03*
X47325Y-28505D03*
X46310Y-28545D03*
X45390Y-28730D03*
X46810Y-30500D03*
X45990Y-30610D03*
X45420Y-30070D03*
X46885Y-36315D03*
X48615Y-34440D03*
X45560Y-36380D03*
X45780Y-32710D03*
X45745Y-33915D03*
X47525Y-33840D03*
X46145Y-39335D03*
X45575Y-40000D03*
X45590Y-38605D03*
X47770Y-39290D03*
X48435Y-40845D03*
X48270Y-43900D03*
X47170Y-42000D03*
X46815Y-44535D03*
X46670Y-46610D03*
X45690Y-47140D03*
X47910Y-45790D03*
X48870Y-45530D03*
X49545Y-44195D03*
X50010Y-43240D03*
X52970Y-43275D03*
X53080Y-44765D03*
X50660Y-44800D03*
X50970Y-46380D03*
X53050Y-46190D03*
X52215Y-41700D03*
X54465Y-39215D03*
X54600Y-41730D03*
X55170Y-41220D03*
X55160Y-39410D03*
X55670Y-39440D03*
X56180Y-42620D03*
X55685Y-42610D03*
X55670Y-41810D03*
X56180Y-40980D03*
X56170Y-39410D03*
X56660Y-39920D03*
X56665Y-42570D03*
X57170Y-42580D03*
X57165Y-39905D03*
X57840Y-40100D03*
X57920Y-42030D03*
X58910Y-42380D03*
X58980Y-40100D03*
X60075Y-41735D03*
X59725Y-38570D03*
X58060Y-37750D03*
X63210Y-36520D03*
X62820Y-34580D03*
X61795Y-31880D03*
X62775Y-30175D03*
X64230Y-28370D03*
X64270Y-30105D03*
X60600Y-35780D03*
X59025Y-31645D03*
X58255Y-34485D03*
G54D40*
X47350Y-36985D02*
X48125Y-36985D01*
X49959Y-35151D02*
X50509Y-35151D01*
X48125Y-36985D02*
X49959Y-35151D01*
X47315Y-37020D02*
X47350Y-36985D01*
X46495Y-37020D02*
X47315Y-37020D01*
X52132Y-36776D02*
X52132Y-38403D01*
X52132Y-38403D02*
X51830Y-38705D01*
X52328Y-36776D02*
X52328Y-38433D01*
X52328Y-38433D02*
X52630Y-38735D01*
G54D41*
X63215Y-41365D02*
X63165Y-41365D01*
X62250Y-43040D02*
X61560Y-43730D01*
X62250Y-42280D02*
X62250Y-43040D01*
X63165Y-41365D02*
X62250Y-42280D01*
X64015Y-41515D02*
X63365Y-41515D01*
X63365Y-41515D02*
X63215Y-41365D01*
X63948Y-39820D02*
X64270Y-39820D01*
X64440Y-41515D02*
X64015Y-41515D01*
X64500Y-41455D02*
X64440Y-41515D01*
X64500Y-40050D02*
X64500Y-41455D01*
X64270Y-39820D02*
X64500Y-40050D01*
G54D40*
X63948Y-39820D02*
X64200Y-39820D01*
X48550Y-38435D02*
X49295Y-38435D01*
X48050Y-37935D02*
X48550Y-38435D01*
X50509Y-35348D02*
X50017Y-35348D01*
X48050Y-37315D02*
X48050Y-37585D01*
X50017Y-35348D02*
X48050Y-37315D01*
X48050Y-37585D02*
X48050Y-37935D01*
X53920Y-46749D02*
X54419Y-47249D01*
X53920Y-42980D02*
X53920Y-46749D01*
X53910Y-42970D02*
X53920Y-42980D01*
X49295Y-38435D02*
X49330Y-38470D01*
X51541Y-36776D02*
X51541Y-37784D01*
X54920Y-46749D02*
X55419Y-47249D01*
X54920Y-39050D02*
X54920Y-46749D01*
X54890Y-39020D02*
X54920Y-39050D01*
X50840Y-38295D02*
X50710Y-38425D01*
X51030Y-38295D02*
X50840Y-38295D01*
X51541Y-37784D02*
X51030Y-38295D01*
X55195Y-34957D02*
X54752Y-34957D01*
X58419Y-39674D02*
X58419Y-46249D01*
X55550Y-36805D02*
X58419Y-39674D01*
X54945Y-36805D02*
X55550Y-36805D01*
X54275Y-36135D02*
X54945Y-36805D01*
X54275Y-35075D02*
X54275Y-36135D01*
X54470Y-34880D02*
X54275Y-35075D01*
X54675Y-34880D02*
X54470Y-34880D01*
X54752Y-34957D02*
X54675Y-34880D01*
X55195Y-34760D02*
X55885Y-34760D01*
X59419Y-39854D02*
X59419Y-46249D01*
X56055Y-36490D02*
X59419Y-39854D01*
X55885Y-34760D02*
X56035Y-34910D01*
X51935Y-38065D02*
X51795Y-38205D01*
X55925Y-38895D02*
X55925Y-46754D01*
X56419Y-47249D02*
X55925Y-46754D01*
X51935Y-38065D02*
X51935Y-36776D01*
X55925Y-38650D02*
X55925Y-38895D01*
X55825Y-38550D02*
X55925Y-38650D01*
X54297Y-36776D02*
X54297Y-37062D01*
X56915Y-46744D02*
X57419Y-47249D01*
X56915Y-38575D02*
X56915Y-46744D01*
X55940Y-37600D02*
X56915Y-38575D01*
X54835Y-37600D02*
X55940Y-37600D01*
X54297Y-37062D02*
X54835Y-37600D01*
X48460Y-37780D02*
X48460Y-37800D01*
X50105Y-35545D02*
X48460Y-37190D01*
X48460Y-37190D02*
X48460Y-37780D01*
X50509Y-35545D02*
X50105Y-35545D01*
X48770Y-38110D02*
X49555Y-38110D01*
X48460Y-37800D02*
X48770Y-38110D01*
X54419Y-42894D02*
X54419Y-46249D01*
X54380Y-42855D02*
X54419Y-42894D01*
X55419Y-39080D02*
X55419Y-38989D01*
X55419Y-46249D02*
X55419Y-39080D01*
X55419Y-38989D02*
X55260Y-38830D01*
X51738Y-36776D02*
X51738Y-37887D01*
X51485Y-38140D02*
X51485Y-38250D01*
X51738Y-37887D02*
X51485Y-38140D01*
X52960Y-38135D02*
X55920Y-38135D01*
X52919Y-37356D02*
X52845Y-37430D01*
X52845Y-37430D02*
X52845Y-38020D01*
X52845Y-38020D02*
X52960Y-38135D01*
X52919Y-36776D02*
X52919Y-37356D01*
X56419Y-38634D02*
X56419Y-46249D01*
X55920Y-38135D02*
X56419Y-38634D01*
X55195Y-35350D02*
X56590Y-35350D01*
X57419Y-39429D02*
X57419Y-46249D01*
X57240Y-39250D02*
X57419Y-39429D01*
X56590Y-35350D02*
X56840Y-35600D01*
X51175Y-32970D02*
X51175Y-32535D01*
X51053Y-33972D02*
X51175Y-33850D01*
X51175Y-33850D02*
X51175Y-32970D01*
X50850Y-30415D02*
X50819Y-30384D01*
X50819Y-28249D02*
X50819Y-30384D01*
X51053Y-33972D02*
X50509Y-33972D01*
X50610Y-31085D02*
X50720Y-30975D01*
X50610Y-31970D02*
X50610Y-31085D01*
X51175Y-32535D02*
X50610Y-31970D01*
X51935Y-32090D02*
X51935Y-31395D01*
X51970Y-28699D02*
X52419Y-28249D01*
X51970Y-30290D02*
X51970Y-28699D01*
X51900Y-30360D02*
X51970Y-30290D01*
X51935Y-31395D02*
X51380Y-30840D01*
X53706Y-32090D02*
X53706Y-30729D01*
X55225Y-28249D02*
X55419Y-28249D01*
X53135Y-30340D02*
X55225Y-28249D01*
X53706Y-30729D02*
X53860Y-30575D01*
X53903Y-32090D02*
X53903Y-30887D01*
X56259Y-29410D02*
X57419Y-28249D01*
X55380Y-29410D02*
X56259Y-29410D01*
X53903Y-30887D02*
X55380Y-29410D01*
X60419Y-28249D02*
X60419Y-28760D01*
X54001Y-33776D02*
X53750Y-33525D01*
X53750Y-33525D02*
X53750Y-33285D01*
X53750Y-33285D02*
X54785Y-32250D01*
X54785Y-32250D02*
X55130Y-32250D01*
X54001Y-33776D02*
X55195Y-33776D01*
X59785Y-30225D02*
X59690Y-30320D01*
X59785Y-29395D02*
X59785Y-30225D01*
X60419Y-28760D02*
X59785Y-29395D01*
X61419Y-28249D02*
X61419Y-29515D01*
X57396Y-34366D02*
X55195Y-34366D01*
X57396Y-34366D02*
X57465Y-34435D01*
X60900Y-30830D02*
X60550Y-31180D01*
X60900Y-30035D02*
X60900Y-30830D01*
X61419Y-29515D02*
X60900Y-30035D01*
X55195Y-34563D02*
X56023Y-34563D01*
X56023Y-34563D02*
X56070Y-34610D01*
X60705Y-29425D02*
X61080Y-29050D01*
X60705Y-30155D02*
X60705Y-29425D01*
X60480Y-30380D02*
X60705Y-30155D01*
X53020Y-31390D02*
X52919Y-31491D01*
X52919Y-31491D02*
X52919Y-32090D01*
X49835Y-36360D02*
X49630Y-36360D01*
X54075Y-30295D02*
X55390Y-28980D01*
X55390Y-28980D02*
X56300Y-28980D01*
X49950Y-36475D02*
X49835Y-36360D01*
X54075Y-30315D02*
X54075Y-30295D01*
X49015Y-37400D02*
X48770Y-37645D01*
X49015Y-36975D02*
X49015Y-37400D01*
X49630Y-36360D02*
X49015Y-36975D01*
X48015Y-35795D02*
X48360Y-35795D01*
X48540Y-35975D02*
X48360Y-35795D01*
X48085Y-35180D02*
X48395Y-34870D01*
X48020Y-35180D02*
X48085Y-35180D01*
X49280Y-29050D02*
X49265Y-29035D01*
X49265Y-29035D02*
X46985Y-29035D01*
X46985Y-29035D02*
X45645Y-30375D01*
X45645Y-30375D02*
X45645Y-31250D01*
X45630Y-35240D02*
X45690Y-35180D01*
X45690Y-35180D02*
X48020Y-35180D01*
X48310Y-34585D02*
X48395Y-34670D01*
X48395Y-34670D02*
X48395Y-34785D01*
X47985Y-34585D02*
X48310Y-34585D01*
X48395Y-34870D02*
X48395Y-34785D01*
X53116Y-32090D02*
X53116Y-32491D01*
X56460Y-29750D02*
X57425Y-28785D01*
X55500Y-29750D02*
X56460Y-29750D01*
X54455Y-30795D02*
X55500Y-29750D01*
X53116Y-32491D02*
X53290Y-32665D01*
X50020Y-31505D02*
X49615Y-31100D01*
X49615Y-31100D02*
X48660Y-31100D01*
X53313Y-32090D02*
X53313Y-31138D01*
X53313Y-31138D02*
X53225Y-31050D01*
X50020Y-31550D02*
X50020Y-31505D01*
X48280Y-33270D02*
X47915Y-33270D01*
X48400Y-33150D02*
X48280Y-33270D01*
X48625Y-31100D02*
X48660Y-31100D01*
X48580Y-31145D02*
X48625Y-31100D01*
X53509Y-32090D02*
X53509Y-30874D01*
X53509Y-30874D02*
X53450Y-30815D01*
X50000Y-31120D02*
X49785Y-30905D01*
X49785Y-30905D02*
X48180Y-30905D01*
X48180Y-30905D02*
X48070Y-31015D01*
X50000Y-31145D02*
X50000Y-31120D01*
X47900Y-32055D02*
X47900Y-32050D01*
X48295Y-32450D02*
X47900Y-32055D01*
X51465Y-28460D02*
X51220Y-28705D01*
X51220Y-28705D02*
X51220Y-28940D01*
X52132Y-32090D02*
X52132Y-31047D01*
X51220Y-30135D02*
X51220Y-28940D01*
X52132Y-31047D02*
X51220Y-30135D01*
X52328Y-32090D02*
X52328Y-29341D01*
X52328Y-29341D02*
X53419Y-28249D01*
X52525Y-32090D02*
X52525Y-30144D01*
X52525Y-30144D02*
X54419Y-28249D01*
X54780Y-29120D02*
X55155Y-28745D01*
X52722Y-31178D02*
X54780Y-29120D01*
X52722Y-32090D02*
X52722Y-31178D01*
X55924Y-28745D02*
X56419Y-28249D01*
X55155Y-28745D02*
X55924Y-28745D01*
X52525Y-37780D02*
X52600Y-37855D01*
X50765Y-37855D02*
X50230Y-38390D01*
X50230Y-38390D02*
X49870Y-38390D01*
X49870Y-38390D02*
X46440Y-41820D01*
X45885Y-41820D02*
X46440Y-41820D01*
X52525Y-37780D02*
X52525Y-36776D01*
G54D41*
X61091Y-45372D02*
X60237Y-45372D01*
X48404Y-46265D02*
X47419Y-47249D01*
X49590Y-46265D02*
X48404Y-46265D01*
X50025Y-45830D02*
X49590Y-46265D01*
X60237Y-45372D02*
X60080Y-45530D01*
G54D40*
X45885Y-41820D02*
X46195Y-41820D01*
X46195Y-41820D02*
X47419Y-43044D01*
X47419Y-43044D02*
X47419Y-47249D01*
X61105Y-44480D02*
X61105Y-45359D01*
X61105Y-45359D02*
X61091Y-45372D01*
X61810Y-44525D02*
X61150Y-44525D01*
X61150Y-44525D02*
X61105Y-44480D01*
X61091Y-45372D02*
X63768Y-45372D01*
X50509Y-34760D02*
X48880Y-34760D01*
X58915Y-46744D02*
X59419Y-47249D01*
X58915Y-43015D02*
X58915Y-46744D01*
X58850Y-42950D02*
X58915Y-43015D01*
X48685Y-42610D02*
X54630Y-42610D01*
X48245Y-42170D02*
X48685Y-42610D01*
X48880Y-34760D02*
X48390Y-35250D01*
X50509Y-34954D02*
X49131Y-34954D01*
X57920Y-46749D02*
X58419Y-47249D01*
X57920Y-42595D02*
X57920Y-46749D01*
X57885Y-42560D02*
X57920Y-42595D01*
X48890Y-42230D02*
X54630Y-42230D01*
X48550Y-41890D02*
X48890Y-42230D01*
X48650Y-35435D02*
X48650Y-35460D01*
X49131Y-34954D02*
X48650Y-35435D01*
X50509Y-33579D02*
X49089Y-33579D01*
X48540Y-33500D02*
X48265Y-33775D01*
X49010Y-33500D02*
X48540Y-33500D01*
X49089Y-33579D02*
X49010Y-33500D01*
X48926Y-33776D02*
X48905Y-33755D01*
X50509Y-33776D02*
X48926Y-33776D01*
X50509Y-33185D02*
X49265Y-33185D01*
X48900Y-32820D02*
X48900Y-32530D01*
X49265Y-33185D02*
X48900Y-32820D01*
X49182Y-33382D02*
X48490Y-32690D01*
X49182Y-33382D02*
X50502Y-33382D01*
X47395Y-32690D02*
X48490Y-32690D01*
X47380Y-32705D02*
X47395Y-32690D01*
X54100Y-37330D02*
X54165Y-37395D01*
X54100Y-36776D02*
X54100Y-37330D01*
X59370Y-28249D02*
X59419Y-28249D01*
X57225Y-30395D02*
X59370Y-28249D01*
X57225Y-32180D02*
X57225Y-30395D01*
X57140Y-32265D02*
X57225Y-32180D01*
X53903Y-37307D02*
X53790Y-37420D01*
X53903Y-36776D02*
X53903Y-37307D01*
X56895Y-29774D02*
X58419Y-28249D01*
X56895Y-32450D02*
X56895Y-29774D01*
X56820Y-32525D02*
X56895Y-32450D01*
X47140Y-31545D02*
X48320Y-31545D01*
X49763Y-32988D02*
X50509Y-32988D01*
X48320Y-31545D02*
X49763Y-32988D01*
X47110Y-31515D02*
X47140Y-31545D01*
X51738Y-32090D02*
X51738Y-31658D01*
X47240Y-30710D02*
X46800Y-31150D01*
X50790Y-30710D02*
X47240Y-30710D01*
X51738Y-31658D02*
X50790Y-30710D01*
X46669Y-34169D02*
X50509Y-34169D01*
X46520Y-34020D02*
X46669Y-34169D01*
X60612Y-34852D02*
X60612Y-35003D01*
X60612Y-34324D02*
X60612Y-34852D01*
X60612Y-35003D02*
X60515Y-35100D01*
X55540Y-32910D02*
X55540Y-32725D01*
X55195Y-32988D02*
X55462Y-32988D01*
X55462Y-32988D02*
X55540Y-32910D01*
X55540Y-32725D02*
X55565Y-32700D01*
X51344Y-32090D02*
X51344Y-31779D01*
X51040Y-31815D02*
X51040Y-32025D01*
X51155Y-31700D02*
X51040Y-31815D01*
X51265Y-31700D02*
X51155Y-31700D01*
X51344Y-31779D02*
X51265Y-31700D01*
G54D42*
X50330Y-32190D02*
X50330Y-31005D01*
X50475Y-32335D02*
X50330Y-32190D01*
G54D41*
X55540Y-30865D02*
X55560Y-30885D01*
X55560Y-30885D02*
X56395Y-30885D01*
G54D40*
X50509Y-35938D02*
X50207Y-35938D01*
X50207Y-35938D02*
X49980Y-36165D01*
X55195Y-35547D02*
X54777Y-35547D01*
X54585Y-35355D02*
X54585Y-35155D01*
X54777Y-35547D02*
X54585Y-35355D01*
X59431Y-32356D02*
X59431Y-32136D01*
X59431Y-32136D02*
X59200Y-31905D01*
X59431Y-34324D02*
X59431Y-34554D01*
X59431Y-34554D02*
X59230Y-34755D01*
X60415Y-34324D02*
X60415Y-35000D01*
X60415Y-35000D02*
X60515Y-35100D01*
X59431Y-34324D02*
X59431Y-34479D01*
X61104Y-33045D02*
X61505Y-33045D01*
X61505Y-33045D02*
X61585Y-33125D01*
G54D42*
X47350Y-38140D02*
X47350Y-37735D01*
X47650Y-38440D02*
X47350Y-38140D01*
G54D41*
X58030Y-35155D02*
X57900Y-35155D01*
X57760Y-35295D02*
X57760Y-35640D01*
X57900Y-35155D02*
X57760Y-35295D01*
X58780Y-35295D02*
X58780Y-35506D01*
X58560Y-35075D02*
X58780Y-35295D01*
X58110Y-35075D02*
X58560Y-35075D01*
X58030Y-35155D02*
X58110Y-35075D01*
X63815Y-37410D02*
X64105Y-37410D01*
X63510Y-37715D02*
X63815Y-37410D01*
X63055Y-42415D02*
X64015Y-42415D01*
X63000Y-42470D02*
X63055Y-42415D01*
G54D40*
X59825Y-32356D02*
X59825Y-31885D01*
X56862Y-35153D02*
X55195Y-35153D01*
X56940Y-35075D02*
X56862Y-35153D01*
X59210Y-31270D02*
X58810Y-31270D01*
X59825Y-31885D02*
X59210Y-31270D01*
X59136Y-34029D02*
X58361Y-34029D01*
X56894Y-35941D02*
X55195Y-35941D01*
X57280Y-35555D02*
X56894Y-35941D01*
X57280Y-35110D02*
X57280Y-35555D01*
X58361Y-34029D02*
X57280Y-35110D01*
X59136Y-33832D02*
X58273Y-33832D01*
X57936Y-34169D02*
X55195Y-34169D01*
X58273Y-33832D02*
X57936Y-34169D01*
X59136Y-33635D02*
X58185Y-33635D01*
X57848Y-33972D02*
X55195Y-33972D01*
X58185Y-33635D02*
X57848Y-33972D01*
X59136Y-33438D02*
X58087Y-33438D01*
X57946Y-33579D02*
X55195Y-33579D01*
X58087Y-33438D02*
X57946Y-33579D01*
X59136Y-33242D02*
X58008Y-33242D01*
X57868Y-33382D02*
X55195Y-33382D01*
X58008Y-33242D02*
X57868Y-33382D01*
X59136Y-33045D02*
X56645Y-33045D01*
X54297Y-31653D02*
X54297Y-32090D01*
X54390Y-31560D02*
X54297Y-31653D01*
X55160Y-31560D02*
X54390Y-31560D01*
X56645Y-33045D02*
X55160Y-31560D01*
X59136Y-32848D02*
X56713Y-32848D01*
X54100Y-31560D02*
X54100Y-32090D01*
X54285Y-31375D02*
X54100Y-31560D01*
X55240Y-31375D02*
X54285Y-31375D01*
X56713Y-32848D02*
X55240Y-31375D01*
X58881Y-32651D02*
X58450Y-32220D01*
X58450Y-32220D02*
X58450Y-29900D01*
X58450Y-29900D02*
X58325Y-29775D01*
X49840Y-34440D02*
X49963Y-34563D01*
X50509Y-34563D02*
X49963Y-34563D01*
X58881Y-32651D02*
X59136Y-32651D01*
X49495Y-36890D02*
X50120Y-37515D01*
X50120Y-37515D02*
X50470Y-37515D01*
X53095Y-37855D02*
X53116Y-37834D01*
X53116Y-36776D02*
X53116Y-37834D01*
X60218Y-31718D02*
X60218Y-32356D01*
X59140Y-29810D02*
X59040Y-29710D01*
X59140Y-30640D02*
X59140Y-29810D01*
X60218Y-31718D02*
X59140Y-30640D01*
X53313Y-37498D02*
X53313Y-36776D01*
X53405Y-37590D02*
X53313Y-37498D01*
X49975Y-37830D02*
X50290Y-37830D01*
X49270Y-37125D02*
X49975Y-37830D01*
X60415Y-32356D02*
X60415Y-31635D01*
X59400Y-30620D02*
X59400Y-29705D01*
X60415Y-31635D02*
X59400Y-30620D01*
X60022Y-31792D02*
X58935Y-30705D01*
X58935Y-30705D02*
X58935Y-30025D01*
X58935Y-30025D02*
X58690Y-29780D01*
X60022Y-32356D02*
X60022Y-31792D01*
X49710Y-36650D02*
X49980Y-36920D01*
X49980Y-36920D02*
X50290Y-36920D01*
X50290Y-36920D02*
X50970Y-36240D01*
X50970Y-36240D02*
X52595Y-36240D01*
X52595Y-36240D02*
X52722Y-36367D01*
X52722Y-36776D02*
X52722Y-36367D01*
G54D42*
X63206Y-32368D02*
X62648Y-32368D01*
X61760Y-38340D02*
X61760Y-38710D01*
X61370Y-39100D02*
X61370Y-39315D01*
X61760Y-38710D02*
X61370Y-39100D01*
G54D40*
X61104Y-33438D02*
X61817Y-33438D01*
X61817Y-33438D02*
X61900Y-33355D01*
G54D42*
X61710Y-29775D02*
X61710Y-30375D01*
G54D40*
X61705Y-29770D02*
X61710Y-29775D01*
G54D42*
X61760Y-37825D02*
X61760Y-38340D01*
X61625Y-37690D02*
X61760Y-37825D01*
X62648Y-32368D02*
X62485Y-32205D01*
G54D40*
X51344Y-36776D02*
X51344Y-37026D01*
X51344Y-37026D02*
X51100Y-37270D01*
X55195Y-33185D02*
X54215Y-33185D01*
X54215Y-33185D02*
X54020Y-33380D01*
X51541Y-32090D02*
X51541Y-32451D01*
X51541Y-32451D02*
X52165Y-33075D01*
X53706Y-36776D02*
X53706Y-35514D01*
X53706Y-35514D02*
X54000Y-35220D01*
X61500Y-35815D02*
X61500Y-36445D01*
X60145Y-37170D02*
X59550Y-37170D01*
X60160Y-37155D02*
X60145Y-37170D01*
X61175Y-36770D02*
X61080Y-36770D01*
X61500Y-36445D02*
X61175Y-36770D01*
G54D43*
X49330Y-28490D02*
X49695Y-28855D01*
X50330Y-28310D02*
X50325Y-28305D01*
X50330Y-28440D02*
X50330Y-28310D01*
X49915Y-28855D02*
X50330Y-28440D01*
X49695Y-28855D02*
X49915Y-28855D01*
X62920Y-28295D02*
X62920Y-28490D01*
X64205Y-28370D02*
X63780Y-28795D01*
X63780Y-28795D02*
X63160Y-28795D01*
X63160Y-28795D02*
X62920Y-28555D01*
X62920Y-28555D02*
X62920Y-28295D01*
X64230Y-28370D02*
X64205Y-28370D01*
X61915Y-28560D02*
X61915Y-28315D01*
X62115Y-28760D02*
X61915Y-28560D01*
X62650Y-28760D02*
X62115Y-28760D01*
X62920Y-28490D02*
X62650Y-28760D01*
X60350Y-29280D02*
X60900Y-28730D01*
X60900Y-28730D02*
X60900Y-28585D01*
X60635Y-31480D02*
X60515Y-31480D01*
X60010Y-30380D02*
X60350Y-30040D01*
X60010Y-30975D02*
X60010Y-30380D01*
X60515Y-31480D02*
X60010Y-30975D01*
X60350Y-30040D02*
X60350Y-29280D01*
X47770Y-39290D02*
X48210Y-39290D01*
X48210Y-39290D02*
X48635Y-38865D01*
G54D40*
X50345Y-32675D02*
X49750Y-32675D01*
X47240Y-31290D02*
X47145Y-31195D01*
X48365Y-31290D02*
X47240Y-31290D01*
X49750Y-32675D02*
X48365Y-31290D01*
G54D43*
X48505Y-40845D02*
X50250Y-39100D01*
X48435Y-40845D02*
X48505Y-40845D01*
X60809Y-32356D02*
X60809Y-32089D01*
X60635Y-31915D02*
X60635Y-31480D01*
X60809Y-32089D02*
X60635Y-31915D01*
X60809Y-32356D02*
X60809Y-32651D01*
X60809Y-32651D02*
X60120Y-33340D01*
X59815Y-43490D02*
X60355Y-42950D01*
X59815Y-44755D02*
X59815Y-43490D01*
X59800Y-44770D02*
X59815Y-44755D01*
X56175Y-44755D02*
X56150Y-44755D01*
X63206Y-33391D02*
X62608Y-33391D01*
X62455Y-34215D02*
X62820Y-34580D01*
X62455Y-33545D02*
X62455Y-34215D01*
X62608Y-33391D02*
X62455Y-33545D01*
X61850Y-41330D02*
X62270Y-41330D01*
X61325Y-40805D02*
X61850Y-41330D01*
X64190Y-38325D02*
X64190Y-38810D01*
X63225Y-39315D02*
X63225Y-39870D01*
X63520Y-39020D02*
X63225Y-39315D01*
X63980Y-39020D02*
X63520Y-39020D01*
X64190Y-38810D02*
X63980Y-39020D01*
X61104Y-34029D02*
X61721Y-34029D01*
X61762Y-33832D02*
X61840Y-33910D01*
X61762Y-33832D02*
X61104Y-33832D01*
X61721Y-34029D02*
X61840Y-33910D01*
X61104Y-34029D02*
X60809Y-34029D01*
X60809Y-34029D02*
X60120Y-33340D01*
X61104Y-33832D02*
X60612Y-33832D01*
X60612Y-33832D02*
X60120Y-33340D01*
X60100Y-33340D02*
X60120Y-33340D01*
X59765Y-33675D02*
X60100Y-33340D01*
X60130Y-33380D02*
X60120Y-33370D01*
X60120Y-33370D02*
X60120Y-33340D01*
X60090Y-33340D02*
X60120Y-33340D01*
X59725Y-32975D02*
X60090Y-33340D01*
X60120Y-33370D02*
X60120Y-33340D01*
X60475Y-33725D02*
X60120Y-33370D01*
X64055Y-46165D02*
X64055Y-46265D01*
X63300Y-46165D02*
X64055Y-46165D01*
X62410Y-47055D02*
X63300Y-46165D01*
X60670Y-45865D02*
X62390Y-45865D01*
X60340Y-46195D02*
X60670Y-45865D01*
X63670Y-44650D02*
X62660Y-43640D01*
X63810Y-44650D02*
X63670Y-44650D01*
X63960Y-44500D02*
X63810Y-44650D01*
X63768Y-46551D02*
X63768Y-46947D01*
X64055Y-46265D02*
X63768Y-46551D01*
G54D40*
X55195Y-35744D02*
X55691Y-35744D01*
X55691Y-35744D02*
X55795Y-35640D01*
G54D43*
X52825Y-33050D02*
X52835Y-33040D01*
X53509Y-36776D02*
X53509Y-36304D01*
X53150Y-35945D02*
X53150Y-34710D01*
X53509Y-36304D02*
X53150Y-35945D01*
X50350Y-32670D02*
X50380Y-32670D01*
X50345Y-32675D02*
X50350Y-32670D01*
X50509Y-35741D02*
X50879Y-35741D01*
X51520Y-35100D02*
X51520Y-34605D01*
X50879Y-35741D02*
X51520Y-35100D01*
X57695Y-30885D02*
X57920Y-30885D01*
X57920Y-30885D02*
X58205Y-30600D01*
X54690Y-32790D02*
X54675Y-32775D01*
X56140Y-31740D02*
X55645Y-31245D01*
X55645Y-31245D02*
X55340Y-31245D01*
X55340Y-31245D02*
X55145Y-31050D01*
X55085Y-31900D02*
X55175Y-31990D01*
X55175Y-31990D02*
X55260Y-31990D01*
X55260Y-31990D02*
X55435Y-32165D01*
X55435Y-32165D02*
X55435Y-32450D01*
X55435Y-32450D02*
X55095Y-32790D01*
X55095Y-32790D02*
X54690Y-32790D01*
X57445Y-32400D02*
X58065Y-32400D01*
X57280Y-32565D02*
X57445Y-32400D01*
X47515Y-29450D02*
X47515Y-29550D01*
X47515Y-29550D02*
X47160Y-29905D01*
X48310Y-29900D02*
X47965Y-29900D01*
X47965Y-29900D02*
X47515Y-29450D01*
X49340Y-29700D02*
X48510Y-29700D01*
X47325Y-28505D02*
X47370Y-28505D01*
X47370Y-28505D02*
X47615Y-28750D01*
X47615Y-28750D02*
X48080Y-28750D01*
X48080Y-28750D02*
X48330Y-28500D01*
X49360Y-28490D02*
X49770Y-28900D01*
X49770Y-28900D02*
X49770Y-29270D01*
X49770Y-29270D02*
X49340Y-29700D01*
X48330Y-28500D02*
X48395Y-28500D01*
X49095Y-28725D02*
X49330Y-28490D01*
X48620Y-28725D02*
X49095Y-28725D01*
X48395Y-28500D02*
X48620Y-28725D01*
X49330Y-28490D02*
X49360Y-28490D01*
X48510Y-29700D02*
X48310Y-29900D01*
X46310Y-28545D02*
X46405Y-28545D01*
X47110Y-28720D02*
X47325Y-28505D01*
X46580Y-28720D02*
X47110Y-28720D01*
X46405Y-28545D02*
X46580Y-28720D01*
X45390Y-28730D02*
X46125Y-28730D01*
X46125Y-28730D02*
X46310Y-28545D01*
X45390Y-30040D02*
X45390Y-28730D01*
X46810Y-30500D02*
X46700Y-30610D01*
X46700Y-30610D02*
X45990Y-30610D01*
X45420Y-30070D02*
X45390Y-30040D01*
X46820Y-36380D02*
X46885Y-36315D01*
X45560Y-36380D02*
X46820Y-36380D01*
X45790Y-32700D02*
X45790Y-32690D01*
X45780Y-32710D02*
X45790Y-32700D01*
X45915Y-33745D02*
X45745Y-33915D01*
X47430Y-33745D02*
X45915Y-33745D01*
X47525Y-33840D02*
X47430Y-33745D01*
X47170Y-42000D02*
X47280Y-42000D01*
X46145Y-39430D02*
X46145Y-39335D01*
X45575Y-40000D02*
X46145Y-39430D01*
X47085Y-38605D02*
X45590Y-38605D01*
X47770Y-39290D02*
X47085Y-38605D01*
X47280Y-42000D02*
X48435Y-40845D01*
X46670Y-46610D02*
X46670Y-44680D01*
X48270Y-43100D02*
X48270Y-43900D01*
X47170Y-42000D02*
X48270Y-43100D01*
X46670Y-44680D02*
X46815Y-44535D01*
X51419Y-47249D02*
X51419Y-47030D01*
X46220Y-46610D02*
X46670Y-46610D01*
X45690Y-47140D02*
X46220Y-46610D01*
X48610Y-45790D02*
X47910Y-45790D01*
X48870Y-45530D02*
X48610Y-45790D01*
X49545Y-43705D02*
X49545Y-44195D01*
X50010Y-43240D02*
X49545Y-43705D01*
X52970Y-44655D02*
X52970Y-43275D01*
X53080Y-44765D02*
X52970Y-44655D01*
X50660Y-46070D02*
X50660Y-44800D01*
X50970Y-46380D02*
X50660Y-46070D01*
X52260Y-46190D02*
X53050Y-46190D01*
X51419Y-47030D02*
X52260Y-46190D01*
X55670Y-41810D02*
X55670Y-39440D01*
X52230Y-41685D02*
X52625Y-41685D01*
X52215Y-41700D02*
X52230Y-41685D01*
X54465Y-41595D02*
X54465Y-39215D01*
X54600Y-41730D02*
X54465Y-41595D01*
X55170Y-39420D02*
X55170Y-41220D01*
X55160Y-39410D02*
X55170Y-39420D01*
X57760Y-36240D02*
X57760Y-37450D01*
X56170Y-42610D02*
X56170Y-40970D01*
X56180Y-42620D02*
X56170Y-42610D01*
X55685Y-41825D02*
X55685Y-42610D01*
X55670Y-41810D02*
X55685Y-41825D01*
X56180Y-39420D02*
X56180Y-40980D01*
X56170Y-39410D02*
X56180Y-39420D01*
X56660Y-42565D02*
X56660Y-39920D01*
X56665Y-42570D02*
X56660Y-42565D01*
X57170Y-39910D02*
X57170Y-42580D01*
X57165Y-39905D02*
X57170Y-39910D01*
X57840Y-41950D02*
X57840Y-40100D01*
X57920Y-42030D02*
X57840Y-41950D01*
X58910Y-40170D02*
X58910Y-42380D01*
X58980Y-40100D02*
X58910Y-40170D01*
X60075Y-38920D02*
X60075Y-41735D01*
X59725Y-38570D02*
X60075Y-38920D01*
X57760Y-37450D02*
X58060Y-37750D01*
X64260Y-34490D02*
X62909Y-34490D01*
X63030Y-36700D02*
X63030Y-37368D01*
X63210Y-36520D02*
X63030Y-36700D01*
X62909Y-34490D02*
X62820Y-34580D01*
X61795Y-31880D02*
X61795Y-31460D01*
X61795Y-31460D02*
X61710Y-31375D01*
X63078Y-32004D02*
X62794Y-32004D01*
X62670Y-31880D02*
X61795Y-31880D01*
X62794Y-32004D02*
X62670Y-31880D01*
X64260Y-31269D02*
X64260Y-30115D01*
X63105Y-30175D02*
X62775Y-30175D01*
X63655Y-29625D02*
X63105Y-30175D01*
X63890Y-29625D02*
X63655Y-29625D01*
X64245Y-29270D02*
X63890Y-29625D01*
X64245Y-28385D02*
X64245Y-29270D01*
X64230Y-28370D02*
X64245Y-28385D01*
X64260Y-30115D02*
X64270Y-30105D01*
G54D42*
X61370Y-40065D02*
X62207Y-40065D01*
G54D40*
X62207Y-40065D02*
X62452Y-39820D01*
X45745Y-37020D02*
X45745Y-37925D01*
X53225Y-40235D02*
X53225Y-41685D01*
X53230Y-38735D02*
X53230Y-40230D01*
X53230Y-40230D02*
X53225Y-40235D01*
X51225Y-40235D02*
X51225Y-41710D01*
X51225Y-41710D02*
X51230Y-41715D01*
X51230Y-38705D02*
X51230Y-40230D01*
X51230Y-40230D02*
X51225Y-40235D01*
X60218Y-34324D02*
X60218Y-35143D01*
X60600Y-35525D02*
X60600Y-35780D01*
X60218Y-35143D02*
X60600Y-35525D01*
X59628Y-32356D02*
X59628Y-31968D01*
X59305Y-31645D02*
X59025Y-31645D01*
X59628Y-31968D02*
X59305Y-31645D01*
X59628Y-34324D02*
X59628Y-34707D01*
X58395Y-34485D02*
X58255Y-34485D01*
X58915Y-35005D02*
X58395Y-34485D01*
X59330Y-35005D02*
X58915Y-35005D01*
X59628Y-34707D02*
X59330Y-35005D01*
X62280Y-37368D02*
X62280Y-37605D01*
X62510Y-37835D02*
X62510Y-38340D01*
X62280Y-37605D02*
X62510Y-37835D01*
X62510Y-38340D02*
X63425Y-38340D01*
X63425Y-38340D02*
X63440Y-38325D01*
X60809Y-34324D02*
X60809Y-34669D01*
X61205Y-35065D02*
X61500Y-35065D01*
X60809Y-34669D02*
X61205Y-35065D01*
X62655Y-36502D02*
X62655Y-35945D01*
X62785Y-35815D02*
X63557Y-35815D01*
X62655Y-35945D02*
X62785Y-35815D01*
X60022Y-34324D02*
X60022Y-34913D01*
X59780Y-35155D02*
X59780Y-35506D01*
X60022Y-34913D02*
X59780Y-35155D01*
X58780Y-36373D02*
X58780Y-37000D01*
X58780Y-37000D02*
X58950Y-37170D01*
X61945Y-32651D02*
X61945Y-32630D01*
X61335Y-32020D02*
X61335Y-31375D01*
X61945Y-32630D02*
X61335Y-32020D01*
X61104Y-32651D02*
X61945Y-32651D01*
X61945Y-32651D02*
X63179Y-32651D01*
X63179Y-32651D02*
X63206Y-32624D01*
X63206Y-32880D02*
X63590Y-32880D01*
X62085Y-31450D02*
X62085Y-31375D01*
X62230Y-31595D02*
X62085Y-31450D01*
X63415Y-31595D02*
X62230Y-31595D01*
X63680Y-31860D02*
X63415Y-31595D01*
X63680Y-32790D02*
X63680Y-31860D01*
X63590Y-32880D02*
X63680Y-32790D01*
X61104Y-32848D02*
X63174Y-32848D01*
X63174Y-32848D02*
X63206Y-32880D01*
X64383Y-35815D02*
X64383Y-36197D01*
X64105Y-36475D02*
X64105Y-36660D01*
X64383Y-36197D02*
X64105Y-36475D01*
X47235Y-34585D02*
X46433Y-34585D01*
X46433Y-34585D02*
X46413Y-34605D01*
X47165Y-33270D02*
X46433Y-33270D01*
X46433Y-33270D02*
X46418Y-33285D01*
X47150Y-32050D02*
X46443Y-32050D01*
X46443Y-32050D02*
X46418Y-32075D01*
X47265Y-35795D02*
X46433Y-35795D01*
X46433Y-35795D02*
X46413Y-35815D01*
G54D10*
G36*
X46813Y-28792D02*
X46771Y-28821D01*
X45431Y-30161D01*
X45412Y-30188D01*
X45412Y-28609D01*
X45513Y-28709D01*
X45712Y-28792D01*
X45928Y-28793D01*
X46128Y-28710D01*
X46281Y-28557D01*
X46320Y-28464D01*
X46358Y-28556D01*
X46511Y-28709D01*
X46711Y-28792D01*
X46813Y-28792D01*
X46813Y-28792D01*
G37*
G54D44*
X46813Y-28792D02*
X46771Y-28821D01*
X45431Y-30161D01*
X45412Y-30188D01*
X45412Y-28609D01*
X45513Y-28709D01*
X45712Y-28792D01*
X45928Y-28793D01*
X46128Y-28710D01*
X46281Y-28557D01*
X46320Y-28464D01*
X46358Y-28556D01*
X46511Y-28709D01*
X46711Y-28792D01*
X46813Y-28792D01*
G54D10*
G36*
X47045Y-32568D02*
X47018Y-32632D01*
X47018Y-32751D01*
X46941Y-32751D01*
X46852Y-32788D01*
X46795Y-32845D01*
X46792Y-32842D01*
X46702Y-32805D01*
X46605Y-32805D01*
X46133Y-32805D01*
X46044Y-32842D01*
X46005Y-32881D01*
X45965Y-32842D01*
X45876Y-32805D01*
X45709Y-32805D01*
X45648Y-32866D01*
X45648Y-33228D01*
X45656Y-33228D01*
X45656Y-33341D01*
X45648Y-33341D01*
X45648Y-33703D01*
X45709Y-33764D01*
X45876Y-33764D01*
X45965Y-33727D01*
X46005Y-33688D01*
X46043Y-33727D01*
X46133Y-33764D01*
X46230Y-33764D01*
X46264Y-33764D01*
X46213Y-33815D01*
X46158Y-33947D01*
X46158Y-34091D01*
X46172Y-34125D01*
X46128Y-34125D01*
X46039Y-34162D01*
X46000Y-34201D01*
X45960Y-34162D01*
X45871Y-34125D01*
X45704Y-34125D01*
X45643Y-34186D01*
X45643Y-34548D01*
X45651Y-34548D01*
X45651Y-34661D01*
X45643Y-34661D01*
X45643Y-34669D01*
X45530Y-34669D01*
X45530Y-34661D01*
X45522Y-34661D01*
X45522Y-34548D01*
X45530Y-34548D01*
X45530Y-34186D01*
X45469Y-34125D01*
X45412Y-34125D01*
X45412Y-33764D01*
X45474Y-33764D01*
X45535Y-33703D01*
X45535Y-33341D01*
X45527Y-33341D01*
X45527Y-33228D01*
X45535Y-33228D01*
X45535Y-32866D01*
X45474Y-32805D01*
X45412Y-32805D01*
X45412Y-32554D01*
X45474Y-32554D01*
X45535Y-32493D01*
X45535Y-32131D01*
X45527Y-32131D01*
X45527Y-32018D01*
X45535Y-32018D01*
X45535Y-32010D01*
X45648Y-32010D01*
X45648Y-32018D01*
X45656Y-32018D01*
X45656Y-32131D01*
X45648Y-32131D01*
X45648Y-32493D01*
X45709Y-32554D01*
X45876Y-32554D01*
X45965Y-32517D01*
X46005Y-32478D01*
X46043Y-32517D01*
X46133Y-32554D01*
X46230Y-32554D01*
X46702Y-32554D01*
X46791Y-32517D01*
X46807Y-32501D01*
X46836Y-32531D01*
X46926Y-32568D01*
X47023Y-32568D01*
X47045Y-32568D01*
X47045Y-32568D01*
G37*
G54D44*
X47045Y-32568D02*
X47018Y-32632D01*
X47018Y-32751D01*
X46941Y-32751D01*
X46852Y-32788D01*
X46795Y-32845D01*
X46792Y-32842D01*
X46702Y-32805D01*
X46605Y-32805D01*
X46133Y-32805D01*
X46044Y-32842D01*
X46005Y-32881D01*
X45965Y-32842D01*
X45876Y-32805D01*
X45709Y-32805D01*
X45648Y-32866D01*
X45648Y-33228D01*
X45656Y-33228D01*
X45656Y-33341D01*
X45648Y-33341D01*
X45648Y-33703D01*
X45709Y-33764D01*
X45876Y-33764D01*
X45965Y-33727D01*
X46005Y-33688D01*
X46043Y-33727D01*
X46133Y-33764D01*
X46230Y-33764D01*
X46264Y-33764D01*
X46213Y-33815D01*
X46158Y-33947D01*
X46158Y-34091D01*
X46172Y-34125D01*
X46128Y-34125D01*
X46039Y-34162D01*
X46000Y-34201D01*
X45960Y-34162D01*
X45871Y-34125D01*
X45704Y-34125D01*
X45643Y-34186D01*
X45643Y-34548D01*
X45651Y-34548D01*
X45651Y-34661D01*
X45643Y-34661D01*
X45643Y-34669D01*
X45530Y-34669D01*
X45530Y-34661D01*
X45522Y-34661D01*
X45522Y-34548D01*
X45530Y-34548D01*
X45530Y-34186D01*
X45469Y-34125D01*
X45412Y-34125D01*
X45412Y-33764D01*
X45474Y-33764D01*
X45535Y-33703D01*
X45535Y-33341D01*
X45527Y-33341D01*
X45527Y-33228D01*
X45535Y-33228D01*
X45535Y-32866D01*
X45474Y-32805D01*
X45412Y-32805D01*
X45412Y-32554D01*
X45474Y-32554D01*
X45535Y-32493D01*
X45535Y-32131D01*
X45527Y-32131D01*
X45527Y-32018D01*
X45535Y-32018D01*
X45535Y-32010D01*
X45648Y-32010D01*
X45648Y-32018D01*
X45656Y-32018D01*
X45656Y-32131D01*
X45648Y-32131D01*
X45648Y-32493D01*
X45709Y-32554D01*
X45876Y-32554D01*
X45965Y-32517D01*
X46005Y-32478D01*
X46043Y-32517D01*
X46133Y-32554D01*
X46230Y-32554D01*
X46702Y-32554D01*
X46791Y-32517D01*
X46807Y-32501D01*
X46836Y-32531D01*
X46926Y-32568D01*
X47023Y-32568D01*
X47045Y-32568D01*
G54D10*
G36*
X47117Y-46786D02*
X47112Y-46788D01*
X46959Y-46941D01*
X46876Y-47141D01*
X46876Y-47317D01*
X46434Y-47317D01*
X46434Y-43893D01*
X46420Y-43677D01*
X46364Y-43541D01*
X46271Y-43513D01*
X45965Y-43820D01*
X46271Y-44126D01*
X46364Y-44098D01*
X46434Y-43893D01*
X46434Y-47317D01*
X45843Y-47317D01*
X45412Y-46886D01*
X45412Y-46291D01*
X45446Y-46326D01*
X45536Y-46363D01*
X45633Y-46363D01*
X46233Y-46363D01*
X46322Y-46326D01*
X46391Y-46258D01*
X46428Y-46168D01*
X46428Y-46071D01*
X46428Y-45471D01*
X46391Y-45382D01*
X46323Y-45313D01*
X46233Y-45276D01*
X46196Y-45276D01*
X46345Y-45128D01*
X46428Y-44928D01*
X46428Y-44712D01*
X46345Y-44512D01*
X46193Y-44359D01*
X46105Y-44323D01*
X46163Y-44299D01*
X46191Y-44206D01*
X45885Y-43900D01*
X45578Y-44206D01*
X45606Y-44299D01*
X45670Y-44320D01*
X45577Y-44359D01*
X45424Y-44511D01*
X45412Y-44540D01*
X45412Y-44100D01*
X45498Y-44126D01*
X45804Y-43820D01*
X45498Y-43513D01*
X45412Y-43539D01*
X45412Y-43099D01*
X45424Y-43127D01*
X45576Y-43280D01*
X45664Y-43316D01*
X45606Y-43340D01*
X45578Y-43433D01*
X45885Y-43739D01*
X46191Y-43433D01*
X46163Y-43340D01*
X46099Y-43319D01*
X46192Y-43280D01*
X46345Y-43128D01*
X46428Y-42928D01*
X46428Y-42712D01*
X46345Y-42512D01*
X46193Y-42359D01*
X46097Y-42320D01*
X46192Y-42280D01*
X46210Y-42262D01*
X47117Y-43169D01*
X47117Y-46786D01*
X47117Y-46786D01*
G37*
G54D44*
X47117Y-46786D02*
X47112Y-46788D01*
X46959Y-46941D01*
X46876Y-47141D01*
X46876Y-47317D01*
X46434Y-47317D01*
X46434Y-43893D01*
X46420Y-43677D01*
X46364Y-43541D01*
X46271Y-43513D01*
X45965Y-43820D01*
X46271Y-44126D01*
X46364Y-44098D01*
X46434Y-43893D01*
X46434Y-47317D01*
X45843Y-47317D01*
X45412Y-46886D01*
X45412Y-46291D01*
X45446Y-46326D01*
X45536Y-46363D01*
X45633Y-46363D01*
X46233Y-46363D01*
X46322Y-46326D01*
X46391Y-46258D01*
X46428Y-46168D01*
X46428Y-46071D01*
X46428Y-45471D01*
X46391Y-45382D01*
X46323Y-45313D01*
X46233Y-45276D01*
X46196Y-45276D01*
X46345Y-45128D01*
X46428Y-44928D01*
X46428Y-44712D01*
X46345Y-44512D01*
X46193Y-44359D01*
X46105Y-44323D01*
X46163Y-44299D01*
X46191Y-44206D01*
X45885Y-43900D01*
X45578Y-44206D01*
X45606Y-44299D01*
X45670Y-44320D01*
X45577Y-44359D01*
X45424Y-44511D01*
X45412Y-44540D01*
X45412Y-44100D01*
X45498Y-44126D01*
X45804Y-43820D01*
X45498Y-43513D01*
X45412Y-43539D01*
X45412Y-43099D01*
X45424Y-43127D01*
X45576Y-43280D01*
X45664Y-43316D01*
X45606Y-43340D01*
X45578Y-43433D01*
X45885Y-43739D01*
X46191Y-43433D01*
X46163Y-43340D01*
X46099Y-43319D01*
X46192Y-43280D01*
X46345Y-43128D01*
X46428Y-42928D01*
X46428Y-42712D01*
X46345Y-42512D01*
X46193Y-42359D01*
X46097Y-42320D01*
X46192Y-42280D01*
X46210Y-42262D01*
X47117Y-43169D01*
X47117Y-46786D01*
G54D10*
G36*
X47566Y-28732D02*
X47073Y-28732D01*
X47127Y-28710D01*
X47280Y-28557D01*
X47319Y-28462D01*
X47358Y-28556D01*
X47511Y-28709D01*
X47566Y-28732D01*
X47566Y-28732D01*
G37*
G54D44*
X47566Y-28732D02*
X47073Y-28732D01*
X47127Y-28710D01*
X47280Y-28557D01*
X47319Y-28462D01*
X47358Y-28556D01*
X47511Y-28709D01*
X47566Y-28732D01*
G54D10*
G36*
X47911Y-33866D02*
X46847Y-33866D01*
X46826Y-33815D01*
X46754Y-33742D01*
X46791Y-33727D01*
X46809Y-33709D01*
X46851Y-33751D01*
X46941Y-33788D01*
X47038Y-33788D01*
X47388Y-33788D01*
X47477Y-33751D01*
X47540Y-33689D01*
X47601Y-33751D01*
X47691Y-33788D01*
X47788Y-33788D01*
X47903Y-33788D01*
X47903Y-33846D01*
X47911Y-33866D01*
X47911Y-33866D01*
G37*
G54D44*
X47911Y-33866D02*
X46847Y-33866D01*
X46826Y-33815D01*
X46754Y-33742D01*
X46791Y-33727D01*
X46809Y-33709D01*
X46851Y-33751D01*
X46941Y-33788D01*
X47038Y-33788D01*
X47388Y-33788D01*
X47477Y-33751D01*
X47540Y-33689D01*
X47601Y-33751D01*
X47691Y-33788D01*
X47788Y-33788D01*
X47903Y-33788D01*
X47903Y-33846D01*
X47911Y-33866D01*
G54D10*
G36*
X48381Y-36300D02*
X47999Y-36682D01*
X47835Y-36682D01*
X47831Y-36672D01*
X47763Y-36603D01*
X47673Y-36566D01*
X47576Y-36566D01*
X47026Y-36566D01*
X46937Y-36603D01*
X46893Y-36647D01*
X46876Y-36607D01*
X46808Y-36538D01*
X46718Y-36501D01*
X46621Y-36501D01*
X46271Y-36501D01*
X46182Y-36538D01*
X46119Y-36600D01*
X46058Y-36538D01*
X45968Y-36501D01*
X45871Y-36501D01*
X45521Y-36501D01*
X45432Y-36538D01*
X45412Y-36558D01*
X45412Y-36294D01*
X45469Y-36294D01*
X45530Y-36233D01*
X45530Y-35871D01*
X45522Y-35871D01*
X45522Y-35758D01*
X45530Y-35758D01*
X45530Y-35750D01*
X45643Y-35750D01*
X45643Y-35758D01*
X45651Y-35758D01*
X45651Y-35871D01*
X45643Y-35871D01*
X45643Y-36233D01*
X45704Y-36294D01*
X45871Y-36294D01*
X45960Y-36257D01*
X46000Y-36218D01*
X46038Y-36257D01*
X46128Y-36294D01*
X46225Y-36294D01*
X46697Y-36294D01*
X46786Y-36257D01*
X46855Y-36189D01*
X46865Y-36163D01*
X46883Y-36207D01*
X46951Y-36276D01*
X47041Y-36313D01*
X47138Y-36313D01*
X47488Y-36313D01*
X47577Y-36276D01*
X47640Y-36214D01*
X47701Y-36276D01*
X47791Y-36313D01*
X47888Y-36313D01*
X48238Y-36313D01*
X48327Y-36276D01*
X48328Y-36275D01*
X48335Y-36281D01*
X48381Y-36300D01*
X48381Y-36300D01*
G37*
G54D44*
X48381Y-36300D02*
X47999Y-36682D01*
X47835Y-36682D01*
X47831Y-36672D01*
X47763Y-36603D01*
X47673Y-36566D01*
X47576Y-36566D01*
X47026Y-36566D01*
X46937Y-36603D01*
X46893Y-36647D01*
X46876Y-36607D01*
X46808Y-36538D01*
X46718Y-36501D01*
X46621Y-36501D01*
X46271Y-36501D01*
X46182Y-36538D01*
X46119Y-36600D01*
X46058Y-36538D01*
X45968Y-36501D01*
X45871Y-36501D01*
X45521Y-36501D01*
X45432Y-36538D01*
X45412Y-36558D01*
X45412Y-36294D01*
X45469Y-36294D01*
X45530Y-36233D01*
X45530Y-35871D01*
X45522Y-35871D01*
X45522Y-35758D01*
X45530Y-35758D01*
X45530Y-35750D01*
X45643Y-35750D01*
X45643Y-35758D01*
X45651Y-35758D01*
X45651Y-35871D01*
X45643Y-35871D01*
X45643Y-36233D01*
X45704Y-36294D01*
X45871Y-36294D01*
X45960Y-36257D01*
X46000Y-36218D01*
X46038Y-36257D01*
X46128Y-36294D01*
X46225Y-36294D01*
X46697Y-36294D01*
X46786Y-36257D01*
X46855Y-36189D01*
X46865Y-36163D01*
X46883Y-36207D01*
X46951Y-36276D01*
X47041Y-36313D01*
X47138Y-36313D01*
X47488Y-36313D01*
X47577Y-36276D01*
X47640Y-36214D01*
X47701Y-36276D01*
X47791Y-36313D01*
X47888Y-36313D01*
X48238Y-36313D01*
X48327Y-36276D01*
X48328Y-36275D01*
X48335Y-36281D01*
X48381Y-36300D01*
G54D10*
G36*
X48566Y-28732D02*
X48073Y-28732D01*
X48127Y-28710D01*
X48280Y-28557D01*
X48319Y-28462D01*
X48358Y-28556D01*
X48511Y-28709D01*
X48566Y-28732D01*
X48566Y-28732D01*
G37*
G54D44*
X48566Y-28732D02*
X48073Y-28732D01*
X48127Y-28710D01*
X48280Y-28557D01*
X48319Y-28462D01*
X48358Y-28556D01*
X48511Y-28709D01*
X48566Y-28732D01*
G54D10*
G36*
X49090Y-38741D02*
X46713Y-41119D01*
X46713Y-38101D01*
X46713Y-38042D01*
X46652Y-37981D01*
X46401Y-37981D01*
X46401Y-38332D01*
X46462Y-38393D01*
X46518Y-38393D01*
X46607Y-38356D01*
X46676Y-38288D01*
X46713Y-38198D01*
X46713Y-38101D01*
X46713Y-41119D01*
X46332Y-41499D01*
X46193Y-41359D01*
X46097Y-41320D01*
X46192Y-41280D01*
X46345Y-41128D01*
X46428Y-40928D01*
X46428Y-40712D01*
X46345Y-40512D01*
X46193Y-40359D01*
X45993Y-40276D01*
X45777Y-40276D01*
X45577Y-40359D01*
X45424Y-40511D01*
X45412Y-40540D01*
X45412Y-38285D01*
X45413Y-38287D01*
X45481Y-38356D01*
X45571Y-38393D01*
X45668Y-38393D01*
X45918Y-38393D01*
X46007Y-38356D01*
X46045Y-38319D01*
X46082Y-38356D01*
X46171Y-38393D01*
X46227Y-38393D01*
X46288Y-38332D01*
X46288Y-37981D01*
X46280Y-37981D01*
X46280Y-37868D01*
X46288Y-37868D01*
X46288Y-37860D01*
X46401Y-37860D01*
X46401Y-37868D01*
X46652Y-37868D01*
X46713Y-37807D01*
X46713Y-37748D01*
X46713Y-37651D01*
X46676Y-37561D01*
X46652Y-37538D01*
X46718Y-37538D01*
X46807Y-37501D01*
X46855Y-37453D01*
X46831Y-37511D01*
X46831Y-37608D01*
X46831Y-37958D01*
X46868Y-38047D01*
X46936Y-38116D01*
X47026Y-38153D01*
X47030Y-38153D01*
X47052Y-38263D01*
X47122Y-38367D01*
X47249Y-38494D01*
X47249Y-38519D01*
X47310Y-38666D01*
X47422Y-38779D01*
X47569Y-38840D01*
X47729Y-38840D01*
X47876Y-38779D01*
X47989Y-38667D01*
X48050Y-38520D01*
X48050Y-38363D01*
X48336Y-38648D01*
X48434Y-38714D01*
X48550Y-38737D01*
X49086Y-38737D01*
X49090Y-38741D01*
X49090Y-38741D01*
G37*
G54D44*
X49090Y-38741D02*
X46713Y-41119D01*
X46713Y-38101D01*
X46713Y-38042D01*
X46652Y-37981D01*
X46401Y-37981D01*
X46401Y-38332D01*
X46462Y-38393D01*
X46518Y-38393D01*
X46607Y-38356D01*
X46676Y-38288D01*
X46713Y-38198D01*
X46713Y-38101D01*
X46713Y-41119D01*
X46332Y-41499D01*
X46193Y-41359D01*
X46097Y-41320D01*
X46192Y-41280D01*
X46345Y-41128D01*
X46428Y-40928D01*
X46428Y-40712D01*
X46345Y-40512D01*
X46193Y-40359D01*
X45993Y-40276D01*
X45777Y-40276D01*
X45577Y-40359D01*
X45424Y-40511D01*
X45412Y-40540D01*
X45412Y-38285D01*
X45413Y-38287D01*
X45481Y-38356D01*
X45571Y-38393D01*
X45668Y-38393D01*
X45918Y-38393D01*
X46007Y-38356D01*
X46045Y-38319D01*
X46082Y-38356D01*
X46171Y-38393D01*
X46227Y-38393D01*
X46288Y-38332D01*
X46288Y-37981D01*
X46280Y-37981D01*
X46280Y-37868D01*
X46288Y-37868D01*
X46288Y-37860D01*
X46401Y-37860D01*
X46401Y-37868D01*
X46652Y-37868D01*
X46713Y-37807D01*
X46713Y-37748D01*
X46713Y-37651D01*
X46676Y-37561D01*
X46652Y-37538D01*
X46718Y-37538D01*
X46807Y-37501D01*
X46855Y-37453D01*
X46831Y-37511D01*
X46831Y-37608D01*
X46831Y-37958D01*
X46868Y-38047D01*
X46936Y-38116D01*
X47026Y-38153D01*
X47030Y-38153D01*
X47052Y-38263D01*
X47122Y-38367D01*
X47249Y-38494D01*
X47249Y-38519D01*
X47310Y-38666D01*
X47422Y-38779D01*
X47569Y-38840D01*
X47729Y-38840D01*
X47876Y-38779D01*
X47989Y-38667D01*
X48050Y-38520D01*
X48050Y-38363D01*
X48336Y-38648D01*
X48434Y-38714D01*
X48550Y-38737D01*
X49086Y-38737D01*
X49090Y-38741D01*
G54D10*
G36*
X50517Y-30273D02*
X50488Y-30342D01*
X50488Y-30407D01*
X47240Y-30407D01*
X47124Y-30430D01*
X47026Y-30496D01*
X46773Y-30749D01*
X46720Y-30749D01*
X46573Y-30810D01*
X46460Y-30922D01*
X46399Y-31069D01*
X46399Y-31229D01*
X46460Y-31376D01*
X46572Y-31489D01*
X46719Y-31550D01*
X46748Y-31550D01*
X46748Y-31586D01*
X46762Y-31620D01*
X46702Y-31595D01*
X46605Y-31595D01*
X46133Y-31595D01*
X46044Y-31632D01*
X46005Y-31671D01*
X45965Y-31632D01*
X45876Y-31595D01*
X45754Y-31595D01*
X45849Y-31556D01*
X45951Y-31454D01*
X46006Y-31322D01*
X46006Y-31178D01*
X45951Y-31045D01*
X45947Y-31041D01*
X45947Y-30500D01*
X47110Y-29337D01*
X49056Y-29337D01*
X49075Y-29356D01*
X49207Y-29411D01*
X49351Y-29411D01*
X49484Y-29356D01*
X49586Y-29254D01*
X49641Y-29122D01*
X49641Y-28978D01*
X49586Y-28845D01*
X49484Y-28743D01*
X49352Y-28688D01*
X49208Y-28688D01*
X49101Y-28732D01*
X49073Y-28732D01*
X49127Y-28710D01*
X49280Y-28557D01*
X49319Y-28462D01*
X49358Y-28556D01*
X49511Y-28709D01*
X49711Y-28792D01*
X49927Y-28793D01*
X50127Y-28710D01*
X50276Y-28561D01*
X50276Y-28597D01*
X50313Y-28687D01*
X50381Y-28755D01*
X50471Y-28792D01*
X50517Y-28792D01*
X50517Y-30273D01*
X50517Y-30273D01*
G37*
G54D44*
X50517Y-30273D02*
X50488Y-30342D01*
X50488Y-30407D01*
X47240Y-30407D01*
X47124Y-30430D01*
X47026Y-30496D01*
X46773Y-30749D01*
X46720Y-30749D01*
X46573Y-30810D01*
X46460Y-30922D01*
X46399Y-31069D01*
X46399Y-31229D01*
X46460Y-31376D01*
X46572Y-31489D01*
X46719Y-31550D01*
X46748Y-31550D01*
X46748Y-31586D01*
X46762Y-31620D01*
X46702Y-31595D01*
X46605Y-31595D01*
X46133Y-31595D01*
X46044Y-31632D01*
X46005Y-31671D01*
X45965Y-31632D01*
X45876Y-31595D01*
X45754Y-31595D01*
X45849Y-31556D01*
X45951Y-31454D01*
X46006Y-31322D01*
X46006Y-31178D01*
X45951Y-31045D01*
X45947Y-31041D01*
X45947Y-30500D01*
X47110Y-29337D01*
X49056Y-29337D01*
X49075Y-29356D01*
X49207Y-29411D01*
X49351Y-29411D01*
X49484Y-29356D01*
X49586Y-29254D01*
X49641Y-29122D01*
X49641Y-28978D01*
X49586Y-28845D01*
X49484Y-28743D01*
X49352Y-28688D01*
X49208Y-28688D01*
X49101Y-28732D01*
X49073Y-28732D01*
X49127Y-28710D01*
X49280Y-28557D01*
X49319Y-28462D01*
X49358Y-28556D01*
X49511Y-28709D01*
X49711Y-28792D01*
X49927Y-28793D01*
X50127Y-28710D01*
X50276Y-28561D01*
X50276Y-28597D01*
X50313Y-28687D01*
X50381Y-28755D01*
X50471Y-28792D01*
X50517Y-28792D01*
X50517Y-30273D01*
G54D10*
G36*
X51878Y-28363D02*
X51826Y-28415D01*
X51826Y-28388D01*
X51771Y-28255D01*
X51689Y-28172D01*
X51876Y-28172D01*
X51876Y-28357D01*
X51878Y-28363D01*
X51878Y-28363D01*
G37*
G54D44*
X51878Y-28363D02*
X51826Y-28415D01*
X51826Y-28388D01*
X51771Y-28255D01*
X51689Y-28172D01*
X51876Y-28172D01*
X51876Y-28357D01*
X51878Y-28363D01*
G54D10*
G36*
X52927Y-39792D02*
X52781Y-39938D01*
X52701Y-40130D01*
X52701Y-40338D01*
X52781Y-40531D01*
X52922Y-40672D01*
X52922Y-41288D01*
X52887Y-41253D01*
X52798Y-41216D01*
X52742Y-41216D01*
X52681Y-41277D01*
X52681Y-41628D01*
X52689Y-41628D01*
X52689Y-41741D01*
X52681Y-41741D01*
X52681Y-41749D01*
X52568Y-41749D01*
X52568Y-41741D01*
X52568Y-41628D01*
X52568Y-41277D01*
X52507Y-41216D01*
X52451Y-41216D01*
X52362Y-41253D01*
X52293Y-41321D01*
X52256Y-41411D01*
X52256Y-41508D01*
X52256Y-41567D01*
X52317Y-41628D01*
X52568Y-41628D01*
X52568Y-41741D01*
X52317Y-41741D01*
X52256Y-41802D01*
X52256Y-41861D01*
X52256Y-41927D01*
X52198Y-41927D01*
X52198Y-41891D01*
X52198Y-41538D01*
X52198Y-41441D01*
X52161Y-41351D01*
X52092Y-41283D01*
X52003Y-41246D01*
X51947Y-41246D01*
X51886Y-41307D01*
X51886Y-41658D01*
X52137Y-41658D01*
X52198Y-41597D01*
X52198Y-41538D01*
X52198Y-41891D01*
X52198Y-41832D01*
X52137Y-41771D01*
X51886Y-41771D01*
X51886Y-41779D01*
X51773Y-41779D01*
X51773Y-41771D01*
X51765Y-41771D01*
X51765Y-41658D01*
X51773Y-41658D01*
X51773Y-41307D01*
X51712Y-41246D01*
X51656Y-41246D01*
X51567Y-41283D01*
X51529Y-41320D01*
X51527Y-41318D01*
X51527Y-40672D01*
X51668Y-40531D01*
X51748Y-40339D01*
X51748Y-40131D01*
X51668Y-39938D01*
X51532Y-39802D01*
X51532Y-39101D01*
X51566Y-39136D01*
X51656Y-39173D01*
X51753Y-39173D01*
X52003Y-39173D01*
X52092Y-39136D01*
X52161Y-39068D01*
X52198Y-38978D01*
X52198Y-38881D01*
X52198Y-38764D01*
X52214Y-38747D01*
X52261Y-38794D01*
X52261Y-39008D01*
X52298Y-39097D01*
X52366Y-39166D01*
X52456Y-39203D01*
X52553Y-39203D01*
X52803Y-39203D01*
X52892Y-39166D01*
X52927Y-39131D01*
X52927Y-39792D01*
X52927Y-39792D01*
G37*
G54D44*
X52927Y-39792D02*
X52781Y-39938D01*
X52701Y-40130D01*
X52701Y-40338D01*
X52781Y-40531D01*
X52922Y-40672D01*
X52922Y-41288D01*
X52887Y-41253D01*
X52798Y-41216D01*
X52742Y-41216D01*
X52681Y-41277D01*
X52681Y-41628D01*
X52689Y-41628D01*
X52689Y-41741D01*
X52681Y-41741D01*
X52681Y-41749D01*
X52568Y-41749D01*
X52568Y-41741D01*
X52568Y-41628D01*
X52568Y-41277D01*
X52507Y-41216D01*
X52451Y-41216D01*
X52362Y-41253D01*
X52293Y-41321D01*
X52256Y-41411D01*
X52256Y-41508D01*
X52256Y-41567D01*
X52317Y-41628D01*
X52568Y-41628D01*
X52568Y-41741D01*
X52317Y-41741D01*
X52256Y-41802D01*
X52256Y-41861D01*
X52256Y-41927D01*
X52198Y-41927D01*
X52198Y-41891D01*
X52198Y-41538D01*
X52198Y-41441D01*
X52161Y-41351D01*
X52092Y-41283D01*
X52003Y-41246D01*
X51947Y-41246D01*
X51886Y-41307D01*
X51886Y-41658D01*
X52137Y-41658D01*
X52198Y-41597D01*
X52198Y-41538D01*
X52198Y-41891D01*
X52198Y-41832D01*
X52137Y-41771D01*
X51886Y-41771D01*
X51886Y-41779D01*
X51773Y-41779D01*
X51773Y-41771D01*
X51765Y-41771D01*
X51765Y-41658D01*
X51773Y-41658D01*
X51773Y-41307D01*
X51712Y-41246D01*
X51656Y-41246D01*
X51567Y-41283D01*
X51529Y-41320D01*
X51527Y-41318D01*
X51527Y-40672D01*
X51668Y-40531D01*
X51748Y-40339D01*
X51748Y-40131D01*
X51668Y-39938D01*
X51532Y-39802D01*
X51532Y-39101D01*
X51566Y-39136D01*
X51656Y-39173D01*
X51753Y-39173D01*
X52003Y-39173D01*
X52092Y-39136D01*
X52161Y-39068D01*
X52198Y-38978D01*
X52198Y-38881D01*
X52198Y-38764D01*
X52214Y-38747D01*
X52261Y-38794D01*
X52261Y-39008D01*
X52298Y-39097D01*
X52366Y-39166D01*
X52456Y-39203D01*
X52553Y-39203D01*
X52803Y-39203D01*
X52892Y-39166D01*
X52927Y-39131D01*
X52927Y-39792D01*
G54D10*
G36*
X53878Y-47136D02*
X53876Y-47141D01*
X53876Y-47317D01*
X52962Y-47317D01*
X52963Y-47142D01*
X52880Y-46942D01*
X52727Y-46789D01*
X52528Y-46706D01*
X52312Y-46706D01*
X52112Y-46788D01*
X51959Y-46941D01*
X51922Y-47029D01*
X51898Y-46971D01*
X51806Y-46943D01*
X51725Y-47023D01*
X51725Y-46863D01*
X51697Y-46770D01*
X51493Y-46700D01*
X51277Y-46714D01*
X51141Y-46770D01*
X51113Y-46863D01*
X51419Y-47169D01*
X51725Y-46863D01*
X51725Y-47023D01*
X51499Y-47249D01*
X51505Y-47255D01*
X51443Y-47317D01*
X51395Y-47317D01*
X51333Y-47255D01*
X51339Y-47249D01*
X51033Y-46943D01*
X50940Y-46971D01*
X50921Y-47026D01*
X50898Y-46971D01*
X50806Y-46943D01*
X50725Y-47023D01*
X50725Y-46863D01*
X50697Y-46770D01*
X50493Y-46700D01*
X50277Y-46714D01*
X50141Y-46770D01*
X50113Y-46863D01*
X50419Y-47169D01*
X50725Y-46863D01*
X50725Y-47023D01*
X50499Y-47249D01*
X50505Y-47255D01*
X50443Y-47317D01*
X50395Y-47317D01*
X50333Y-47255D01*
X50339Y-47249D01*
X50033Y-46943D01*
X49940Y-46971D01*
X49918Y-47035D01*
X49880Y-46942D01*
X49727Y-46789D01*
X49528Y-46706D01*
X49312Y-46706D01*
X49112Y-46788D01*
X48959Y-46941D01*
X48919Y-47036D01*
X48880Y-46942D01*
X48727Y-46789D01*
X48528Y-46706D01*
X48446Y-46706D01*
X48545Y-46606D01*
X49590Y-46606D01*
X49720Y-46580D01*
X49831Y-46506D01*
X50109Y-46228D01*
X50251Y-46169D01*
X50364Y-46057D01*
X50425Y-45910D01*
X50425Y-45750D01*
X50364Y-45603D01*
X50252Y-45490D01*
X50105Y-45429D01*
X49945Y-45429D01*
X49798Y-45490D01*
X49685Y-45602D01*
X49626Y-45745D01*
X49448Y-45923D01*
X48404Y-45923D01*
X48273Y-45949D01*
X48162Y-46023D01*
X48162Y-46023D01*
X47722Y-46463D01*
X47722Y-43044D01*
X47699Y-42928D01*
X47633Y-42830D01*
X46745Y-41942D01*
X49995Y-38692D01*
X50230Y-38692D01*
X50345Y-38669D01*
X50345Y-38669D01*
X50404Y-38630D01*
X50505Y-38731D01*
X50637Y-38786D01*
X50781Y-38786D01*
X50861Y-38753D01*
X50861Y-38978D01*
X50898Y-39067D01*
X50927Y-39096D01*
X50927Y-39792D01*
X50781Y-39938D01*
X50701Y-40130D01*
X50701Y-40338D01*
X50781Y-40531D01*
X50922Y-40672D01*
X50922Y-41328D01*
X50898Y-41351D01*
X50861Y-41441D01*
X50861Y-41538D01*
X50861Y-41927D01*
X49015Y-41927D01*
X48950Y-41863D01*
X48950Y-41810D01*
X48889Y-41663D01*
X48777Y-41550D01*
X48630Y-41489D01*
X48470Y-41489D01*
X48323Y-41550D01*
X48210Y-41662D01*
X48166Y-41769D01*
X48165Y-41769D01*
X48018Y-41830D01*
X47905Y-41942D01*
X47844Y-42089D01*
X47844Y-42249D01*
X47905Y-42396D01*
X48017Y-42509D01*
X48164Y-42570D01*
X48218Y-42570D01*
X48471Y-42823D01*
X48569Y-42889D01*
X48685Y-42912D01*
X53548Y-42912D01*
X53548Y-43041D01*
X53603Y-43174D01*
X53617Y-43188D01*
X53617Y-46749D01*
X53640Y-46865D01*
X53706Y-46963D01*
X53878Y-47136D01*
X53878Y-47136D01*
G37*
G54D44*
X53878Y-47136D02*
X53876Y-47141D01*
X53876Y-47317D01*
X52962Y-47317D01*
X52963Y-47142D01*
X52880Y-46942D01*
X52727Y-46789D01*
X52528Y-46706D01*
X52312Y-46706D01*
X52112Y-46788D01*
X51959Y-46941D01*
X51922Y-47029D01*
X51898Y-46971D01*
X51806Y-46943D01*
X51725Y-47023D01*
X51725Y-46863D01*
X51697Y-46770D01*
X51493Y-46700D01*
X51277Y-46714D01*
X51141Y-46770D01*
X51113Y-46863D01*
X51419Y-47169D01*
X51725Y-46863D01*
X51725Y-47023D01*
X51499Y-47249D01*
X51505Y-47255D01*
X51443Y-47317D01*
X51395Y-47317D01*
X51333Y-47255D01*
X51339Y-47249D01*
X51033Y-46943D01*
X50940Y-46971D01*
X50921Y-47026D01*
X50898Y-46971D01*
X50806Y-46943D01*
X50725Y-47023D01*
X50725Y-46863D01*
X50697Y-46770D01*
X50493Y-46700D01*
X50277Y-46714D01*
X50141Y-46770D01*
X50113Y-46863D01*
X50419Y-47169D01*
X50725Y-46863D01*
X50725Y-47023D01*
X50499Y-47249D01*
X50505Y-47255D01*
X50443Y-47317D01*
X50395Y-47317D01*
X50333Y-47255D01*
X50339Y-47249D01*
X50033Y-46943D01*
X49940Y-46971D01*
X49918Y-47035D01*
X49880Y-46942D01*
X49727Y-46789D01*
X49528Y-46706D01*
X49312Y-46706D01*
X49112Y-46788D01*
X48959Y-46941D01*
X48919Y-47036D01*
X48880Y-46942D01*
X48727Y-46789D01*
X48528Y-46706D01*
X48446Y-46706D01*
X48545Y-46606D01*
X49590Y-46606D01*
X49720Y-46580D01*
X49831Y-46506D01*
X50109Y-46228D01*
X50251Y-46169D01*
X50364Y-46057D01*
X50425Y-45910D01*
X50425Y-45750D01*
X50364Y-45603D01*
X50252Y-45490D01*
X50105Y-45429D01*
X49945Y-45429D01*
X49798Y-45490D01*
X49685Y-45602D01*
X49626Y-45745D01*
X49448Y-45923D01*
X48404Y-45923D01*
X48273Y-45949D01*
X48162Y-46023D01*
X48162Y-46023D01*
X47722Y-46463D01*
X47722Y-43044D01*
X47699Y-42928D01*
X47633Y-42830D01*
X46745Y-41942D01*
X49995Y-38692D01*
X50230Y-38692D01*
X50345Y-38669D01*
X50345Y-38669D01*
X50404Y-38630D01*
X50505Y-38731D01*
X50637Y-38786D01*
X50781Y-38786D01*
X50861Y-38753D01*
X50861Y-38978D01*
X50898Y-39067D01*
X50927Y-39096D01*
X50927Y-39792D01*
X50781Y-39938D01*
X50701Y-40130D01*
X50701Y-40338D01*
X50781Y-40531D01*
X50922Y-40672D01*
X50922Y-41328D01*
X50898Y-41351D01*
X50861Y-41441D01*
X50861Y-41538D01*
X50861Y-41927D01*
X49015Y-41927D01*
X48950Y-41863D01*
X48950Y-41810D01*
X48889Y-41663D01*
X48777Y-41550D01*
X48630Y-41489D01*
X48470Y-41489D01*
X48323Y-41550D01*
X48210Y-41662D01*
X48166Y-41769D01*
X48165Y-41769D01*
X48018Y-41830D01*
X47905Y-41942D01*
X47844Y-42089D01*
X47844Y-42249D01*
X47905Y-42396D01*
X48017Y-42509D01*
X48164Y-42570D01*
X48218Y-42570D01*
X48471Y-42823D01*
X48569Y-42889D01*
X48685Y-42912D01*
X53548Y-42912D01*
X53548Y-43041D01*
X53603Y-43174D01*
X53617Y-43188D01*
X53617Y-46749D01*
X53640Y-46865D01*
X53706Y-46963D01*
X53878Y-47136D01*
G54D10*
G36*
X54660Y-34464D02*
X54641Y-34563D01*
X54643Y-34577D01*
X54470Y-34577D01*
X54354Y-34600D01*
X54256Y-34666D01*
X54256Y-34666D01*
X54256Y-34666D01*
X54063Y-34858D01*
X53928Y-34858D01*
X53795Y-34913D01*
X53693Y-35015D01*
X53638Y-35147D01*
X53638Y-35153D01*
X53492Y-35300D01*
X53426Y-35398D01*
X53403Y-35514D01*
X53403Y-36240D01*
X53313Y-36222D01*
X53214Y-36241D01*
X53116Y-36222D01*
X53017Y-36241D01*
X52991Y-36236D01*
X52991Y-36236D01*
X52935Y-36153D01*
X52808Y-36026D01*
X52710Y-35960D01*
X52595Y-35937D01*
X51062Y-35937D01*
X51040Y-35823D01*
X51042Y-35817D01*
X51027Y-35804D01*
X50985Y-35741D01*
X51029Y-35676D01*
X51042Y-35664D01*
X51040Y-35659D01*
X51062Y-35545D01*
X51043Y-35446D01*
X51062Y-35348D01*
X51043Y-35249D01*
X51062Y-35151D01*
X51043Y-35052D01*
X51062Y-34954D01*
X51043Y-34857D01*
X51062Y-34760D01*
X51043Y-34661D01*
X51062Y-34563D01*
X51043Y-34464D01*
X51062Y-34366D01*
X51044Y-34274D01*
X51053Y-34274D01*
X51168Y-34251D01*
X51168Y-34251D01*
X51266Y-34185D01*
X51388Y-34063D01*
X51454Y-33965D01*
X51477Y-33850D01*
X51477Y-32970D01*
X51477Y-32814D01*
X51803Y-33141D01*
X51803Y-33146D01*
X51858Y-33279D01*
X51960Y-33381D01*
X52092Y-33436D01*
X52236Y-33436D01*
X52369Y-33381D01*
X52471Y-33279D01*
X52526Y-33147D01*
X52526Y-33003D01*
X52471Y-32870D01*
X52369Y-32768D01*
X52237Y-32713D01*
X52231Y-32713D01*
X52156Y-32639D01*
X52230Y-32624D01*
X52328Y-32643D01*
X52426Y-32624D01*
X52525Y-32643D01*
X52623Y-32624D01*
X52722Y-32643D01*
X52820Y-32624D01*
X52852Y-32630D01*
X52902Y-32704D01*
X52928Y-32731D01*
X52928Y-32736D01*
X52983Y-32869D01*
X53085Y-32971D01*
X53217Y-33026D01*
X53361Y-33026D01*
X53494Y-32971D01*
X53596Y-32869D01*
X53651Y-32737D01*
X53651Y-32633D01*
X53706Y-32643D01*
X53804Y-32624D01*
X53903Y-32643D01*
X53978Y-32628D01*
X53536Y-33071D01*
X53470Y-33169D01*
X53447Y-33285D01*
X53447Y-33525D01*
X53470Y-33640D01*
X53536Y-33738D01*
X53787Y-33989D01*
X53787Y-33989D01*
X53885Y-34055D01*
X54000Y-34078D01*
X54001Y-34078D01*
X54659Y-34078D01*
X54641Y-34169D01*
X54660Y-34267D01*
X54641Y-34366D01*
X54660Y-34464D01*
X54660Y-34464D01*
G37*
G54D44*
X54660Y-34464D02*
X54641Y-34563D01*
X54643Y-34577D01*
X54470Y-34577D01*
X54354Y-34600D01*
X54256Y-34666D01*
X54256Y-34666D01*
X54256Y-34666D01*
X54063Y-34858D01*
X53928Y-34858D01*
X53795Y-34913D01*
X53693Y-35015D01*
X53638Y-35147D01*
X53638Y-35153D01*
X53492Y-35300D01*
X53426Y-35398D01*
X53403Y-35514D01*
X53403Y-36240D01*
X53313Y-36222D01*
X53214Y-36241D01*
X53116Y-36222D01*
X53017Y-36241D01*
X52991Y-36236D01*
X52991Y-36236D01*
X52935Y-36153D01*
X52808Y-36026D01*
X52710Y-35960D01*
X52595Y-35937D01*
X51062Y-35937D01*
X51040Y-35823D01*
X51042Y-35817D01*
X51027Y-35804D01*
X50985Y-35741D01*
X51029Y-35676D01*
X51042Y-35664D01*
X51040Y-35659D01*
X51062Y-35545D01*
X51043Y-35446D01*
X51062Y-35348D01*
X51043Y-35249D01*
X51062Y-35151D01*
X51043Y-35052D01*
X51062Y-34954D01*
X51043Y-34857D01*
X51062Y-34760D01*
X51043Y-34661D01*
X51062Y-34563D01*
X51043Y-34464D01*
X51062Y-34366D01*
X51044Y-34274D01*
X51053Y-34274D01*
X51168Y-34251D01*
X51168Y-34251D01*
X51266Y-34185D01*
X51388Y-34063D01*
X51454Y-33965D01*
X51477Y-33850D01*
X51477Y-32970D01*
X51477Y-32814D01*
X51803Y-33141D01*
X51803Y-33146D01*
X51858Y-33279D01*
X51960Y-33381D01*
X52092Y-33436D01*
X52236Y-33436D01*
X52369Y-33381D01*
X52471Y-33279D01*
X52526Y-33147D01*
X52526Y-33003D01*
X52471Y-32870D01*
X52369Y-32768D01*
X52237Y-32713D01*
X52231Y-32713D01*
X52156Y-32639D01*
X52230Y-32624D01*
X52328Y-32643D01*
X52426Y-32624D01*
X52525Y-32643D01*
X52623Y-32624D01*
X52722Y-32643D01*
X52820Y-32624D01*
X52852Y-32630D01*
X52902Y-32704D01*
X52928Y-32731D01*
X52928Y-32736D01*
X52983Y-32869D01*
X53085Y-32971D01*
X53217Y-33026D01*
X53361Y-33026D01*
X53494Y-32971D01*
X53596Y-32869D01*
X53651Y-32737D01*
X53651Y-32633D01*
X53706Y-32643D01*
X53804Y-32624D01*
X53903Y-32643D01*
X53978Y-32628D01*
X53536Y-33071D01*
X53470Y-33169D01*
X53447Y-33285D01*
X53447Y-33525D01*
X53470Y-33640D01*
X53536Y-33738D01*
X53787Y-33989D01*
X53787Y-33989D01*
X53885Y-34055D01*
X54000Y-34078D01*
X54001Y-34078D01*
X54659Y-34078D01*
X54641Y-34169D01*
X54660Y-34267D01*
X54641Y-34366D01*
X54660Y-34464D01*
G54D10*
G36*
X55212Y-32607D02*
X55203Y-32627D01*
X55203Y-32685D01*
X55195Y-32685D01*
X54943Y-32685D01*
X54827Y-32708D01*
X54729Y-32774D01*
X54664Y-32872D01*
X54662Y-32882D01*
X54579Y-32882D01*
X54910Y-32552D01*
X54921Y-32552D01*
X54925Y-32556D01*
X55057Y-32611D01*
X55201Y-32611D01*
X55212Y-32607D01*
X55212Y-32607D01*
G37*
G54D44*
X55212Y-32607D02*
X55203Y-32627D01*
X55203Y-32685D01*
X55195Y-32685D01*
X54943Y-32685D01*
X54827Y-32708D01*
X54729Y-32774D01*
X54664Y-32872D01*
X54662Y-32882D01*
X54579Y-32882D01*
X54910Y-32552D01*
X54921Y-32552D01*
X54925Y-32556D01*
X55057Y-32611D01*
X55201Y-32611D01*
X55212Y-32607D01*
G54D10*
G36*
X55480Y-38437D02*
X55463Y-38477D01*
X55463Y-38523D01*
X55332Y-38468D01*
X55188Y-38468D01*
X55055Y-38523D01*
X54953Y-38625D01*
X54939Y-38658D01*
X54818Y-38658D01*
X54685Y-38713D01*
X54583Y-38815D01*
X54528Y-38947D01*
X54528Y-39091D01*
X54583Y-39224D01*
X54617Y-39258D01*
X54617Y-41829D01*
X54550Y-41829D01*
X54403Y-41890D01*
X54365Y-41927D01*
X53593Y-41927D01*
X53593Y-41861D01*
X53593Y-41411D01*
X53556Y-41322D01*
X53527Y-41293D01*
X53527Y-40672D01*
X53668Y-40531D01*
X53748Y-40339D01*
X53748Y-40131D01*
X53668Y-39938D01*
X53532Y-39802D01*
X53532Y-39126D01*
X53561Y-39098D01*
X53598Y-39008D01*
X53598Y-38911D01*
X53598Y-38461D01*
X53588Y-38437D01*
X55480Y-38437D01*
X55480Y-38437D01*
G37*
G54D44*
X55480Y-38437D02*
X55463Y-38477D01*
X55463Y-38523D01*
X55332Y-38468D01*
X55188Y-38468D01*
X55055Y-38523D01*
X54953Y-38625D01*
X54939Y-38658D01*
X54818Y-38658D01*
X54685Y-38713D01*
X54583Y-38815D01*
X54528Y-38947D01*
X54528Y-39091D01*
X54583Y-39224D01*
X54617Y-39258D01*
X54617Y-41829D01*
X54550Y-41829D01*
X54403Y-41890D01*
X54365Y-41927D01*
X53593Y-41927D01*
X53593Y-41861D01*
X53593Y-41411D01*
X53556Y-41322D01*
X53527Y-41293D01*
X53527Y-40672D01*
X53668Y-40531D01*
X53748Y-40339D01*
X53748Y-40131D01*
X53668Y-39938D01*
X53532Y-39802D01*
X53532Y-39126D01*
X53561Y-39098D01*
X53598Y-39008D01*
X53598Y-38911D01*
X53598Y-38461D01*
X53588Y-38437D01*
X55480Y-38437D01*
G54D10*
G36*
X56592Y-32241D02*
X56563Y-32270D01*
X55597Y-31305D01*
X55627Y-31305D01*
X55789Y-31238D01*
X55800Y-31226D01*
X55851Y-31226D01*
X55851Y-31333D01*
X55888Y-31422D01*
X55956Y-31491D01*
X56046Y-31528D01*
X56143Y-31528D01*
X56592Y-31528D01*
X56592Y-32241D01*
X56592Y-32241D01*
G37*
G54D44*
X56592Y-32241D02*
X56563Y-32270D01*
X55597Y-31305D01*
X55627Y-31305D01*
X55789Y-31238D01*
X55800Y-31226D01*
X55851Y-31226D01*
X55851Y-31333D01*
X55888Y-31422D01*
X55956Y-31491D01*
X56046Y-31528D01*
X56143Y-31528D01*
X56592Y-31528D01*
X56592Y-32241D01*
G54D10*
G36*
X57240Y-34721D02*
X57224Y-34737D01*
X57189Y-34702D01*
X57108Y-34668D01*
X57187Y-34668D01*
X57240Y-34721D01*
X57240Y-34721D01*
G37*
G54D44*
X57240Y-34721D02*
X57224Y-34737D01*
X57189Y-34702D01*
X57108Y-34668D01*
X57187Y-34668D01*
X57240Y-34721D01*
G54D10*
G36*
X58117Y-42225D02*
X58112Y-42220D01*
X57965Y-42159D01*
X57805Y-42159D01*
X57722Y-42193D01*
X57722Y-39429D01*
X57715Y-39398D01*
X58117Y-39799D01*
X58117Y-42225D01*
X58117Y-42225D01*
G37*
G54D44*
X58117Y-42225D02*
X58112Y-42220D01*
X57965Y-42159D01*
X57805Y-42159D01*
X57722Y-42193D01*
X57722Y-39429D01*
X57715Y-39398D01*
X58117Y-39799D01*
X58117Y-42225D01*
G54D10*
G36*
X58348Y-32545D02*
X57370Y-32545D01*
X57446Y-32469D01*
X57501Y-32337D01*
X57501Y-32300D01*
X57504Y-32295D01*
X57527Y-32180D01*
X57527Y-32180D01*
X57527Y-31528D01*
X57577Y-31528D01*
X57638Y-31467D01*
X57638Y-30941D01*
X57630Y-30941D01*
X57630Y-30828D01*
X57638Y-30828D01*
X57638Y-30820D01*
X57751Y-30820D01*
X57751Y-30828D01*
X57759Y-30828D01*
X57759Y-30941D01*
X57751Y-30941D01*
X57751Y-31467D01*
X57812Y-31528D01*
X58043Y-31528D01*
X58132Y-31491D01*
X58147Y-31476D01*
X58147Y-32220D01*
X58170Y-32335D01*
X58236Y-32433D01*
X58348Y-32545D01*
X58348Y-32545D01*
G37*
G54D44*
X58348Y-32545D02*
X57370Y-32545D01*
X57446Y-32469D01*
X57501Y-32337D01*
X57501Y-32300D01*
X57504Y-32295D01*
X57527Y-32180D01*
X57527Y-32180D01*
X57527Y-31528D01*
X57577Y-31528D01*
X57638Y-31467D01*
X57638Y-30941D01*
X57630Y-30941D01*
X57630Y-30828D01*
X57638Y-30828D01*
X57638Y-30820D01*
X57751Y-30820D01*
X57751Y-30828D01*
X57759Y-30828D01*
X57759Y-30941D01*
X57751Y-30941D01*
X57751Y-31467D01*
X57812Y-31528D01*
X58043Y-31528D01*
X58132Y-31491D01*
X58147Y-31476D01*
X58147Y-32220D01*
X58170Y-32335D01*
X58236Y-32433D01*
X58348Y-32545D01*
G54D10*
G36*
X59117Y-42650D02*
X59077Y-42610D01*
X58930Y-42549D01*
X58770Y-42549D01*
X58722Y-42569D01*
X58722Y-39674D01*
X58699Y-39562D01*
X59117Y-39979D01*
X59117Y-42650D01*
X59117Y-42650D01*
G37*
G54D44*
X59117Y-42650D02*
X59077Y-42610D01*
X58930Y-42549D01*
X58770Y-42549D01*
X58722Y-42569D01*
X58722Y-39674D01*
X58699Y-39562D01*
X59117Y-39979D01*
X59117Y-42650D01*
G54D10*
G36*
X60077Y-28675D02*
X59571Y-29181D01*
X59505Y-29279D01*
X59491Y-29351D01*
X59472Y-29343D01*
X59328Y-29343D01*
X59213Y-29390D01*
X59112Y-29348D01*
X58968Y-29348D01*
X58835Y-29403D01*
X58803Y-29435D01*
X58762Y-29418D01*
X58629Y-29418D01*
X59254Y-28792D01*
X59767Y-28792D01*
X59857Y-28755D01*
X59925Y-28687D01*
X59962Y-28598D01*
X59962Y-28561D01*
X60077Y-28675D01*
X60077Y-28675D01*
G37*
G54D44*
X60077Y-28675D02*
X59571Y-29181D01*
X59505Y-29279D01*
X59491Y-29351D01*
X59472Y-29343D01*
X59328Y-29343D01*
X59213Y-29390D01*
X59112Y-29348D01*
X58968Y-29348D01*
X58835Y-29403D01*
X58803Y-29435D01*
X58762Y-29418D01*
X58629Y-29418D01*
X59254Y-28792D01*
X59767Y-28792D01*
X59857Y-28755D01*
X59925Y-28687D01*
X59962Y-28598D01*
X59962Y-28561D01*
X60077Y-28675D01*
G54D10*
G36*
X60184Y-33396D02*
X60176Y-33396D01*
X60176Y-33404D01*
X60063Y-33404D01*
X60063Y-33396D01*
X60055Y-33396D01*
X60055Y-33283D01*
X60063Y-33283D01*
X60063Y-33275D01*
X60176Y-33275D01*
X60176Y-33283D01*
X60184Y-33283D01*
X60184Y-33396D01*
X60184Y-33396D01*
G37*
G54D44*
X60184Y-33396D02*
X60176Y-33396D01*
X60176Y-33404D01*
X60063Y-33404D01*
X60063Y-33396D01*
X60055Y-33396D01*
X60055Y-33283D01*
X60063Y-33283D01*
X60063Y-33275D01*
X60176Y-33275D01*
X60176Y-33283D01*
X60184Y-33283D01*
X60184Y-33396D01*
G54D10*
G36*
X61090Y-28688D02*
X61008Y-28688D01*
X60875Y-28743D01*
X60773Y-28845D01*
X60718Y-28977D01*
X60718Y-28983D01*
X60491Y-29211D01*
X60425Y-29309D01*
X60402Y-29425D01*
X60402Y-30020D01*
X60275Y-30073D01*
X60173Y-30175D01*
X60118Y-30307D01*
X60118Y-30451D01*
X60173Y-30584D01*
X60275Y-30686D01*
X60407Y-30741D01*
X60551Y-30741D01*
X60567Y-30734D01*
X60483Y-30818D01*
X60478Y-30818D01*
X60345Y-30873D01*
X60243Y-30975D01*
X60225Y-31018D01*
X59851Y-30644D01*
X59894Y-30626D01*
X59996Y-30524D01*
X60051Y-30392D01*
X60051Y-30360D01*
X60064Y-30340D01*
X60087Y-30225D01*
X60087Y-30225D01*
X60087Y-29520D01*
X60633Y-28974D01*
X60699Y-28876D01*
X60722Y-28760D01*
X60722Y-28712D01*
X60727Y-28710D01*
X60880Y-28557D01*
X60919Y-28462D01*
X60958Y-28556D01*
X61090Y-28688D01*
X61090Y-28688D01*
G37*
G54D44*
X61090Y-28688D02*
X61008Y-28688D01*
X60875Y-28743D01*
X60773Y-28845D01*
X60718Y-28977D01*
X60718Y-28983D01*
X60491Y-29211D01*
X60425Y-29309D01*
X60402Y-29425D01*
X60402Y-30020D01*
X60275Y-30073D01*
X60173Y-30175D01*
X60118Y-30307D01*
X60118Y-30451D01*
X60173Y-30584D01*
X60275Y-30686D01*
X60407Y-30741D01*
X60551Y-30741D01*
X60567Y-30734D01*
X60483Y-30818D01*
X60478Y-30818D01*
X60345Y-30873D01*
X60243Y-30975D01*
X60225Y-31018D01*
X59851Y-30644D01*
X59894Y-30626D01*
X59996Y-30524D01*
X60051Y-30392D01*
X60051Y-30360D01*
X60064Y-30340D01*
X60087Y-30225D01*
X60087Y-30225D01*
X60087Y-29520D01*
X60633Y-28974D01*
X60699Y-28876D01*
X60722Y-28760D01*
X60722Y-28712D01*
X60727Y-28710D01*
X60880Y-28557D01*
X60919Y-28462D01*
X60958Y-28556D01*
X61090Y-28688D01*
G54D10*
G36*
X61160Y-34079D02*
X61083Y-34079D01*
X61065Y-34036D01*
X61047Y-34018D01*
X61047Y-34004D01*
X61047Y-33979D01*
X61160Y-33979D01*
X61160Y-34004D01*
X61160Y-34054D01*
X61160Y-34064D01*
X61160Y-34079D01*
X61160Y-34079D01*
G37*
G54D44*
X61160Y-34079D02*
X61083Y-34079D01*
X61065Y-34036D01*
X61047Y-34018D01*
X61047Y-34004D01*
X61047Y-33979D01*
X61160Y-33979D01*
X61160Y-34004D01*
X61160Y-34054D01*
X61160Y-34064D01*
X61160Y-34079D01*
G54D10*
G36*
X62226Y-31896D02*
X62145Y-31977D01*
X62084Y-32124D01*
X62084Y-32284D01*
X62110Y-32348D01*
X62091Y-32348D01*
X61637Y-31894D01*
X61637Y-31770D01*
X61653Y-31754D01*
X61653Y-31735D01*
X61679Y-31710D01*
X61710Y-31635D01*
X61740Y-31709D01*
X61766Y-31735D01*
X61766Y-31754D01*
X61827Y-31815D01*
X61896Y-31815D01*
X61897Y-31814D01*
X61898Y-31815D01*
X61995Y-31815D01*
X62025Y-31815D01*
X62114Y-31874D01*
X62226Y-31896D01*
X62226Y-31896D01*
G37*
G54D44*
X62226Y-31896D02*
X62145Y-31977D01*
X62084Y-32124D01*
X62084Y-32284D01*
X62110Y-32348D01*
X62091Y-32348D01*
X61637Y-31894D01*
X61637Y-31770D01*
X61653Y-31754D01*
X61653Y-31735D01*
X61679Y-31710D01*
X61710Y-31635D01*
X61740Y-31709D01*
X61766Y-31735D01*
X61766Y-31754D01*
X61827Y-31815D01*
X61896Y-31815D01*
X61897Y-31814D01*
X61898Y-31815D01*
X61995Y-31815D01*
X62025Y-31815D01*
X62114Y-31874D01*
X62226Y-31896D01*
G54D10*
G36*
X63143Y-32046D02*
X63014Y-32046D01*
X63014Y-31947D01*
X63022Y-31947D01*
X63022Y-31939D01*
X63135Y-31939D01*
X63135Y-31947D01*
X63143Y-31947D01*
X63143Y-32046D01*
X63143Y-32046D01*
G37*
G54D44*
X63143Y-32046D02*
X63014Y-32046D01*
X63014Y-31947D01*
X63022Y-31947D01*
X63022Y-31939D01*
X63135Y-31939D01*
X63135Y-31947D01*
X63143Y-31947D01*
X63143Y-32046D01*
G54D10*
G36*
X63685Y-37035D02*
X63623Y-37096D01*
X63602Y-37149D01*
X63573Y-37168D01*
X63430Y-37310D01*
X63430Y-37311D01*
X63369Y-37311D01*
X63430Y-37250D01*
X63430Y-37219D01*
X63430Y-37122D01*
X63393Y-37032D01*
X63325Y-36964D01*
X63235Y-36927D01*
X63147Y-36927D01*
X63086Y-36988D01*
X63086Y-37311D01*
X63094Y-37311D01*
X63094Y-37424D01*
X63086Y-37424D01*
X63086Y-37747D01*
X63109Y-37769D01*
X63109Y-37794D01*
X63129Y-37842D01*
X63127Y-37843D01*
X63058Y-37911D01*
X63021Y-38001D01*
X63021Y-38037D01*
X62928Y-38037D01*
X62928Y-38016D01*
X62891Y-37927D01*
X62823Y-37858D01*
X62812Y-37854D01*
X62812Y-37835D01*
X62805Y-37800D01*
X62824Y-37808D01*
X62912Y-37808D01*
X62973Y-37747D01*
X62973Y-37424D01*
X62965Y-37424D01*
X62965Y-37311D01*
X62973Y-37311D01*
X62973Y-36988D01*
X62912Y-36927D01*
X62896Y-36927D01*
X62950Y-36905D01*
X63018Y-36837D01*
X63055Y-36747D01*
X63055Y-36650D01*
X63055Y-36256D01*
X63018Y-36167D01*
X62968Y-36117D01*
X63085Y-36117D01*
X63114Y-36188D01*
X63182Y-36257D01*
X63272Y-36294D01*
X63369Y-36294D01*
X63676Y-36294D01*
X63623Y-36346D01*
X63586Y-36436D01*
X63586Y-36533D01*
X63586Y-36883D01*
X63623Y-36972D01*
X63685Y-37035D01*
X63685Y-37035D01*
G37*
G54D44*
X63685Y-37035D02*
X63623Y-37096D01*
X63602Y-37149D01*
X63573Y-37168D01*
X63430Y-37310D01*
X63430Y-37311D01*
X63369Y-37311D01*
X63430Y-37250D01*
X63430Y-37219D01*
X63430Y-37122D01*
X63393Y-37032D01*
X63325Y-36964D01*
X63235Y-36927D01*
X63147Y-36927D01*
X63086Y-36988D01*
X63086Y-37311D01*
X63094Y-37311D01*
X63094Y-37424D01*
X63086Y-37424D01*
X63086Y-37747D01*
X63109Y-37769D01*
X63109Y-37794D01*
X63129Y-37842D01*
X63127Y-37843D01*
X63058Y-37911D01*
X63021Y-38001D01*
X63021Y-38037D01*
X62928Y-38037D01*
X62928Y-38016D01*
X62891Y-37927D01*
X62823Y-37858D01*
X62812Y-37854D01*
X62812Y-37835D01*
X62805Y-37800D01*
X62824Y-37808D01*
X62912Y-37808D01*
X62973Y-37747D01*
X62973Y-37424D01*
X62965Y-37424D01*
X62965Y-37311D01*
X62973Y-37311D01*
X62973Y-36988D01*
X62912Y-36927D01*
X62896Y-36927D01*
X62950Y-36905D01*
X63018Y-36837D01*
X63055Y-36747D01*
X63055Y-36650D01*
X63055Y-36256D01*
X63018Y-36167D01*
X62968Y-36117D01*
X63085Y-36117D01*
X63114Y-36188D01*
X63182Y-36257D01*
X63272Y-36294D01*
X63369Y-36294D01*
X63676Y-36294D01*
X63623Y-36346D01*
X63586Y-36436D01*
X63586Y-36533D01*
X63586Y-36883D01*
X63623Y-36972D01*
X63685Y-37035D01*
G54D10*
G36*
X64562Y-39628D02*
X64511Y-39578D01*
X64506Y-39574D01*
X64506Y-39338D01*
X64469Y-39249D01*
X64401Y-39180D01*
X64311Y-39143D01*
X64214Y-39143D01*
X63584Y-39143D01*
X63495Y-39180D01*
X63426Y-39248D01*
X63389Y-39338D01*
X63389Y-39435D01*
X63389Y-40301D01*
X63426Y-40390D01*
X63494Y-40459D01*
X63584Y-40496D01*
X63681Y-40496D01*
X64158Y-40496D01*
X64158Y-41071D01*
X63566Y-41071D01*
X63511Y-41094D01*
X63442Y-41025D01*
X63295Y-40964D01*
X63135Y-40964D01*
X62988Y-41025D01*
X62875Y-41137D01*
X62851Y-41195D01*
X62058Y-41988D01*
X62058Y-41646D01*
X62021Y-41557D01*
X61953Y-41488D01*
X61863Y-41451D01*
X61766Y-41451D01*
X60966Y-41451D01*
X60877Y-41488D01*
X60808Y-41556D01*
X60771Y-41646D01*
X60771Y-41743D01*
X60771Y-43183D01*
X60808Y-43272D01*
X60876Y-43341D01*
X60966Y-43378D01*
X61063Y-43378D01*
X61361Y-43378D01*
X61333Y-43390D01*
X61220Y-43502D01*
X61159Y-43649D01*
X61159Y-43809D01*
X61220Y-43956D01*
X61332Y-44069D01*
X61479Y-44130D01*
X61510Y-44130D01*
X61478Y-44161D01*
X61453Y-44222D01*
X61253Y-44222D01*
X61220Y-44200D01*
X61105Y-44177D01*
X60989Y-44200D01*
X60891Y-44266D01*
X60825Y-44364D01*
X60802Y-44480D01*
X60802Y-44932D01*
X60413Y-44932D01*
X60323Y-44969D01*
X60262Y-45030D01*
X60237Y-45030D01*
X60106Y-45056D01*
X59995Y-45130D01*
X59995Y-45130D01*
X59995Y-45131D01*
X59918Y-45163D01*
X59918Y-37346D01*
X59918Y-37287D01*
X59857Y-37226D01*
X59606Y-37226D01*
X59606Y-37577D01*
X59667Y-37638D01*
X59723Y-37638D01*
X59812Y-37601D01*
X59881Y-37533D01*
X59918Y-37443D01*
X59918Y-37346D01*
X59918Y-45163D01*
X59853Y-45190D01*
X59740Y-45302D01*
X59722Y-45346D01*
X59722Y-39854D01*
X59699Y-39738D01*
X59633Y-39640D01*
X58228Y-38235D01*
X58228Y-36413D01*
X58228Y-36357D01*
X58167Y-36296D01*
X57816Y-36296D01*
X57816Y-36547D01*
X57877Y-36608D01*
X57936Y-36608D01*
X58033Y-36608D01*
X58123Y-36571D01*
X58191Y-36502D01*
X58228Y-36413D01*
X58228Y-38235D01*
X57703Y-37710D01*
X57703Y-36547D01*
X57703Y-36296D01*
X57352Y-36296D01*
X57291Y-36357D01*
X57291Y-36413D01*
X57328Y-36502D01*
X57396Y-36571D01*
X57486Y-36608D01*
X57583Y-36608D01*
X57642Y-36608D01*
X57703Y-36547D01*
X57703Y-37710D01*
X56416Y-36423D01*
X56416Y-36418D01*
X56361Y-36285D01*
X56319Y-36243D01*
X56894Y-36243D01*
X57009Y-36220D01*
X57009Y-36220D01*
X57107Y-36154D01*
X57344Y-35918D01*
X57365Y-35940D01*
X57328Y-35977D01*
X57291Y-36066D01*
X57291Y-36122D01*
X57352Y-36183D01*
X57703Y-36183D01*
X57703Y-36175D01*
X57816Y-36175D01*
X57816Y-36183D01*
X58167Y-36183D01*
X58228Y-36122D01*
X58228Y-36066D01*
X58191Y-35977D01*
X58154Y-35939D01*
X58191Y-35903D01*
X58228Y-35813D01*
X58228Y-35716D01*
X58228Y-35506D01*
X58256Y-35494D01*
X58261Y-35490D01*
X58261Y-35791D01*
X58298Y-35880D01*
X58357Y-35940D01*
X58298Y-35998D01*
X58261Y-36088D01*
X58261Y-36185D01*
X58261Y-36657D01*
X58298Y-36746D01*
X58366Y-36815D01*
X58455Y-36852D01*
X58477Y-36852D01*
X58477Y-37000D01*
X58500Y-37115D01*
X58566Y-37213D01*
X58581Y-37229D01*
X58581Y-37443D01*
X58618Y-37532D01*
X58686Y-37601D01*
X58776Y-37638D01*
X58873Y-37638D01*
X59123Y-37638D01*
X59212Y-37601D01*
X59250Y-37564D01*
X59287Y-37601D01*
X59376Y-37638D01*
X59432Y-37638D01*
X59493Y-37577D01*
X59493Y-37226D01*
X59485Y-37226D01*
X59485Y-37113D01*
X59493Y-37113D01*
X59493Y-37105D01*
X59606Y-37105D01*
X59606Y-37113D01*
X59857Y-37113D01*
X59918Y-37052D01*
X59918Y-36993D01*
X59918Y-36896D01*
X59900Y-36852D01*
X60103Y-36852D01*
X60193Y-36815D01*
X60261Y-36747D01*
X60298Y-36657D01*
X60298Y-36561D01*
X60298Y-36490D01*
X60238Y-36429D01*
X59836Y-36429D01*
X59836Y-36437D01*
X59723Y-36437D01*
X59723Y-36429D01*
X59715Y-36429D01*
X59715Y-36316D01*
X59723Y-36316D01*
X59723Y-36308D01*
X59836Y-36308D01*
X59836Y-36316D01*
X60238Y-36316D01*
X60298Y-36255D01*
X60298Y-36185D01*
X60298Y-36088D01*
X60261Y-35998D01*
X60202Y-35940D01*
X60253Y-35888D01*
X60293Y-35984D01*
X60395Y-36086D01*
X60527Y-36141D01*
X60671Y-36141D01*
X60804Y-36086D01*
X60906Y-35984D01*
X60961Y-35852D01*
X60961Y-35708D01*
X60906Y-35575D01*
X60902Y-35571D01*
X60902Y-35525D01*
X60879Y-35409D01*
X60814Y-35311D01*
X60821Y-35304D01*
X60876Y-35172D01*
X60876Y-35163D01*
X60981Y-35269D01*
X60981Y-35288D01*
X61018Y-35377D01*
X61080Y-35440D01*
X61018Y-35502D01*
X60981Y-35591D01*
X60981Y-35697D01*
X61042Y-35758D01*
X61443Y-35758D01*
X61443Y-35750D01*
X61556Y-35750D01*
X61556Y-35758D01*
X61957Y-35758D01*
X62018Y-35697D01*
X62018Y-35591D01*
X61981Y-35502D01*
X61919Y-35439D01*
X61981Y-35378D01*
X62018Y-35288D01*
X62018Y-35191D01*
X62018Y-34841D01*
X61981Y-34752D01*
X61913Y-34683D01*
X61823Y-34646D01*
X61726Y-34646D01*
X61214Y-34646D01*
X61111Y-34543D01*
X61111Y-34324D01*
X61111Y-34322D01*
X61160Y-34322D01*
X61160Y-34261D01*
X61221Y-34322D01*
X61205Y-34322D01*
X61302Y-34322D01*
X61392Y-34285D01*
X61460Y-34216D01*
X61497Y-34127D01*
X61497Y-34114D01*
X61436Y-34054D01*
X61426Y-34054D01*
X61460Y-34019D01*
X61488Y-33952D01*
X61497Y-33943D01*
X61497Y-33930D01*
X61497Y-33930D01*
X61497Y-33930D01*
X61497Y-33917D01*
X61488Y-33908D01*
X61460Y-33841D01*
X61451Y-33832D01*
X61460Y-33823D01*
X61488Y-33755D01*
X61497Y-33746D01*
X61497Y-33740D01*
X61817Y-33740D01*
X61932Y-33717D01*
X61932Y-33717D01*
X61934Y-33716D01*
X61934Y-33716D01*
X61971Y-33716D01*
X62104Y-33661D01*
X62206Y-33559D01*
X62261Y-33427D01*
X62261Y-33283D01*
X62206Y-33150D01*
X62206Y-33150D01*
X62697Y-33150D01*
X62697Y-33262D01*
X62698Y-33263D01*
X62697Y-33264D01*
X62697Y-33291D01*
X62717Y-33311D01*
X62734Y-33352D01*
X62773Y-33391D01*
X62697Y-33463D01*
X62697Y-33491D01*
X62697Y-33492D01*
X62697Y-33463D01*
X62661Y-33497D01*
X62597Y-33630D01*
X62644Y-33699D01*
X62857Y-33699D01*
X62892Y-33713D01*
X63089Y-33713D01*
X63111Y-33691D01*
X63135Y-33691D01*
X63135Y-33699D01*
X63309Y-33699D01*
X63324Y-33713D01*
X63520Y-33713D01*
X63610Y-33676D01*
X63678Y-33608D01*
X63684Y-33593D01*
X63748Y-33657D01*
X63837Y-33694D01*
X64142Y-33694D01*
X64203Y-33633D01*
X64203Y-32936D01*
X64195Y-32936D01*
X64195Y-32823D01*
X64203Y-32823D01*
X64203Y-32126D01*
X64142Y-32065D01*
X63982Y-32065D01*
X63982Y-31860D01*
X63974Y-31822D01*
X64142Y-31822D01*
X64203Y-31761D01*
X64203Y-31326D01*
X64203Y-31213D01*
X64203Y-30778D01*
X64142Y-30717D01*
X63837Y-30717D01*
X63748Y-30754D01*
X63679Y-30822D01*
X63642Y-30912D01*
X63642Y-31008D01*
X63642Y-31152D01*
X63703Y-31213D01*
X64203Y-31213D01*
X64203Y-31326D01*
X63703Y-31326D01*
X63642Y-31387D01*
X63642Y-31395D01*
X63628Y-31381D01*
X63530Y-31315D01*
X63415Y-31292D01*
X62466Y-31292D01*
X62466Y-31129D01*
X62429Y-31040D01*
X62361Y-30971D01*
X62271Y-30934D01*
X62174Y-30934D01*
X61898Y-30934D01*
X61897Y-30935D01*
X61896Y-30934D01*
X61827Y-30934D01*
X61766Y-30995D01*
X61766Y-31014D01*
X61740Y-31039D01*
X61709Y-31114D01*
X61679Y-31040D01*
X61653Y-31014D01*
X61653Y-30995D01*
X61592Y-30934D01*
X61523Y-30934D01*
X61522Y-30935D01*
X61521Y-30934D01*
X61424Y-30934D01*
X61181Y-30934D01*
X61202Y-30830D01*
X61202Y-30830D01*
X61202Y-30815D01*
X61245Y-30815D01*
X61521Y-30815D01*
X61522Y-30814D01*
X61523Y-30815D01*
X61620Y-30815D01*
X61896Y-30815D01*
X61897Y-30814D01*
X61898Y-30815D01*
X61995Y-30815D01*
X62271Y-30815D01*
X62360Y-30778D01*
X62429Y-30710D01*
X62466Y-30620D01*
X62466Y-30523D01*
X62466Y-30129D01*
X62429Y-30040D01*
X62361Y-29971D01*
X62271Y-29934D01*
X62174Y-29934D01*
X62070Y-29934D01*
X62105Y-29850D01*
X62105Y-29690D01*
X62044Y-29543D01*
X61932Y-29430D01*
X61785Y-29369D01*
X61722Y-29369D01*
X61722Y-28712D01*
X61727Y-28710D01*
X61880Y-28557D01*
X61919Y-28462D01*
X61958Y-28556D01*
X62111Y-28709D01*
X62311Y-28792D01*
X62527Y-28793D01*
X62727Y-28710D01*
X62880Y-28557D01*
X62919Y-28462D01*
X62958Y-28556D01*
X63111Y-28709D01*
X63311Y-28792D01*
X63527Y-28793D01*
X63727Y-28710D01*
X63880Y-28557D01*
X63962Y-28358D01*
X63963Y-28172D01*
X64221Y-28172D01*
X64562Y-28513D01*
X64562Y-30717D01*
X64377Y-30717D01*
X64316Y-30778D01*
X64316Y-31213D01*
X64324Y-31213D01*
X64324Y-31326D01*
X64316Y-31326D01*
X64316Y-31761D01*
X64377Y-31822D01*
X64562Y-31822D01*
X64562Y-32065D01*
X64377Y-32065D01*
X64316Y-32126D01*
X64316Y-32823D01*
X64324Y-32823D01*
X64324Y-32936D01*
X64316Y-32936D01*
X64316Y-33633D01*
X64377Y-33694D01*
X64562Y-33694D01*
X64562Y-33937D01*
X64377Y-33937D01*
X64316Y-33998D01*
X64316Y-34433D01*
X64324Y-34433D01*
X64324Y-34546D01*
X64316Y-34546D01*
X64316Y-34981D01*
X64377Y-35042D01*
X64562Y-35042D01*
X64562Y-35335D01*
X64203Y-35335D01*
X64203Y-34981D01*
X64203Y-34546D01*
X64203Y-34433D01*
X64203Y-33998D01*
X64142Y-33937D01*
X63837Y-33937D01*
X63748Y-33974D01*
X63679Y-34043D01*
X63642Y-34132D01*
X63642Y-34229D01*
X63642Y-34372D01*
X63703Y-34433D01*
X64203Y-34433D01*
X64203Y-34546D01*
X63703Y-34546D01*
X63642Y-34607D01*
X63642Y-34751D01*
X63642Y-34847D01*
X63679Y-34937D01*
X63748Y-35005D01*
X63837Y-35042D01*
X64142Y-35042D01*
X64203Y-34981D01*
X64203Y-35335D01*
X64098Y-35335D01*
X64009Y-35372D01*
X63969Y-35411D01*
X63931Y-35372D01*
X63841Y-35335D01*
X63744Y-35335D01*
X63560Y-35335D01*
X63560Y-33881D01*
X63513Y-33812D01*
X63135Y-33812D01*
X63135Y-34144D01*
X63205Y-34198D01*
X63369Y-34135D01*
X63496Y-34014D01*
X63560Y-33881D01*
X63560Y-35335D01*
X63272Y-35335D01*
X63183Y-35372D01*
X63114Y-35440D01*
X63085Y-35512D01*
X63022Y-35512D01*
X63022Y-34144D01*
X63022Y-33812D01*
X62644Y-33812D01*
X62597Y-33881D01*
X62661Y-34014D01*
X62788Y-34135D01*
X62951Y-34198D01*
X63022Y-34144D01*
X63022Y-35512D01*
X62785Y-35512D01*
X62669Y-35535D01*
X62571Y-35601D01*
X62441Y-35731D01*
X62375Y-35829D01*
X62352Y-35945D01*
X62352Y-36105D01*
X62291Y-36166D01*
X62254Y-36256D01*
X62254Y-36353D01*
X62254Y-36747D01*
X62291Y-36836D01*
X62359Y-36905D01*
X62413Y-36927D01*
X62389Y-36927D01*
X62074Y-36927D01*
X62018Y-36950D01*
X62018Y-36038D01*
X62018Y-35932D01*
X61957Y-35871D01*
X61556Y-35871D01*
X61556Y-36172D01*
X61617Y-36233D01*
X61726Y-36233D01*
X61823Y-36233D01*
X61913Y-36196D01*
X61981Y-36127D01*
X62018Y-36038D01*
X62018Y-36950D01*
X61984Y-36964D01*
X61916Y-37032D01*
X61879Y-37122D01*
X61879Y-37219D01*
X61879Y-37377D01*
X61852Y-37350D01*
X61705Y-37289D01*
X61545Y-37289D01*
X61443Y-37331D01*
X61443Y-36172D01*
X61443Y-35871D01*
X61042Y-35871D01*
X60981Y-35932D01*
X60981Y-36038D01*
X61018Y-36127D01*
X61086Y-36196D01*
X61176Y-36233D01*
X61273Y-36233D01*
X61382Y-36233D01*
X61443Y-36172D01*
X61443Y-37331D01*
X61398Y-37350D01*
X61285Y-37462D01*
X61224Y-37609D01*
X61224Y-37769D01*
X61285Y-37916D01*
X61354Y-37986D01*
X61341Y-38016D01*
X61341Y-38113D01*
X61341Y-38663D01*
X61344Y-38670D01*
X61142Y-38872D01*
X61125Y-38896D01*
X61046Y-38896D01*
X60957Y-38933D01*
X60888Y-39001D01*
X60851Y-39091D01*
X60851Y-39188D01*
X60851Y-39538D01*
X60888Y-39627D01*
X60950Y-39690D01*
X60888Y-39751D01*
X60851Y-39841D01*
X60851Y-39938D01*
X60851Y-40288D01*
X60888Y-40377D01*
X60956Y-40446D01*
X61046Y-40483D01*
X61143Y-40483D01*
X61693Y-40483D01*
X61782Y-40446D01*
X61842Y-40387D01*
X61929Y-40387D01*
X61930Y-40390D01*
X61998Y-40459D01*
X62088Y-40496D01*
X62185Y-40496D01*
X62815Y-40496D01*
X62904Y-40459D01*
X62973Y-40391D01*
X63010Y-40301D01*
X63010Y-40204D01*
X63010Y-39338D01*
X62973Y-39249D01*
X62905Y-39180D01*
X62815Y-39143D01*
X62718Y-39143D01*
X62088Y-39143D01*
X61999Y-39180D01*
X61930Y-39248D01*
X61893Y-39338D01*
X61893Y-39435D01*
X61893Y-39742D01*
X61841Y-39742D01*
X61789Y-39689D01*
X61851Y-39628D01*
X61888Y-39538D01*
X61888Y-39441D01*
X61888Y-39091D01*
X61872Y-39053D01*
X61987Y-38937D01*
X61987Y-38937D01*
X62015Y-38895D01*
X62057Y-38833D01*
X62057Y-38833D01*
X62058Y-38827D01*
X62072Y-38821D01*
X62135Y-38759D01*
X62196Y-38821D01*
X62286Y-38858D01*
X62383Y-38858D01*
X62733Y-38858D01*
X62822Y-38821D01*
X62891Y-38753D01*
X62928Y-38663D01*
X62928Y-38642D01*
X63021Y-38642D01*
X63021Y-38648D01*
X63058Y-38737D01*
X63126Y-38806D01*
X63216Y-38843D01*
X63313Y-38843D01*
X63663Y-38843D01*
X63752Y-38806D01*
X63815Y-38744D01*
X63877Y-38806D01*
X63966Y-38843D01*
X64072Y-38843D01*
X64133Y-38782D01*
X64133Y-38381D01*
X64125Y-38381D01*
X64125Y-38268D01*
X64133Y-38268D01*
X64133Y-38260D01*
X64246Y-38260D01*
X64246Y-38268D01*
X64254Y-38268D01*
X64254Y-38381D01*
X64246Y-38381D01*
X64246Y-38782D01*
X64307Y-38843D01*
X64413Y-38843D01*
X64502Y-38806D01*
X64562Y-38746D01*
X64562Y-39628D01*
X64562Y-39628D01*
G37*
G54D44*
X64562Y-39628D02*
X64511Y-39578D01*
X64506Y-39574D01*
X64506Y-39338D01*
X64469Y-39249D01*
X64401Y-39180D01*
X64311Y-39143D01*
X64214Y-39143D01*
X63584Y-39143D01*
X63495Y-39180D01*
X63426Y-39248D01*
X63389Y-39338D01*
X63389Y-39435D01*
X63389Y-40301D01*
X63426Y-40390D01*
X63494Y-40459D01*
X63584Y-40496D01*
X63681Y-40496D01*
X64158Y-40496D01*
X64158Y-41071D01*
X63566Y-41071D01*
X63511Y-41094D01*
X63442Y-41025D01*
X63295Y-40964D01*
X63135Y-40964D01*
X62988Y-41025D01*
X62875Y-41137D01*
X62851Y-41195D01*
X62058Y-41988D01*
X62058Y-41646D01*
X62021Y-41557D01*
X61953Y-41488D01*
X61863Y-41451D01*
X61766Y-41451D01*
X60966Y-41451D01*
X60877Y-41488D01*
X60808Y-41556D01*
X60771Y-41646D01*
X60771Y-41743D01*
X60771Y-43183D01*
X60808Y-43272D01*
X60876Y-43341D01*
X60966Y-43378D01*
X61063Y-43378D01*
X61361Y-43378D01*
X61333Y-43390D01*
X61220Y-43502D01*
X61159Y-43649D01*
X61159Y-43809D01*
X61220Y-43956D01*
X61332Y-44069D01*
X61479Y-44130D01*
X61510Y-44130D01*
X61478Y-44161D01*
X61453Y-44222D01*
X61253Y-44222D01*
X61220Y-44200D01*
X61105Y-44177D01*
X60989Y-44200D01*
X60891Y-44266D01*
X60825Y-44364D01*
X60802Y-44480D01*
X60802Y-44932D01*
X60413Y-44932D01*
X60323Y-44969D01*
X60262Y-45030D01*
X60237Y-45030D01*
X60106Y-45056D01*
X59995Y-45130D01*
X59995Y-45130D01*
X59995Y-45131D01*
X59918Y-45163D01*
X59918Y-37346D01*
X59918Y-37287D01*
X59857Y-37226D01*
X59606Y-37226D01*
X59606Y-37577D01*
X59667Y-37638D01*
X59723Y-37638D01*
X59812Y-37601D01*
X59881Y-37533D01*
X59918Y-37443D01*
X59918Y-37346D01*
X59918Y-45163D01*
X59853Y-45190D01*
X59740Y-45302D01*
X59722Y-45346D01*
X59722Y-39854D01*
X59699Y-39738D01*
X59633Y-39640D01*
X58228Y-38235D01*
X58228Y-36413D01*
X58228Y-36357D01*
X58167Y-36296D01*
X57816Y-36296D01*
X57816Y-36547D01*
X57877Y-36608D01*
X57936Y-36608D01*
X58033Y-36608D01*
X58123Y-36571D01*
X58191Y-36502D01*
X58228Y-36413D01*
X58228Y-38235D01*
X57703Y-37710D01*
X57703Y-36547D01*
X57703Y-36296D01*
X57352Y-36296D01*
X57291Y-36357D01*
X57291Y-36413D01*
X57328Y-36502D01*
X57396Y-36571D01*
X57486Y-36608D01*
X57583Y-36608D01*
X57642Y-36608D01*
X57703Y-36547D01*
X57703Y-37710D01*
X56416Y-36423D01*
X56416Y-36418D01*
X56361Y-36285D01*
X56319Y-36243D01*
X56894Y-36243D01*
X57009Y-36220D01*
X57009Y-36220D01*
X57107Y-36154D01*
X57344Y-35918D01*
X57365Y-35940D01*
X57328Y-35977D01*
X57291Y-36066D01*
X57291Y-36122D01*
X57352Y-36183D01*
X57703Y-36183D01*
X57703Y-36175D01*
X57816Y-36175D01*
X57816Y-36183D01*
X58167Y-36183D01*
X58228Y-36122D01*
X58228Y-36066D01*
X58191Y-35977D01*
X58154Y-35939D01*
X58191Y-35903D01*
X58228Y-35813D01*
X58228Y-35716D01*
X58228Y-35506D01*
X58256Y-35494D01*
X58261Y-35490D01*
X58261Y-35791D01*
X58298Y-35880D01*
X58357Y-35940D01*
X58298Y-35998D01*
X58261Y-36088D01*
X58261Y-36185D01*
X58261Y-36657D01*
X58298Y-36746D01*
X58366Y-36815D01*
X58455Y-36852D01*
X58477Y-36852D01*
X58477Y-37000D01*
X58500Y-37115D01*
X58566Y-37213D01*
X58581Y-37229D01*
X58581Y-37443D01*
X58618Y-37532D01*
X58686Y-37601D01*
X58776Y-37638D01*
X58873Y-37638D01*
X59123Y-37638D01*
X59212Y-37601D01*
X59250Y-37564D01*
X59287Y-37601D01*
X59376Y-37638D01*
X59432Y-37638D01*
X59493Y-37577D01*
X59493Y-37226D01*
X59485Y-37226D01*
X59485Y-37113D01*
X59493Y-37113D01*
X59493Y-37105D01*
X59606Y-37105D01*
X59606Y-37113D01*
X59857Y-37113D01*
X59918Y-37052D01*
X59918Y-36993D01*
X59918Y-36896D01*
X59900Y-36852D01*
X60103Y-36852D01*
X60193Y-36815D01*
X60261Y-36747D01*
X60298Y-36657D01*
X60298Y-36561D01*
X60298Y-36490D01*
X60238Y-36429D01*
X59836Y-36429D01*
X59836Y-36437D01*
X59723Y-36437D01*
X59723Y-36429D01*
X59715Y-36429D01*
X59715Y-36316D01*
X59723Y-36316D01*
X59723Y-36308D01*
X59836Y-36308D01*
X59836Y-36316D01*
X60238Y-36316D01*
X60298Y-36255D01*
X60298Y-36185D01*
X60298Y-36088D01*
X60261Y-35998D01*
X60202Y-35940D01*
X60253Y-35888D01*
X60293Y-35984D01*
X60395Y-36086D01*
X60527Y-36141D01*
X60671Y-36141D01*
X60804Y-36086D01*
X60906Y-35984D01*
X60961Y-35852D01*
X60961Y-35708D01*
X60906Y-35575D01*
X60902Y-35571D01*
X60902Y-35525D01*
X60879Y-35409D01*
X60814Y-35311D01*
X60821Y-35304D01*
X60876Y-35172D01*
X60876Y-35163D01*
X60981Y-35269D01*
X60981Y-35288D01*
X61018Y-35377D01*
X61080Y-35440D01*
X61018Y-35502D01*
X60981Y-35591D01*
X60981Y-35697D01*
X61042Y-35758D01*
X61443Y-35758D01*
X61443Y-35750D01*
X61556Y-35750D01*
X61556Y-35758D01*
X61957Y-35758D01*
X62018Y-35697D01*
X62018Y-35591D01*
X61981Y-35502D01*
X61919Y-35439D01*
X61981Y-35378D01*
X62018Y-35288D01*
X62018Y-35191D01*
X62018Y-34841D01*
X61981Y-34752D01*
X61913Y-34683D01*
X61823Y-34646D01*
X61726Y-34646D01*
X61214Y-34646D01*
X61111Y-34543D01*
X61111Y-34324D01*
X61111Y-34322D01*
X61160Y-34322D01*
X61160Y-34261D01*
X61221Y-34322D01*
X61205Y-34322D01*
X61302Y-34322D01*
X61392Y-34285D01*
X61460Y-34216D01*
X61497Y-34127D01*
X61497Y-34114D01*
X61436Y-34054D01*
X61426Y-34054D01*
X61460Y-34019D01*
X61488Y-33952D01*
X61497Y-33943D01*
X61497Y-33930D01*
X61497Y-33930D01*
X61497Y-33930D01*
X61497Y-33917D01*
X61488Y-33908D01*
X61460Y-33841D01*
X61451Y-33832D01*
X61460Y-33823D01*
X61488Y-33755D01*
X61497Y-33746D01*
X61497Y-33740D01*
X61817Y-33740D01*
X61932Y-33717D01*
X61932Y-33717D01*
X61934Y-33716D01*
X61934Y-33716D01*
X61971Y-33716D01*
X62104Y-33661D01*
X62206Y-33559D01*
X62261Y-33427D01*
X62261Y-33283D01*
X62206Y-33150D01*
X62206Y-33150D01*
X62697Y-33150D01*
X62697Y-33262D01*
X62698Y-33263D01*
X62697Y-33264D01*
X62697Y-33291D01*
X62717Y-33311D01*
X62734Y-33352D01*
X62773Y-33391D01*
X62697Y-33463D01*
X62697Y-33491D01*
X62697Y-33492D01*
X62697Y-33463D01*
X62661Y-33497D01*
X62597Y-33630D01*
X62644Y-33699D01*
X62857Y-33699D01*
X62892Y-33713D01*
X63089Y-33713D01*
X63111Y-33691D01*
X63135Y-33691D01*
X63135Y-33699D01*
X63309Y-33699D01*
X63324Y-33713D01*
X63520Y-33713D01*
X63610Y-33676D01*
X63678Y-33608D01*
X63684Y-33593D01*
X63748Y-33657D01*
X63837Y-33694D01*
X64142Y-33694D01*
X64203Y-33633D01*
X64203Y-32936D01*
X64195Y-32936D01*
X64195Y-32823D01*
X64203Y-32823D01*
X64203Y-32126D01*
X64142Y-32065D01*
X63982Y-32065D01*
X63982Y-31860D01*
X63974Y-31822D01*
X64142Y-31822D01*
X64203Y-31761D01*
X64203Y-31326D01*
X64203Y-31213D01*
X64203Y-30778D01*
X64142Y-30717D01*
X63837Y-30717D01*
X63748Y-30754D01*
X63679Y-30822D01*
X63642Y-30912D01*
X63642Y-31008D01*
X63642Y-31152D01*
X63703Y-31213D01*
X64203Y-31213D01*
X64203Y-31326D01*
X63703Y-31326D01*
X63642Y-31387D01*
X63642Y-31395D01*
X63628Y-31381D01*
X63530Y-31315D01*
X63415Y-31292D01*
X62466Y-31292D01*
X62466Y-31129D01*
X62429Y-31040D01*
X62361Y-30971D01*
X62271Y-30934D01*
X62174Y-30934D01*
X61898Y-30934D01*
X61897Y-30935D01*
X61896Y-30934D01*
X61827Y-30934D01*
X61766Y-30995D01*
X61766Y-31014D01*
X61740Y-31039D01*
X61709Y-31114D01*
X61679Y-31040D01*
X61653Y-31014D01*
X61653Y-30995D01*
X61592Y-30934D01*
X61523Y-30934D01*
X61522Y-30935D01*
X61521Y-30934D01*
X61424Y-30934D01*
X61181Y-30934D01*
X61202Y-30830D01*
X61202Y-30830D01*
X61202Y-30815D01*
X61245Y-30815D01*
X61521Y-30815D01*
X61522Y-30814D01*
X61523Y-30815D01*
X61620Y-30815D01*
X61896Y-30815D01*
X61897Y-30814D01*
X61898Y-30815D01*
X61995Y-30815D01*
X62271Y-30815D01*
X62360Y-30778D01*
X62429Y-30710D01*
X62466Y-30620D01*
X62466Y-30523D01*
X62466Y-30129D01*
X62429Y-30040D01*
X62361Y-29971D01*
X62271Y-29934D01*
X62174Y-29934D01*
X62070Y-29934D01*
X62105Y-29850D01*
X62105Y-29690D01*
X62044Y-29543D01*
X61932Y-29430D01*
X61785Y-29369D01*
X61722Y-29369D01*
X61722Y-28712D01*
X61727Y-28710D01*
X61880Y-28557D01*
X61919Y-28462D01*
X61958Y-28556D01*
X62111Y-28709D01*
X62311Y-28792D01*
X62527Y-28793D01*
X62727Y-28710D01*
X62880Y-28557D01*
X62919Y-28462D01*
X62958Y-28556D01*
X63111Y-28709D01*
X63311Y-28792D01*
X63527Y-28793D01*
X63727Y-28710D01*
X63880Y-28557D01*
X63962Y-28358D01*
X63963Y-28172D01*
X64221Y-28172D01*
X64562Y-28513D01*
X64562Y-30717D01*
X64377Y-30717D01*
X64316Y-30778D01*
X64316Y-31213D01*
X64324Y-31213D01*
X64324Y-31326D01*
X64316Y-31326D01*
X64316Y-31761D01*
X64377Y-31822D01*
X64562Y-31822D01*
X64562Y-32065D01*
X64377Y-32065D01*
X64316Y-32126D01*
X64316Y-32823D01*
X64324Y-32823D01*
X64324Y-32936D01*
X64316Y-32936D01*
X64316Y-33633D01*
X64377Y-33694D01*
X64562Y-33694D01*
X64562Y-33937D01*
X64377Y-33937D01*
X64316Y-33998D01*
X64316Y-34433D01*
X64324Y-34433D01*
X64324Y-34546D01*
X64316Y-34546D01*
X64316Y-34981D01*
X64377Y-35042D01*
X64562Y-35042D01*
X64562Y-35335D01*
X64203Y-35335D01*
X64203Y-34981D01*
X64203Y-34546D01*
X64203Y-34433D01*
X64203Y-33998D01*
X64142Y-33937D01*
X63837Y-33937D01*
X63748Y-33974D01*
X63679Y-34043D01*
X63642Y-34132D01*
X63642Y-34229D01*
X63642Y-34372D01*
X63703Y-34433D01*
X64203Y-34433D01*
X64203Y-34546D01*
X63703Y-34546D01*
X63642Y-34607D01*
X63642Y-34751D01*
X63642Y-34847D01*
X63679Y-34937D01*
X63748Y-35005D01*
X63837Y-35042D01*
X64142Y-35042D01*
X64203Y-34981D01*
X64203Y-35335D01*
X64098Y-35335D01*
X64009Y-35372D01*
X63969Y-35411D01*
X63931Y-35372D01*
X63841Y-35335D01*
X63744Y-35335D01*
X63560Y-35335D01*
X63560Y-33881D01*
X63513Y-33812D01*
X63135Y-33812D01*
X63135Y-34144D01*
X63205Y-34198D01*
X63369Y-34135D01*
X63496Y-34014D01*
X63560Y-33881D01*
X63560Y-35335D01*
X63272Y-35335D01*
X63183Y-35372D01*
X63114Y-35440D01*
X63085Y-35512D01*
X63022Y-35512D01*
X63022Y-34144D01*
X63022Y-33812D01*
X62644Y-33812D01*
X62597Y-33881D01*
X62661Y-34014D01*
X62788Y-34135D01*
X62951Y-34198D01*
X63022Y-34144D01*
X63022Y-35512D01*
X62785Y-35512D01*
X62669Y-35535D01*
X62571Y-35601D01*
X62441Y-35731D01*
X62375Y-35829D01*
X62352Y-35945D01*
X62352Y-36105D01*
X62291Y-36166D01*
X62254Y-36256D01*
X62254Y-36353D01*
X62254Y-36747D01*
X62291Y-36836D01*
X62359Y-36905D01*
X62413Y-36927D01*
X62389Y-36927D01*
X62074Y-36927D01*
X62018Y-36950D01*
X62018Y-36038D01*
X62018Y-35932D01*
X61957Y-35871D01*
X61556Y-35871D01*
X61556Y-36172D01*
X61617Y-36233D01*
X61726Y-36233D01*
X61823Y-36233D01*
X61913Y-36196D01*
X61981Y-36127D01*
X62018Y-36038D01*
X62018Y-36950D01*
X61984Y-36964D01*
X61916Y-37032D01*
X61879Y-37122D01*
X61879Y-37219D01*
X61879Y-37377D01*
X61852Y-37350D01*
X61705Y-37289D01*
X61545Y-37289D01*
X61443Y-37331D01*
X61443Y-36172D01*
X61443Y-35871D01*
X61042Y-35871D01*
X60981Y-35932D01*
X60981Y-36038D01*
X61018Y-36127D01*
X61086Y-36196D01*
X61176Y-36233D01*
X61273Y-36233D01*
X61382Y-36233D01*
X61443Y-36172D01*
X61443Y-37331D01*
X61398Y-37350D01*
X61285Y-37462D01*
X61224Y-37609D01*
X61224Y-37769D01*
X61285Y-37916D01*
X61354Y-37986D01*
X61341Y-38016D01*
X61341Y-38113D01*
X61341Y-38663D01*
X61344Y-38670D01*
X61142Y-38872D01*
X61125Y-38896D01*
X61046Y-38896D01*
X60957Y-38933D01*
X60888Y-39001D01*
X60851Y-39091D01*
X60851Y-39188D01*
X60851Y-39538D01*
X60888Y-39627D01*
X60950Y-39690D01*
X60888Y-39751D01*
X60851Y-39841D01*
X60851Y-39938D01*
X60851Y-40288D01*
X60888Y-40377D01*
X60956Y-40446D01*
X61046Y-40483D01*
X61143Y-40483D01*
X61693Y-40483D01*
X61782Y-40446D01*
X61842Y-40387D01*
X61929Y-40387D01*
X61930Y-40390D01*
X61998Y-40459D01*
X62088Y-40496D01*
X62185Y-40496D01*
X62815Y-40496D01*
X62904Y-40459D01*
X62973Y-40391D01*
X63010Y-40301D01*
X63010Y-40204D01*
X63010Y-39338D01*
X62973Y-39249D01*
X62905Y-39180D01*
X62815Y-39143D01*
X62718Y-39143D01*
X62088Y-39143D01*
X61999Y-39180D01*
X61930Y-39248D01*
X61893Y-39338D01*
X61893Y-39435D01*
X61893Y-39742D01*
X61841Y-39742D01*
X61789Y-39689D01*
X61851Y-39628D01*
X61888Y-39538D01*
X61888Y-39441D01*
X61888Y-39091D01*
X61872Y-39053D01*
X61987Y-38937D01*
X61987Y-38937D01*
X62015Y-38895D01*
X62057Y-38833D01*
X62057Y-38833D01*
X62058Y-38827D01*
X62072Y-38821D01*
X62135Y-38759D01*
X62196Y-38821D01*
X62286Y-38858D01*
X62383Y-38858D01*
X62733Y-38858D01*
X62822Y-38821D01*
X62891Y-38753D01*
X62928Y-38663D01*
X62928Y-38642D01*
X63021Y-38642D01*
X63021Y-38648D01*
X63058Y-38737D01*
X63126Y-38806D01*
X63216Y-38843D01*
X63313Y-38843D01*
X63663Y-38843D01*
X63752Y-38806D01*
X63815Y-38744D01*
X63877Y-38806D01*
X63966Y-38843D01*
X64072Y-38843D01*
X64133Y-38782D01*
X64133Y-38381D01*
X64125Y-38381D01*
X64125Y-38268D01*
X64133Y-38268D01*
X64133Y-38260D01*
X64246Y-38260D01*
X64246Y-38268D01*
X64254Y-38268D01*
X64254Y-38381D01*
X64246Y-38381D01*
X64246Y-38782D01*
X64307Y-38843D01*
X64413Y-38843D01*
X64502Y-38806D01*
X64562Y-38746D01*
X64562Y-39628D01*
G54D10*
G36*
X64562Y-44995D02*
X64536Y-44969D01*
X64447Y-44932D01*
X64350Y-44932D01*
X63958Y-44932D01*
X63958Y-43697D01*
X63958Y-43371D01*
X63958Y-43258D01*
X63958Y-42932D01*
X63897Y-42871D01*
X63663Y-42871D01*
X63566Y-42871D01*
X63476Y-42908D01*
X63408Y-42977D01*
X63371Y-43066D01*
X63371Y-43197D01*
X63432Y-43258D01*
X63958Y-43258D01*
X63958Y-43371D01*
X63432Y-43371D01*
X63371Y-43432D01*
X63371Y-43563D01*
X63408Y-43652D01*
X63476Y-43721D01*
X63566Y-43758D01*
X63663Y-43758D01*
X63897Y-43758D01*
X63958Y-43697D01*
X63958Y-44932D01*
X63090Y-44932D01*
X63001Y-44969D01*
X62932Y-45037D01*
X62919Y-45070D01*
X62778Y-45070D01*
X62778Y-44701D01*
X62778Y-44348D01*
X62778Y-44251D01*
X62741Y-44161D01*
X62672Y-44093D01*
X62583Y-44056D01*
X62527Y-44056D01*
X62466Y-44117D01*
X62466Y-44468D01*
X62717Y-44468D01*
X62778Y-44407D01*
X62778Y-44348D01*
X62778Y-44701D01*
X62778Y-44642D01*
X62717Y-44581D01*
X62466Y-44581D01*
X62466Y-44932D01*
X62527Y-44993D01*
X62583Y-44993D01*
X62672Y-44956D01*
X62741Y-44888D01*
X62778Y-44798D01*
X62778Y-44701D01*
X62778Y-45070D01*
X61941Y-45070D01*
X61927Y-45038D01*
X61883Y-44993D01*
X61983Y-44993D01*
X62072Y-44956D01*
X62110Y-44919D01*
X62147Y-44956D01*
X62236Y-44993D01*
X62292Y-44993D01*
X62353Y-44932D01*
X62353Y-44581D01*
X62345Y-44581D01*
X62345Y-44468D01*
X62353Y-44468D01*
X62353Y-44117D01*
X62292Y-44056D01*
X62236Y-44056D01*
X62147Y-44093D01*
X62109Y-44130D01*
X62073Y-44093D01*
X61983Y-44056D01*
X61886Y-44056D01*
X61800Y-44056D01*
X61899Y-43957D01*
X61958Y-43814D01*
X62491Y-43281D01*
X62491Y-43281D01*
X62491Y-43281D01*
X62565Y-43170D01*
X62565Y-43170D01*
X62591Y-43040D01*
X62591Y-42421D01*
X62599Y-42414D01*
X62599Y-42549D01*
X62660Y-42696D01*
X62772Y-42809D01*
X62919Y-42870D01*
X63079Y-42870D01*
X63226Y-42809D01*
X63280Y-42756D01*
X63412Y-42756D01*
X63476Y-42821D01*
X63566Y-42858D01*
X63663Y-42858D01*
X64463Y-42858D01*
X64552Y-42821D01*
X64562Y-42811D01*
X64562Y-42918D01*
X64553Y-42908D01*
X64463Y-42871D01*
X64366Y-42871D01*
X64132Y-42871D01*
X64071Y-42932D01*
X64071Y-43258D01*
X64079Y-43258D01*
X64079Y-43371D01*
X64071Y-43371D01*
X64071Y-43697D01*
X64132Y-43758D01*
X64366Y-43758D01*
X64463Y-43758D01*
X64553Y-43721D01*
X64562Y-43711D01*
X64562Y-44995D01*
X64562Y-44995D01*
G37*
G54D44*
X64562Y-44995D02*
X64536Y-44969D01*
X64447Y-44932D01*
X64350Y-44932D01*
X63958Y-44932D01*
X63958Y-43697D01*
X63958Y-43371D01*
X63958Y-43258D01*
X63958Y-42932D01*
X63897Y-42871D01*
X63663Y-42871D01*
X63566Y-42871D01*
X63476Y-42908D01*
X63408Y-42977D01*
X63371Y-43066D01*
X63371Y-43197D01*
X63432Y-43258D01*
X63958Y-43258D01*
X63958Y-43371D01*
X63432Y-43371D01*
X63371Y-43432D01*
X63371Y-43563D01*
X63408Y-43652D01*
X63476Y-43721D01*
X63566Y-43758D01*
X63663Y-43758D01*
X63897Y-43758D01*
X63958Y-43697D01*
X63958Y-44932D01*
X63090Y-44932D01*
X63001Y-44969D01*
X62932Y-45037D01*
X62919Y-45070D01*
X62778Y-45070D01*
X62778Y-44701D01*
X62778Y-44348D01*
X62778Y-44251D01*
X62741Y-44161D01*
X62672Y-44093D01*
X62583Y-44056D01*
X62527Y-44056D01*
X62466Y-44117D01*
X62466Y-44468D01*
X62717Y-44468D01*
X62778Y-44407D01*
X62778Y-44348D01*
X62778Y-44701D01*
X62778Y-44642D01*
X62717Y-44581D01*
X62466Y-44581D01*
X62466Y-44932D01*
X62527Y-44993D01*
X62583Y-44993D01*
X62672Y-44956D01*
X62741Y-44888D01*
X62778Y-44798D01*
X62778Y-44701D01*
X62778Y-45070D01*
X61941Y-45070D01*
X61927Y-45038D01*
X61883Y-44993D01*
X61983Y-44993D01*
X62072Y-44956D01*
X62110Y-44919D01*
X62147Y-44956D01*
X62236Y-44993D01*
X62292Y-44993D01*
X62353Y-44932D01*
X62353Y-44581D01*
X62345Y-44581D01*
X62345Y-44468D01*
X62353Y-44468D01*
X62353Y-44117D01*
X62292Y-44056D01*
X62236Y-44056D01*
X62147Y-44093D01*
X62109Y-44130D01*
X62073Y-44093D01*
X61983Y-44056D01*
X61886Y-44056D01*
X61800Y-44056D01*
X61899Y-43957D01*
X61958Y-43814D01*
X62491Y-43281D01*
X62491Y-43281D01*
X62491Y-43281D01*
X62565Y-43170D01*
X62565Y-43170D01*
X62591Y-43040D01*
X62591Y-42421D01*
X62599Y-42414D01*
X62599Y-42549D01*
X62660Y-42696D01*
X62772Y-42809D01*
X62919Y-42870D01*
X63079Y-42870D01*
X63226Y-42809D01*
X63280Y-42756D01*
X63412Y-42756D01*
X63476Y-42821D01*
X63566Y-42858D01*
X63663Y-42858D01*
X64463Y-42858D01*
X64552Y-42821D01*
X64562Y-42811D01*
X64562Y-42918D01*
X64553Y-42908D01*
X64463Y-42871D01*
X64366Y-42871D01*
X64132Y-42871D01*
X64071Y-42932D01*
X64071Y-43258D01*
X64079Y-43258D01*
X64079Y-43371D01*
X64071Y-43371D01*
X64071Y-43697D01*
X64132Y-43758D01*
X64366Y-43758D01*
X64463Y-43758D01*
X64553Y-43721D01*
X64562Y-43711D01*
X64562Y-44995D01*
G54D10*
G36*
X64562Y-46570D02*
X64536Y-46544D01*
X64446Y-46507D01*
X63886Y-46507D01*
X63825Y-46568D01*
X63825Y-46890D01*
X63833Y-46890D01*
X63833Y-47004D01*
X63825Y-47004D01*
X63825Y-47011D01*
X63711Y-47011D01*
X63711Y-47004D01*
X63711Y-46890D01*
X63711Y-46568D01*
X63651Y-46507D01*
X63090Y-46507D01*
X63001Y-46544D01*
X62932Y-46612D01*
X62895Y-46701D01*
X62895Y-46798D01*
X62895Y-46829D01*
X62956Y-46890D01*
X63711Y-46890D01*
X63711Y-47004D01*
X62956Y-47004D01*
X62895Y-47064D01*
X62895Y-47096D01*
X62895Y-47192D01*
X62932Y-47282D01*
X62967Y-47317D01*
X61892Y-47317D01*
X61927Y-47282D01*
X61964Y-47192D01*
X61964Y-47096D01*
X61964Y-46798D01*
X61964Y-46701D01*
X61927Y-46612D01*
X61858Y-46544D01*
X61769Y-46507D01*
X61208Y-46507D01*
X61148Y-46568D01*
X61148Y-46890D01*
X61903Y-46890D01*
X61964Y-46829D01*
X61964Y-46798D01*
X61964Y-47096D01*
X61964Y-47064D01*
X61903Y-47004D01*
X61148Y-47004D01*
X61148Y-47011D01*
X61034Y-47011D01*
X61034Y-47004D01*
X61034Y-46890D01*
X61034Y-46568D01*
X60973Y-46507D01*
X60413Y-46507D01*
X60323Y-46544D01*
X60255Y-46612D01*
X60218Y-46701D01*
X60218Y-46798D01*
X60218Y-46829D01*
X60279Y-46890D01*
X61034Y-46890D01*
X61034Y-47004D01*
X60279Y-47004D01*
X60218Y-47064D01*
X60218Y-47096D01*
X60218Y-47192D01*
X60255Y-47282D01*
X60290Y-47317D01*
X59963Y-47317D01*
X59963Y-46901D01*
X59926Y-46811D01*
X59857Y-46743D01*
X59768Y-46706D01*
X59731Y-46706D01*
X59880Y-46557D01*
X59962Y-46358D01*
X59963Y-46142D01*
X59880Y-45942D01*
X59727Y-45789D01*
X59722Y-45786D01*
X59722Y-45713D01*
X59740Y-45756D01*
X59852Y-45869D01*
X59999Y-45930D01*
X60159Y-45930D01*
X60306Y-45869D01*
X60378Y-45798D01*
X60412Y-45812D01*
X60509Y-45812D01*
X61769Y-45812D01*
X61858Y-45775D01*
X61927Y-45707D01*
X61940Y-45674D01*
X62918Y-45674D01*
X62932Y-45707D01*
X63000Y-45775D01*
X63090Y-45812D01*
X63186Y-45812D01*
X64446Y-45812D01*
X64536Y-45775D01*
X64562Y-45749D01*
X64562Y-46570D01*
X64562Y-46570D01*
G37*
G54D44*
X64562Y-46570D02*
X64536Y-46544D01*
X64446Y-46507D01*
X63886Y-46507D01*
X63825Y-46568D01*
X63825Y-46890D01*
X63833Y-46890D01*
X63833Y-47004D01*
X63825Y-47004D01*
X63825Y-47011D01*
X63711Y-47011D01*
X63711Y-47004D01*
X63711Y-46890D01*
X63711Y-46568D01*
X63651Y-46507D01*
X63090Y-46507D01*
X63001Y-46544D01*
X62932Y-46612D01*
X62895Y-46701D01*
X62895Y-46798D01*
X62895Y-46829D01*
X62956Y-46890D01*
X63711Y-46890D01*
X63711Y-47004D01*
X62956Y-47004D01*
X62895Y-47064D01*
X62895Y-47096D01*
X62895Y-47192D01*
X62932Y-47282D01*
X62967Y-47317D01*
X61892Y-47317D01*
X61927Y-47282D01*
X61964Y-47192D01*
X61964Y-47096D01*
X61964Y-46798D01*
X61964Y-46701D01*
X61927Y-46612D01*
X61858Y-46544D01*
X61769Y-46507D01*
X61208Y-46507D01*
X61148Y-46568D01*
X61148Y-46890D01*
X61903Y-46890D01*
X61964Y-46829D01*
X61964Y-46798D01*
X61964Y-47096D01*
X61964Y-47064D01*
X61903Y-47004D01*
X61148Y-47004D01*
X61148Y-47011D01*
X61034Y-47011D01*
X61034Y-47004D01*
X61034Y-46890D01*
X61034Y-46568D01*
X60973Y-46507D01*
X60413Y-46507D01*
X60323Y-46544D01*
X60255Y-46612D01*
X60218Y-46701D01*
X60218Y-46798D01*
X60218Y-46829D01*
X60279Y-46890D01*
X61034Y-46890D01*
X61034Y-47004D01*
X60279Y-47004D01*
X60218Y-47064D01*
X60218Y-47096D01*
X60218Y-47192D01*
X60255Y-47282D01*
X60290Y-47317D01*
X59963Y-47317D01*
X59963Y-46901D01*
X59926Y-46811D01*
X59857Y-46743D01*
X59768Y-46706D01*
X59731Y-46706D01*
X59880Y-46557D01*
X59962Y-46358D01*
X59963Y-46142D01*
X59880Y-45942D01*
X59727Y-45789D01*
X59722Y-45786D01*
X59722Y-45713D01*
X59740Y-45756D01*
X59852Y-45869D01*
X59999Y-45930D01*
X60159Y-45930D01*
X60306Y-45869D01*
X60378Y-45798D01*
X60412Y-45812D01*
X60509Y-45812D01*
X61769Y-45812D01*
X61858Y-45775D01*
X61927Y-45707D01*
X61940Y-45674D01*
X62918Y-45674D01*
X62932Y-45707D01*
X63000Y-45775D01*
X63090Y-45812D01*
X63186Y-45812D01*
X64446Y-45812D01*
X64536Y-45775D01*
X64562Y-45749D01*
X64562Y-46570D01*
M02*
