M48
;DRILL file {KiCad 4.0.0-rc1-stable} date 08/11/2015 16:00:59
;FORMAT={-:-/ absolute / metric / decimal}
FMAT,2
METRIC,TZ
T1C0.300
T2C0.400
T3C0.650
T4C0.830
T5C0.850
T6C1.016
T7C3.000
%
G90
G05
M71
T1
X121.148Y-83.17
X121.229Y-85.994
X121.234Y-116.733
X121.26Y-97.231
X121.402Y-111.12
X121.483Y-113.523
X121.595Y-106.035
X121.707Y-94.803
X121.707Y-109.108
X121.778Y-87.437
X122.128Y-104.104
X122.321Y-118.577
X122.469Y-81.402
X123.048Y-108.798
X123.134Y-107.01
X123.302Y-112.461
X124.14Y-97.318
X124.165Y-94.747
X124.257Y-87.031
X124.612Y-118.745
X125.273Y-81.26
X125.395Y-113.213
X126.401Y-94.717
X126.634Y-85.832
X126.822Y-116.957
X127.142Y-81.91
X127.239Y-97.175
X127.345Y-83.779
X127.351Y-114.666
X127.406Y-118.943
X127.853Y-88.941
X127.914Y-94.59
X128.219Y-112.126
X128.808Y-88.88
X129.154Y-97.841
X129.56Y-101.661
X129.987Y-103.591
X130.647Y-99.466
X131.237Y-118.857
X133.274Y-87.005
X133.279Y-110.053
X135.352Y-88.981
X135.428Y-118.913
X138.09Y-107.046
X138.699Y-110.764
X138.699Y-112.806
X139.197Y-98.049
X139.7Y-118.943
X143.134Y-88.057
X143.363Y-103.297
X143.53Y-111.435
X144.338Y-95.89
X144.46Y-107.396
X144.841Y-118.969
X144.902Y-97.307
X144.943Y-104.343
X145.059Y-112.39
X145.1Y-95.265
X145.649Y-97.912
X145.689Y-94.346
X146.192Y-94.849
X146.467Y-96.708
X146.639Y-112.791
X147.472Y-93.416
X147.95Y-92.847
X148.194Y-91.765
X148.3Y-96.484
X148.534Y-100.173
X149.118Y-118.999
X149.758Y-80.98
X149.926Y-101.178
X150.17Y-114.198
X150.571Y-101.575
X151.303Y-92.812
X151.348Y-100.127
X151.826Y-95.418
X152.009Y-92.105
X152.08Y-118.999
X152.146Y-96.058
X152.466Y-80.98
X152.705Y-99.487
X152.964Y-100.345
X153.04Y-91.806
X153.208Y-88.082
X153.345Y-102.758
X153.355Y-88.971
X153.619Y-98.105
X153.904Y-91.638
X153.965Y-96.027
X154.015Y-88.402
X154.579Y-95.433
X154.645Y-97.724
X154.747Y-91.638
X154.935Y-80.996
X155.067Y-119.08
X155.367Y-97.069
X155.372Y-100.152
X155.804Y-88.174
X155.986Y-97.577
X156.068Y-96.418
X156.119Y-102.799
X156.205Y-100.35
X156.571Y-87.762
X156.881Y-97.551
X156.982Y-100.34
X157.541Y-81.051
X158.125Y-87.747
X158.206Y-102.733
X158.283Y-119.055
X158.892Y-93.985
X159.009Y-103.419
X159.04Y-87.762
X159.177Y-98.09
X159.288Y-92.522
X159.415Y-88.676
X159.426Y-91.633
X159.451Y-96.891
X159.898Y-97.622
X159.939Y-94.96
X159.939Y-95.783
X160.05Y-80.94
X160.05Y-93.208
X160.066Y-94.071
X160.101Y-99.817
X160.645Y-108.854
X160.675Y-106.086
X160.777Y-107.005
X160.934Y-112.105
X161.559Y-108.646
X161.773Y-118.948
X161.971Y-90.038
X162.54Y-88.555
X162.641Y-80.955
X162.809Y-114.92
X163.088Y-110.053
X163.246Y-112.761
X164.485Y-89.383
X164.79Y-97.506
X165.506Y-86.045
X165.654Y-90.216
X165.71Y-81.158
X165.933Y-87.889
X166.111Y-88.661
X166.238Y-97.475
X166.502Y-83.84
X166.69Y-99.512
X167.173Y-96.784
X167.35Y-85.603
X167.843Y-95.931
X168.112Y-105.583
X168.245Y-104.821
X168.387Y-104.038
X168.493Y-103.312
X168.6Y-106.101
X168.702Y-96.027
X168.778Y-106.787
X168.813Y-107.579
X169.042Y-102.667
X169.21Y-85.054
X169.286Y-85.852
X169.327Y-81.016
X169.723Y-102.332
X169.88Y-86.548
X169.967Y-108.494
X170.21Y-82.286
X170.754Y-87.335
X171.069Y-119.024
X171.466Y-104.37
X171.47Y-81.194
X171.521Y-105.994
X171.557Y-85.146
X171.684Y-97.739
X171.846Y-98.897
X172.105Y-85.877
X172.176Y-100.899
X172.278Y-115.255
X172.344Y-105.156
X172.38Y-95.22
X173.004Y-101.036
X173.05Y-91.73
X173.191Y-106.095
X173.314Y-101.732
X173.416Y-95.28
X174.158Y-101.803
X174.666Y-91.791
X175.062Y-102.128
X175.666Y-91.785
X175.773Y-102.453
X175.956Y-104.734
X176.017Y-105.827
X176.078Y-81.336
X176.149Y-106.929
X176.327Y-118.948
X176.601Y-108.219
X177.495Y-114.91
X177.866Y-81.336
X177.897Y-91.897
X177.922Y-90.993
X178.145Y-98.125
X178.445Y-85.832
X178.659Y-105.278
X179.009Y-104.018
X179.629Y-85.832
X179.654Y-84.577
X179.695Y-105.263
X180.076Y-82.926
X180.177Y-97.252
X180.238Y-92.293
X180.67Y-118.872
X180.787Y-116.738
X182.281Y-81.641
X182.367Y-85.303
X182.702Y-83.596
X183.413Y-115.255
X183.642Y-117.922
X184.607Y-102.067
X184.795Y-88.235
X185.664Y-86.868
X186.03Y-101.803
X187.035Y-118.608
X187.589Y-81.473
X187.818Y-94.244
X187.871Y-104.857
X187.909Y-107.046
X188.204Y-112.39
X188.316Y-87.203
X188.595Y-117.693
X188.625Y-82.926
X188.707Y-89.997
X188.824Y-116.129
X188.849Y-98.938
X188.93Y-95.026
T2
X125.44Y-100.31
X128.138Y-107.33
X131.628Y-87.986
X132.568Y-108.57
X132.603Y-89.047
X133.259Y-97.942
X134.005Y-107.655
X134.036Y-86.136
X135.148Y-98.044
X136.139Y-86.116
X136.154Y-112.766
X136.474Y-103.906
X136.489Y-102.027
X136.52Y-88.834
X137.262Y-97.988
X138.054Y-100.808
X138.542Y-89.042
X139.802Y-88.697
X140.559Y-101.849
X140.594Y-98.014
X143.053Y-84.531
X145.623Y-112.939
X146.588Y-85.689
X148.681Y-98.308
X150.861Y-89.474
X152.217Y-88.118
X152.603Y-95.377
X154.65Y-92.812
X159.288Y-93.304
X161.529Y-110.673
X162.992Y-90.084
X163.2Y-107.909
X163.769Y-94.178
X167.777Y-108.783
X168.996Y-96.835
X169.393Y-89.992
X170.261Y-95.443
X172.573Y-109.921
X173.375Y-108.717
X173.858Y-100.081
X174.061Y-98.755
X175.26Y-98.328
X181.143Y-102.001
X181.915Y-110.465
X181.966Y-97.008
X182.27Y-98.389
X183.119Y-95.839
X183.347Y-102.352
X183.383Y-97.897
X184.871Y-100.721
X185.486Y-94.137
T5
X122.665Y-96.252
X125.665Y-96.252
T6
X125.349Y-105.156
X125.349Y-107.696
X125.349Y-110.236
X129.413Y-117.043
X131.953Y-117.043
X134.493Y-117.043
X137.033Y-117.043
X139.573Y-117.043
X142.113Y-117.043
X145.623Y-117.013
X148.163Y-117.013
X148.585Y-82.453
X148.585Y-84.993
X150.703Y-117.013
X151.125Y-82.453
X151.125Y-84.993
X153.243Y-117.013
X153.665Y-82.453
X153.665Y-84.993
X155.783Y-117.013
X156.205Y-82.453
X156.205Y-84.993
X158.323Y-117.013
X158.745Y-82.453
X158.745Y-84.993
X160.863Y-117.013
X161.285Y-82.453
X161.285Y-84.993
X163.403Y-117.013
X163.825Y-82.453
X163.825Y-84.993
X165.943Y-117.013
X168.483Y-117.013
X171.023Y-117.013
X172.725Y-83.485
X173.563Y-117.013
X175.265Y-83.485
X176.103Y-117.013
X177.805Y-83.485
X178.643Y-117.013
T7
X124.Y-84.
X124.Y-116.
X186.Y-84.
X186.Y-116.
T3
X184.971Y-103.782G85X184.771Y-103.782
G05
X184.971Y-108.232G85X184.771Y-108.232
G05
T4
X188.386Y-101.917G85X187.716Y-101.917
G05
X188.386Y-110.097G85X187.716Y-110.097
G05
T0
M30
