G04 #@! TF.FileFunction,Soldermask,Bot*
%FSLAX46Y46*%
G04 Gerber Fmt 4.6, Leading zero omitted, Abs format (unit mm)*
G04 Created by KiCad (PCBNEW 4.0.0-rc1-stable) date 08/11/2015 16:00:56*
%MOMM*%
G01*
G04 APERTURE LIST*
%ADD10C,0.100000*%
%ADD11R,1.650000X1.900000*%
%ADD12R,1.900000X1.650000*%
%ADD13R,1.600000X1.150000*%
%ADD14R,2.127200X2.432000*%
%ADD15O,2.127200X2.432000*%
%ADD16R,1.600000X1.300000*%
%ADD17C,1.250000*%
%ADD18R,1.300000X1.600000*%
%ADD19R,2.600000X1.200000*%
%ADD20R,2.300000X2.500000*%
%ADD21O,1.700000X1.450000*%
%ADD22R,1.100000X0.650000*%
%ADD23R,1.300000X1.900000*%
%ADD24R,1.200000X3.900000*%
%ADD25R,2.400000X2.100000*%
%ADD26R,2.150000X1.900000*%
%ADD27R,2.200000X2.150000*%
%ADD28R,1.900000X2.150000*%
%ADD29R,2.127200X2.127200*%
%ADD30O,2.127200X2.127200*%
%ADD31C,3.400000*%
%ADD32R,2.432000X2.127200*%
%ADD33O,2.432000X2.127200*%
G04 APERTURE END LIST*
D10*
D11*
X181554120Y-91175520D03*
X181554120Y-93675520D03*
D12*
X176448400Y-88905080D03*
X178948400Y-88905080D03*
D13*
X163984900Y-106641900D03*
X165884900Y-106641900D03*
X164050000Y-105000000D03*
X165950000Y-105000000D03*
D14*
X142113000Y-117043200D03*
D15*
X139573000Y-117043200D03*
X137033000Y-117043200D03*
X134493000Y-117043200D03*
X131953000Y-117043200D03*
X129413000Y-117043200D03*
D16*
X146540040Y-114223800D03*
X148740040Y-114223800D03*
D17*
X125665360Y-96251720D03*
X122665360Y-96251720D03*
D18*
X156032200Y-93444240D03*
X156032200Y-91244240D03*
X157698440Y-91254400D03*
X157698440Y-93454400D03*
D19*
X174376080Y-93746120D03*
X174376080Y-90546120D03*
D18*
X161498280Y-107322800D03*
X161498280Y-105122800D03*
D20*
X188051100Y-109696900D03*
X188051100Y-102316900D03*
D21*
X184871100Y-108231900D03*
X184871100Y-103781900D03*
D14*
X145623280Y-117012720D03*
D15*
X148163280Y-117012720D03*
X150703280Y-117012720D03*
X153243280Y-117012720D03*
X155783280Y-117012720D03*
X158323280Y-117012720D03*
X160863280Y-117012720D03*
X163403280Y-117012720D03*
X165943280Y-117012720D03*
X168483280Y-117012720D03*
X171023280Y-117012720D03*
X173563280Y-117012720D03*
X176103280Y-117012720D03*
X178643280Y-117012720D03*
D16*
X140891080Y-107375960D03*
X143091080Y-107375960D03*
X143121560Y-109275880D03*
X140921560Y-109275880D03*
D22*
X176841440Y-92090000D03*
X176841440Y-91440000D03*
X176841440Y-90790000D03*
X178941440Y-90790000D03*
X178941440Y-91440000D03*
X178941440Y-92090000D03*
D23*
X177891440Y-91440000D03*
D24*
X139326600Y-83328600D03*
X138226600Y-83328600D03*
X137126600Y-83328600D03*
X136026600Y-83328600D03*
X134926600Y-83328600D03*
X133826600Y-83328600D03*
X132726600Y-83328600D03*
X131626600Y-83328600D03*
D25*
X129876600Y-81328600D03*
X143376600Y-81328600D03*
D26*
X129751600Y-91078600D03*
D27*
X129876600Y-96103600D03*
D28*
X139076600Y-96103600D03*
X136776600Y-96103600D03*
D29*
X148584920Y-84993480D03*
D30*
X148584920Y-82453480D03*
X151124920Y-84993480D03*
X151124920Y-82453480D03*
X153664920Y-84993480D03*
X153664920Y-82453480D03*
X156204920Y-84993480D03*
X156204920Y-82453480D03*
X158744920Y-84993480D03*
X158744920Y-82453480D03*
X161284920Y-84993480D03*
X161284920Y-82453480D03*
X163824920Y-84993480D03*
X163824920Y-82453480D03*
D31*
X124000000Y-84000000D03*
X186000000Y-84000000D03*
X186000000Y-116000000D03*
X124000000Y-116000000D03*
D32*
X125349000Y-110236000D03*
D33*
X125349000Y-107696000D03*
X125349000Y-105156000D03*
D14*
X172725080Y-83484720D03*
D15*
X175265080Y-83484720D03*
X177805080Y-83484720D03*
M02*
