G04 (created by PCBNEW (2013-07-07 BZR 4022)-stable) date 23/05/2015 13:05:33*
%MOIN*%
G04 Gerber Fmt 3.4, Leading zero omitted, Abs format*
%FSLAX34Y34*%
G01*
G70*
G90*
G04 APERTURE LIST*
%ADD10C,0.00590551*%
%ADD11C,0.00984252*%
%ADD12C,0.005*%
%ADD13C,0.0039*%
%ADD14C,0.0043*%
%ADD15C,0.0045*%
G04 APERTURE END LIST*
G54D10*
G54D11*
X60942Y-38400D02*
X60967Y-38473D01*
X60967Y-38595D01*
X60942Y-38643D01*
X60918Y-38668D01*
X60869Y-38692D01*
X60820Y-38692D01*
X60772Y-38668D01*
X60747Y-38643D01*
X60723Y-38595D01*
X60699Y-38497D01*
X60674Y-38448D01*
X60650Y-38424D01*
X60601Y-38400D01*
X60552Y-38400D01*
X60504Y-38424D01*
X60479Y-38448D01*
X60455Y-38497D01*
X60455Y-38619D01*
X60479Y-38692D01*
X60699Y-39082D02*
X60723Y-39155D01*
X60747Y-39180D01*
X60796Y-39204D01*
X60869Y-39204D01*
X60918Y-39180D01*
X60942Y-39155D01*
X60967Y-39106D01*
X60967Y-38911D01*
X60455Y-38911D01*
X60455Y-39082D01*
X60479Y-39131D01*
X60504Y-39155D01*
X60552Y-39180D01*
X60601Y-39180D01*
X60650Y-39155D01*
X60674Y-39131D01*
X60699Y-39082D01*
X60699Y-38911D01*
X60820Y-39399D02*
X60820Y-39643D01*
X60967Y-39350D02*
X60455Y-39521D01*
X60967Y-39691D01*
X60772Y-39862D02*
X60772Y-40252D01*
X60918Y-40788D02*
X60942Y-40764D01*
X60967Y-40691D01*
X60967Y-40642D01*
X60942Y-40569D01*
X60894Y-40520D01*
X60845Y-40496D01*
X60747Y-40471D01*
X60674Y-40471D01*
X60577Y-40496D01*
X60528Y-40520D01*
X60479Y-40569D01*
X60455Y-40642D01*
X60455Y-40691D01*
X60479Y-40764D01*
X60504Y-40788D01*
X60455Y-41105D02*
X60455Y-41202D01*
X60479Y-41251D01*
X60528Y-41300D01*
X60625Y-41324D01*
X60796Y-41324D01*
X60894Y-41300D01*
X60942Y-41251D01*
X60967Y-41202D01*
X60967Y-41105D01*
X60942Y-41056D01*
X60894Y-41007D01*
X60796Y-40983D01*
X60625Y-40983D01*
X60528Y-41007D01*
X60479Y-41056D01*
X60455Y-41105D01*
X60967Y-41544D02*
X60455Y-41544D01*
X60820Y-41714D01*
X60455Y-41885D01*
X60967Y-41885D01*
X60918Y-42421D02*
X60942Y-42397D01*
X60967Y-42324D01*
X60967Y-42275D01*
X60942Y-42202D01*
X60894Y-42153D01*
X60845Y-42129D01*
X60747Y-42104D01*
X60674Y-42104D01*
X60577Y-42129D01*
X60528Y-42153D01*
X60479Y-42202D01*
X60455Y-42275D01*
X60455Y-42324D01*
X60479Y-42397D01*
X60504Y-42421D01*
X60942Y-42835D02*
X60967Y-42787D01*
X60967Y-42689D01*
X60942Y-42640D01*
X60894Y-42616D01*
X60699Y-42616D01*
X60650Y-42640D01*
X60625Y-42689D01*
X60625Y-42787D01*
X60650Y-42835D01*
X60699Y-42860D01*
X60747Y-42860D01*
X60796Y-42616D01*
X60625Y-43079D02*
X60967Y-43079D01*
X60674Y-43079D02*
X60650Y-43103D01*
X60625Y-43152D01*
X60625Y-43225D01*
X60650Y-43274D01*
X60699Y-43298D01*
X60967Y-43298D01*
X60625Y-43469D02*
X60625Y-43664D01*
X60455Y-43542D02*
X60894Y-43542D01*
X60942Y-43567D01*
X60967Y-43615D01*
X60967Y-43664D01*
X60942Y-44030D02*
X60967Y-43981D01*
X60967Y-43883D01*
X60942Y-43835D01*
X60894Y-43810D01*
X60699Y-43810D01*
X60650Y-43835D01*
X60625Y-43883D01*
X60625Y-43981D01*
X60650Y-44030D01*
X60699Y-44054D01*
X60747Y-44054D01*
X60796Y-43810D01*
X60967Y-44273D02*
X60625Y-44273D01*
X60723Y-44273D02*
X60674Y-44298D01*
X60650Y-44322D01*
X60625Y-44371D01*
X60625Y-44420D01*
X60625Y-44931D02*
X60967Y-45053D01*
X60625Y-45175D01*
X60455Y-45468D02*
X60455Y-45516D01*
X60479Y-45565D01*
X60504Y-45589D01*
X60552Y-45614D01*
X60650Y-45638D01*
X60772Y-45638D01*
X60869Y-45614D01*
X60918Y-45589D01*
X60942Y-45565D01*
X60967Y-45516D01*
X60967Y-45468D01*
X60942Y-45419D01*
X60918Y-45394D01*
X60869Y-45370D01*
X60772Y-45346D01*
X60650Y-45346D01*
X60552Y-45370D01*
X60504Y-45394D01*
X60479Y-45419D01*
X60455Y-45468D01*
X60918Y-45858D02*
X60942Y-45882D01*
X60967Y-45858D01*
X60942Y-45833D01*
X60918Y-45858D01*
X60967Y-45858D01*
X60455Y-46199D02*
X60455Y-46247D01*
X60479Y-46296D01*
X60504Y-46321D01*
X60552Y-46345D01*
X60650Y-46369D01*
X60772Y-46369D01*
X60869Y-46345D01*
X60918Y-46321D01*
X60942Y-46296D01*
X60967Y-46247D01*
X60967Y-46199D01*
X60942Y-46150D01*
X60918Y-46126D01*
X60869Y-46101D01*
X60772Y-46077D01*
X60650Y-46077D01*
X60552Y-46101D01*
X60504Y-46126D01*
X60479Y-46150D01*
X60455Y-46199D01*
X62085Y-37803D02*
X62450Y-37803D01*
X62523Y-37778D01*
X62572Y-37729D01*
X62597Y-37656D01*
X62597Y-37608D01*
X62597Y-38266D02*
X62328Y-38266D01*
X62280Y-38241D01*
X62255Y-38193D01*
X62255Y-38095D01*
X62280Y-38046D01*
X62572Y-38266D02*
X62597Y-38217D01*
X62597Y-38095D01*
X62572Y-38046D01*
X62523Y-38022D01*
X62475Y-38022D01*
X62426Y-38046D01*
X62402Y-38095D01*
X62402Y-38217D01*
X62377Y-38266D01*
X62255Y-38461D02*
X62597Y-38582D01*
X62255Y-38704D01*
X62597Y-38899D02*
X62255Y-38899D01*
X62085Y-38899D02*
X62109Y-38875D01*
X62134Y-38899D01*
X62109Y-38924D01*
X62085Y-38899D01*
X62134Y-38899D01*
X62572Y-39338D02*
X62597Y-39289D01*
X62597Y-39192D01*
X62572Y-39143D01*
X62523Y-39119D01*
X62328Y-39119D01*
X62280Y-39143D01*
X62255Y-39192D01*
X62255Y-39289D01*
X62280Y-39338D01*
X62328Y-39362D01*
X62377Y-39362D01*
X62426Y-39119D01*
X62597Y-39582D02*
X62255Y-39582D01*
X62353Y-39582D02*
X62304Y-39606D01*
X62280Y-39630D01*
X62255Y-39679D01*
X62255Y-39728D01*
X62328Y-40459D02*
X62328Y-40289D01*
X62597Y-40289D02*
X62085Y-40289D01*
X62085Y-40532D01*
X62572Y-40922D02*
X62597Y-40873D01*
X62597Y-40776D01*
X62572Y-40727D01*
X62523Y-40703D01*
X62328Y-40703D01*
X62280Y-40727D01*
X62255Y-40776D01*
X62255Y-40873D01*
X62280Y-40922D01*
X62328Y-40947D01*
X62377Y-40947D01*
X62426Y-40703D01*
X62597Y-41166D02*
X62255Y-41166D01*
X62353Y-41166D02*
X62304Y-41190D01*
X62280Y-41215D01*
X62255Y-41263D01*
X62255Y-41312D01*
X62255Y-41483D02*
X62597Y-41483D01*
X62304Y-41483D02*
X62280Y-41507D01*
X62255Y-41556D01*
X62255Y-41629D01*
X62280Y-41678D01*
X62328Y-41702D01*
X62597Y-41702D01*
X62597Y-42165D02*
X62328Y-42165D01*
X62280Y-42141D01*
X62255Y-42092D01*
X62255Y-41995D01*
X62280Y-41946D01*
X62572Y-42165D02*
X62597Y-42116D01*
X62597Y-41995D01*
X62572Y-41946D01*
X62523Y-41921D01*
X62475Y-41921D01*
X62426Y-41946D01*
X62402Y-41995D01*
X62402Y-42116D01*
X62377Y-42165D01*
X62060Y-42092D02*
X62134Y-42019D01*
X62255Y-42409D02*
X62597Y-42409D01*
X62304Y-42409D02*
X62280Y-42433D01*
X62255Y-42482D01*
X62255Y-42555D01*
X62280Y-42604D01*
X62328Y-42628D01*
X62597Y-42628D01*
X62597Y-43091D02*
X62085Y-43091D01*
X62572Y-43091D02*
X62597Y-43043D01*
X62597Y-42945D01*
X62572Y-42896D01*
X62548Y-42872D01*
X62499Y-42848D01*
X62353Y-42848D01*
X62304Y-42872D01*
X62280Y-42896D01*
X62255Y-42945D01*
X62255Y-43043D01*
X62280Y-43091D01*
X62572Y-43530D02*
X62597Y-43481D01*
X62597Y-43384D01*
X62572Y-43335D01*
X62523Y-43311D01*
X62328Y-43311D01*
X62280Y-43335D01*
X62255Y-43384D01*
X62255Y-43481D01*
X62280Y-43530D01*
X62328Y-43554D01*
X62377Y-43554D01*
X62426Y-43311D01*
X62255Y-43725D02*
X62255Y-43993D01*
X62597Y-43725D01*
X62597Y-43993D01*
X62548Y-44870D02*
X62572Y-44846D01*
X62597Y-44773D01*
X62597Y-44724D01*
X62572Y-44651D01*
X62523Y-44602D01*
X62475Y-44578D01*
X62377Y-44554D01*
X62304Y-44554D01*
X62207Y-44578D01*
X62158Y-44602D01*
X62109Y-44651D01*
X62085Y-44724D01*
X62085Y-44773D01*
X62109Y-44846D01*
X62134Y-44870D01*
X62572Y-45285D02*
X62597Y-45236D01*
X62597Y-45139D01*
X62572Y-45090D01*
X62523Y-45065D01*
X62328Y-45065D01*
X62280Y-45090D01*
X62255Y-45139D01*
X62255Y-45236D01*
X62280Y-45285D01*
X62328Y-45309D01*
X62377Y-45309D01*
X62426Y-45065D01*
X62255Y-45528D02*
X62767Y-45528D01*
X62280Y-45528D02*
X62255Y-45577D01*
X62255Y-45675D01*
X62280Y-45723D01*
X62304Y-45748D01*
X62353Y-45772D01*
X62499Y-45772D01*
X62548Y-45748D01*
X62572Y-45723D01*
X62597Y-45675D01*
X62597Y-45577D01*
X62572Y-45528D01*
X62572Y-46187D02*
X62597Y-46138D01*
X62597Y-46040D01*
X62572Y-45992D01*
X62523Y-45967D01*
X62328Y-45967D01*
X62280Y-45992D01*
X62255Y-46040D01*
X62255Y-46138D01*
X62280Y-46187D01*
X62328Y-46211D01*
X62377Y-46211D01*
X62426Y-45967D01*
X62597Y-46650D02*
X62085Y-46650D01*
X62572Y-46650D02*
X62597Y-46601D01*
X62597Y-46503D01*
X62572Y-46455D01*
X62548Y-46430D01*
X62499Y-46406D01*
X62353Y-46406D01*
X62304Y-46430D01*
X62280Y-46455D01*
X62255Y-46503D01*
X62255Y-46601D01*
X62280Y-46650D01*
X62597Y-47113D02*
X62328Y-47113D01*
X62280Y-47088D01*
X62255Y-47040D01*
X62255Y-46942D01*
X62280Y-46893D01*
X62572Y-47113D02*
X62597Y-47064D01*
X62597Y-46942D01*
X62572Y-46893D01*
X62523Y-46869D01*
X62475Y-46869D01*
X62426Y-46893D01*
X62402Y-46942D01*
X62402Y-47064D01*
X62377Y-47113D01*
G54D12*
X51770Y-32095D02*
X51770Y-31995D01*
X51770Y-31995D02*
X52670Y-31995D01*
X52670Y-31995D02*
X52670Y-32095D01*
X51770Y-32095D02*
X52670Y-32095D01*
X52670Y-32095D02*
X52670Y-32745D01*
X51770Y-33445D02*
X51770Y-34095D01*
X51770Y-34095D02*
X52670Y-34095D01*
X52670Y-34095D02*
X52670Y-33445D01*
X51770Y-32745D02*
X51770Y-32095D01*
X55035Y-33040D02*
X55135Y-33040D01*
X55135Y-33040D02*
X55135Y-33940D01*
X55135Y-33940D02*
X55035Y-33940D01*
X55035Y-33040D02*
X55035Y-33940D01*
X55035Y-33940D02*
X54385Y-33940D01*
X53685Y-33040D02*
X53035Y-33040D01*
X53035Y-33040D02*
X53035Y-33940D01*
X53035Y-33940D02*
X53685Y-33940D01*
X54385Y-33040D02*
X55035Y-33040D01*
X54485Y-36170D02*
X54485Y-36270D01*
X54485Y-36270D02*
X53585Y-36270D01*
X53585Y-36270D02*
X53585Y-36170D01*
X54485Y-36170D02*
X53585Y-36170D01*
X53585Y-36170D02*
X53585Y-35520D01*
X54485Y-34820D02*
X54485Y-34170D01*
X54485Y-34170D02*
X53585Y-34170D01*
X53585Y-34170D02*
X53585Y-34820D01*
X54485Y-35520D02*
X54485Y-36170D01*
X58675Y-32955D02*
X58775Y-32955D01*
X58775Y-32955D02*
X58775Y-33855D01*
X58775Y-33855D02*
X58675Y-33855D01*
X58675Y-32955D02*
X58675Y-33855D01*
X58675Y-33855D02*
X58025Y-33855D01*
X57325Y-32955D02*
X56675Y-32955D01*
X56675Y-32955D02*
X56675Y-33855D01*
X56675Y-33855D02*
X57325Y-33855D01*
X58025Y-32955D02*
X58675Y-32955D01*
X60350Y-35390D02*
X60450Y-35390D01*
X60450Y-35390D02*
X60450Y-36290D01*
X60450Y-36290D02*
X60350Y-36290D01*
X60350Y-35390D02*
X60350Y-36290D01*
X60350Y-36290D02*
X59700Y-36290D01*
X59000Y-35390D02*
X58350Y-35390D01*
X58350Y-35390D02*
X58350Y-36290D01*
X58350Y-36290D02*
X59000Y-36290D01*
X59700Y-35390D02*
X60350Y-35390D01*
X63550Y-41950D02*
X63550Y-41850D01*
X63550Y-41850D02*
X64450Y-41850D01*
X64450Y-41850D02*
X64450Y-41950D01*
X63550Y-41950D02*
X64450Y-41950D01*
X64450Y-41950D02*
X64450Y-42600D01*
X63550Y-43300D02*
X63550Y-43950D01*
X63550Y-43950D02*
X64450Y-43950D01*
X64450Y-43950D02*
X64450Y-43300D01*
X63550Y-42600D02*
X63550Y-41950D01*
X63180Y-31200D02*
X63180Y-31300D01*
X63180Y-31300D02*
X62280Y-31300D01*
X62280Y-31300D02*
X62280Y-31200D01*
X63180Y-31200D02*
X62280Y-31200D01*
X62280Y-31200D02*
X62280Y-30550D01*
X63180Y-29850D02*
X63180Y-29200D01*
X63180Y-29200D02*
X62280Y-29200D01*
X62280Y-29200D02*
X62280Y-29850D01*
X63180Y-30550D02*
X63180Y-31200D01*
G54D13*
X64340Y-41020D02*
G75*
G03X64340Y-41020I-50J0D01*
G74*
G01*
X63840Y-41020D02*
X64240Y-41020D01*
X64240Y-41020D02*
X64240Y-40420D01*
X64240Y-40420D02*
X63840Y-40420D01*
X63440Y-40420D02*
X63040Y-40420D01*
X63040Y-40420D02*
X63040Y-41020D01*
X63040Y-41020D02*
X63440Y-41020D01*
X52050Y-36255D02*
G75*
G03X52050Y-36255I-50J0D01*
G74*
G01*
X52000Y-35805D02*
X52000Y-36205D01*
X52000Y-36205D02*
X52600Y-36205D01*
X52600Y-36205D02*
X52600Y-35805D01*
X52600Y-35405D02*
X52600Y-35005D01*
X52600Y-35005D02*
X52000Y-35005D01*
X52000Y-35005D02*
X52000Y-35405D01*
X50365Y-36390D02*
G75*
G03X50365Y-36390I-50J0D01*
G74*
G01*
X50765Y-36390D02*
X50365Y-36390D01*
X50365Y-36390D02*
X50365Y-36990D01*
X50365Y-36990D02*
X50765Y-36990D01*
X51165Y-36990D02*
X51565Y-36990D01*
X51565Y-36990D02*
X51565Y-36390D01*
X51565Y-36390D02*
X51165Y-36390D01*
G54D12*
X61965Y-31315D02*
X61965Y-30415D01*
X61965Y-30415D02*
X61465Y-30415D01*
X61465Y-30415D02*
X61465Y-31315D01*
X61465Y-31315D02*
X61965Y-31315D01*
X61200Y-34465D02*
X61200Y-33565D01*
X61200Y-33565D02*
X60700Y-33565D01*
X60700Y-33565D02*
X60700Y-34465D01*
X60700Y-34465D02*
X61200Y-34465D01*
X61240Y-32200D02*
X60340Y-32200D01*
X60340Y-32200D02*
X60340Y-32700D01*
X60340Y-32700D02*
X61240Y-32700D01*
X61240Y-32700D02*
X61240Y-32200D01*
X58945Y-32200D02*
X58945Y-33100D01*
X58945Y-33100D02*
X59445Y-33100D01*
X59445Y-33100D02*
X59445Y-32200D01*
X59445Y-32200D02*
X58945Y-32200D01*
X59420Y-34520D02*
X59420Y-33620D01*
X59420Y-33620D02*
X58920Y-33620D01*
X58920Y-33620D02*
X58920Y-34520D01*
X58920Y-34520D02*
X59420Y-34520D01*
X50255Y-34675D02*
X50255Y-35575D01*
X50255Y-35575D02*
X50755Y-35575D01*
X50755Y-35575D02*
X50755Y-34675D01*
X50755Y-34675D02*
X50255Y-34675D01*
X51590Y-33445D02*
X51590Y-32545D01*
X51590Y-32545D02*
X51090Y-32545D01*
X51090Y-32545D02*
X51090Y-33445D01*
X51090Y-33445D02*
X51590Y-33445D01*
X54895Y-34405D02*
X54895Y-35305D01*
X54895Y-35305D02*
X55395Y-35305D01*
X55395Y-35305D02*
X55395Y-34405D01*
X55395Y-34405D02*
X54895Y-34405D01*
X53865Y-32850D02*
X54765Y-32850D01*
X54765Y-32850D02*
X54765Y-32350D01*
X54765Y-32350D02*
X53865Y-32350D01*
X53865Y-32350D02*
X53865Y-32850D01*
X51635Y-36145D02*
X51635Y-35245D01*
X51635Y-35245D02*
X51135Y-35245D01*
X51135Y-35245D02*
X51135Y-36145D01*
X51135Y-36145D02*
X51635Y-36145D01*
X53385Y-36155D02*
X53385Y-35255D01*
X53385Y-35255D02*
X52885Y-35255D01*
X52885Y-35255D02*
X52885Y-36155D01*
X52885Y-36155D02*
X53385Y-36155D01*
X55600Y-36280D02*
X54700Y-36280D01*
X54700Y-36280D02*
X54700Y-36780D01*
X54700Y-36780D02*
X55600Y-36780D01*
X55600Y-36780D02*
X55600Y-36280D01*
X59670Y-34090D02*
X59670Y-34990D01*
X59670Y-34990D02*
X60170Y-34990D01*
X60170Y-34990D02*
X60170Y-34090D01*
X60170Y-34090D02*
X59670Y-34090D01*
X52417Y-34462D02*
X52432Y-34477D01*
X52475Y-34491D01*
X52503Y-34491D01*
X52546Y-34477D01*
X52575Y-34448D01*
X52589Y-34420D01*
X52603Y-34362D01*
X52603Y-34320D01*
X52589Y-34262D01*
X52575Y-34234D01*
X52546Y-34205D01*
X52503Y-34191D01*
X52475Y-34191D01*
X52432Y-34205D01*
X52417Y-34220D01*
X52132Y-34491D02*
X52303Y-34491D01*
X52217Y-34491D02*
X52217Y-34191D01*
X52246Y-34234D01*
X52275Y-34262D01*
X52303Y-34277D01*
X52017Y-34220D02*
X52003Y-34205D01*
X51975Y-34191D01*
X51903Y-34191D01*
X51875Y-34205D01*
X51860Y-34220D01*
X51846Y-34248D01*
X51846Y-34277D01*
X51860Y-34320D01*
X52032Y-34491D01*
X51846Y-34491D01*
X53557Y-32897D02*
X53572Y-32912D01*
X53615Y-32926D01*
X53643Y-32926D01*
X53686Y-32912D01*
X53715Y-32883D01*
X53729Y-32855D01*
X53743Y-32797D01*
X53743Y-32755D01*
X53729Y-32697D01*
X53715Y-32669D01*
X53686Y-32640D01*
X53643Y-32626D01*
X53615Y-32626D01*
X53572Y-32640D01*
X53557Y-32655D01*
X53272Y-32926D02*
X53443Y-32926D01*
X53357Y-32926D02*
X53357Y-32626D01*
X53386Y-32669D01*
X53415Y-32697D01*
X53443Y-32712D01*
X53086Y-32626D02*
X53057Y-32626D01*
X53029Y-32640D01*
X53015Y-32655D01*
X53000Y-32683D01*
X52986Y-32740D01*
X52986Y-32812D01*
X53000Y-32869D01*
X53015Y-32897D01*
X53029Y-32912D01*
X53057Y-32926D01*
X53086Y-32926D01*
X53115Y-32912D01*
X53129Y-32897D01*
X53143Y-32869D01*
X53157Y-32812D01*
X53157Y-32740D01*
X53143Y-32683D01*
X53129Y-32655D01*
X53115Y-32640D01*
X53086Y-32626D01*
X53432Y-34365D02*
X53447Y-34350D01*
X53461Y-34307D01*
X53461Y-34279D01*
X53447Y-34236D01*
X53418Y-34207D01*
X53390Y-34193D01*
X53332Y-34179D01*
X53290Y-34179D01*
X53232Y-34193D01*
X53204Y-34207D01*
X53175Y-34236D01*
X53161Y-34279D01*
X53161Y-34307D01*
X53175Y-34350D01*
X53190Y-34365D01*
X53161Y-34465D02*
X53161Y-34650D01*
X53275Y-34550D01*
X53275Y-34593D01*
X53290Y-34622D01*
X53304Y-34636D01*
X53332Y-34650D01*
X53404Y-34650D01*
X53432Y-34636D01*
X53447Y-34622D01*
X53461Y-34593D01*
X53461Y-34507D01*
X53447Y-34479D01*
X53432Y-34465D01*
X58002Y-32817D02*
X58017Y-32832D01*
X58060Y-32846D01*
X58088Y-32846D01*
X58131Y-32832D01*
X58160Y-32803D01*
X58174Y-32775D01*
X58188Y-32717D01*
X58188Y-32675D01*
X58174Y-32617D01*
X58160Y-32589D01*
X58131Y-32560D01*
X58088Y-32546D01*
X58060Y-32546D01*
X58017Y-32560D01*
X58002Y-32575D01*
X57888Y-32575D02*
X57874Y-32560D01*
X57845Y-32546D01*
X57774Y-32546D01*
X57745Y-32560D01*
X57731Y-32575D01*
X57717Y-32603D01*
X57717Y-32632D01*
X57731Y-32675D01*
X57902Y-32846D01*
X57717Y-32846D01*
X57602Y-32575D02*
X57588Y-32560D01*
X57560Y-32546D01*
X57488Y-32546D01*
X57460Y-32560D01*
X57445Y-32575D01*
X57431Y-32603D01*
X57431Y-32632D01*
X57445Y-32675D01*
X57617Y-32846D01*
X57431Y-32846D01*
X59512Y-35257D02*
X59527Y-35272D01*
X59570Y-35286D01*
X59598Y-35286D01*
X59641Y-35272D01*
X59670Y-35243D01*
X59684Y-35215D01*
X59698Y-35157D01*
X59698Y-35115D01*
X59684Y-35057D01*
X59670Y-35029D01*
X59641Y-35000D01*
X59598Y-34986D01*
X59570Y-34986D01*
X59527Y-35000D01*
X59512Y-35015D01*
X59398Y-35015D02*
X59384Y-35000D01*
X59355Y-34986D01*
X59284Y-34986D01*
X59255Y-35000D01*
X59241Y-35015D01*
X59227Y-35043D01*
X59227Y-35072D01*
X59241Y-35115D01*
X59412Y-35286D01*
X59227Y-35286D01*
X58941Y-35286D02*
X59112Y-35286D01*
X59027Y-35286D02*
X59027Y-34986D01*
X59055Y-35029D01*
X59084Y-35057D01*
X59112Y-35072D01*
X63417Y-42762D02*
X63432Y-42747D01*
X63446Y-42705D01*
X63446Y-42676D01*
X63432Y-42633D01*
X63403Y-42605D01*
X63375Y-42590D01*
X63317Y-42576D01*
X63275Y-42576D01*
X63217Y-42590D01*
X63189Y-42605D01*
X63160Y-42633D01*
X63146Y-42676D01*
X63146Y-42705D01*
X63160Y-42747D01*
X63175Y-42762D01*
X63446Y-43047D02*
X63446Y-42876D01*
X63446Y-42962D02*
X63146Y-42962D01*
X63189Y-42933D01*
X63217Y-42905D01*
X63232Y-42876D01*
X63246Y-43305D02*
X63446Y-43305D01*
X63132Y-43233D02*
X63346Y-43162D01*
X63346Y-43347D01*
X63577Y-29977D02*
X63592Y-29962D01*
X63606Y-29920D01*
X63606Y-29891D01*
X63592Y-29848D01*
X63563Y-29820D01*
X63535Y-29805D01*
X63477Y-29791D01*
X63435Y-29791D01*
X63377Y-29805D01*
X63349Y-29820D01*
X63320Y-29848D01*
X63306Y-29891D01*
X63306Y-29920D01*
X63320Y-29962D01*
X63335Y-29977D01*
X63606Y-30262D02*
X63606Y-30091D01*
X63606Y-30177D02*
X63306Y-30177D01*
X63349Y-30148D01*
X63377Y-30120D01*
X63392Y-30091D01*
X63435Y-30434D02*
X63420Y-30405D01*
X63406Y-30391D01*
X63377Y-30377D01*
X63363Y-30377D01*
X63335Y-30391D01*
X63320Y-30405D01*
X63306Y-30434D01*
X63306Y-30491D01*
X63320Y-30520D01*
X63335Y-30534D01*
X63363Y-30548D01*
X63377Y-30548D01*
X63406Y-30534D01*
X63420Y-30520D01*
X63435Y-30491D01*
X63435Y-30434D01*
X63449Y-30405D01*
X63463Y-30391D01*
X63492Y-30377D01*
X63549Y-30377D01*
X63577Y-30391D01*
X63592Y-30405D01*
X63606Y-30434D01*
X63606Y-30491D01*
X63592Y-30520D01*
X63577Y-30534D01*
X63549Y-30548D01*
X63492Y-30548D01*
X63463Y-30534D01*
X63449Y-30520D01*
X63435Y-30491D01*
G54D14*
X63766Y-40320D02*
X63776Y-40330D01*
X63804Y-40339D01*
X63822Y-40339D01*
X63851Y-40330D01*
X63869Y-40311D01*
X63879Y-40292D01*
X63888Y-40255D01*
X63888Y-40227D01*
X63879Y-40189D01*
X63869Y-40170D01*
X63851Y-40152D01*
X63822Y-40142D01*
X63804Y-40142D01*
X63776Y-40152D01*
X63766Y-40161D01*
X63579Y-40339D02*
X63691Y-40339D01*
X63635Y-40339D02*
X63635Y-40142D01*
X63654Y-40170D01*
X63672Y-40189D01*
X63691Y-40199D01*
X63513Y-40142D02*
X63391Y-40142D01*
X63457Y-40217D01*
X63428Y-40217D01*
X63410Y-40227D01*
X63400Y-40236D01*
X63391Y-40255D01*
X63391Y-40302D01*
X63400Y-40320D01*
X63410Y-40330D01*
X63428Y-40339D01*
X63485Y-40339D01*
X63503Y-40330D01*
X63513Y-40320D01*
X52327Y-34905D02*
X52337Y-34915D01*
X52365Y-34924D01*
X52384Y-34924D01*
X52412Y-34915D01*
X52431Y-34896D01*
X52440Y-34877D01*
X52449Y-34840D01*
X52449Y-34812D01*
X52440Y-34774D01*
X52431Y-34755D01*
X52412Y-34737D01*
X52384Y-34727D01*
X52365Y-34727D01*
X52337Y-34737D01*
X52327Y-34746D01*
X52158Y-34727D02*
X52196Y-34727D01*
X52215Y-34737D01*
X52224Y-34746D01*
X52243Y-34774D01*
X52252Y-34812D01*
X52252Y-34887D01*
X52243Y-34905D01*
X52234Y-34915D01*
X52215Y-34924D01*
X52177Y-34924D01*
X52158Y-34915D01*
X52149Y-34905D01*
X52140Y-34887D01*
X52140Y-34840D01*
X52149Y-34821D01*
X52158Y-34812D01*
X52177Y-34802D01*
X52215Y-34802D01*
X52234Y-34812D01*
X52243Y-34821D01*
X52252Y-34840D01*
X50732Y-37304D02*
X50798Y-37210D01*
X50845Y-37304D02*
X50845Y-37107D01*
X50770Y-37107D01*
X50751Y-37117D01*
X50742Y-37126D01*
X50732Y-37145D01*
X50732Y-37173D01*
X50742Y-37192D01*
X50751Y-37201D01*
X50770Y-37210D01*
X50845Y-37210D01*
X50667Y-37107D02*
X50545Y-37107D01*
X50610Y-37182D01*
X50582Y-37182D01*
X50563Y-37192D01*
X50554Y-37201D01*
X50545Y-37220D01*
X50545Y-37267D01*
X50554Y-37285D01*
X50563Y-37295D01*
X50582Y-37304D01*
X50639Y-37304D01*
X50657Y-37295D01*
X50667Y-37285D01*
G54D15*
X61351Y-30724D02*
X61361Y-30715D01*
X61370Y-30690D01*
X61370Y-30672D01*
X61361Y-30647D01*
X61342Y-30630D01*
X61323Y-30621D01*
X61285Y-30612D01*
X61256Y-30612D01*
X61218Y-30621D01*
X61199Y-30630D01*
X61180Y-30647D01*
X61170Y-30672D01*
X61170Y-30690D01*
X61180Y-30715D01*
X61190Y-30724D01*
X61370Y-30895D02*
X61370Y-30792D01*
X61370Y-30844D02*
X61170Y-30844D01*
X61199Y-30827D01*
X61218Y-30810D01*
X61228Y-30792D01*
X61370Y-30981D02*
X61370Y-31015D01*
X61361Y-31032D01*
X61351Y-31041D01*
X61323Y-31058D01*
X61285Y-31067D01*
X61209Y-31067D01*
X61190Y-31058D01*
X61180Y-31050D01*
X61170Y-31032D01*
X61170Y-30998D01*
X61180Y-30981D01*
X61190Y-30972D01*
X61209Y-30964D01*
X61256Y-30964D01*
X61275Y-30972D01*
X61285Y-30981D01*
X61294Y-30998D01*
X61294Y-31032D01*
X61285Y-31050D01*
X61275Y-31058D01*
X61256Y-31067D01*
X60591Y-33914D02*
X60601Y-33905D01*
X60610Y-33880D01*
X60610Y-33862D01*
X60601Y-33837D01*
X60582Y-33820D01*
X60563Y-33811D01*
X60525Y-33802D01*
X60496Y-33802D01*
X60458Y-33811D01*
X60439Y-33820D01*
X60420Y-33837D01*
X60410Y-33862D01*
X60410Y-33880D01*
X60420Y-33905D01*
X60430Y-33914D01*
X60430Y-33982D02*
X60420Y-33991D01*
X60410Y-34008D01*
X60410Y-34051D01*
X60420Y-34068D01*
X60430Y-34077D01*
X60449Y-34085D01*
X60468Y-34085D01*
X60496Y-34077D01*
X60610Y-33974D01*
X60610Y-34085D01*
X60410Y-34145D02*
X60410Y-34257D01*
X60487Y-34197D01*
X60487Y-34222D01*
X60496Y-34240D01*
X60506Y-34248D01*
X60525Y-34257D01*
X60572Y-34257D01*
X60591Y-34248D01*
X60601Y-34240D01*
X60610Y-34222D01*
X60610Y-34171D01*
X60601Y-34154D01*
X60591Y-34145D01*
X60910Y-32971D02*
X60919Y-32981D01*
X60945Y-32990D01*
X60962Y-32990D01*
X60987Y-32981D01*
X61005Y-32962D01*
X61013Y-32943D01*
X61022Y-32905D01*
X61022Y-32876D01*
X61013Y-32838D01*
X61005Y-32819D01*
X60987Y-32800D01*
X60962Y-32790D01*
X60945Y-32790D01*
X60919Y-32800D01*
X60910Y-32810D01*
X60850Y-32790D02*
X60739Y-32790D01*
X60799Y-32867D01*
X60773Y-32867D01*
X60756Y-32876D01*
X60747Y-32886D01*
X60739Y-32905D01*
X60739Y-32952D01*
X60747Y-32971D01*
X60756Y-32981D01*
X60773Y-32990D01*
X60825Y-32990D01*
X60842Y-32981D01*
X60850Y-32971D01*
X60679Y-32790D02*
X60567Y-32790D01*
X60627Y-32867D01*
X60602Y-32867D01*
X60585Y-32876D01*
X60576Y-32886D01*
X60567Y-32905D01*
X60567Y-32952D01*
X60576Y-32971D01*
X60585Y-32981D01*
X60602Y-32990D01*
X60653Y-32990D01*
X60670Y-32981D01*
X60679Y-32971D01*
X58826Y-32469D02*
X58836Y-32460D01*
X58845Y-32435D01*
X58845Y-32417D01*
X58836Y-32392D01*
X58817Y-32375D01*
X58798Y-32366D01*
X58760Y-32357D01*
X58731Y-32357D01*
X58693Y-32366D01*
X58674Y-32375D01*
X58655Y-32392D01*
X58645Y-32417D01*
X58645Y-32435D01*
X58655Y-32460D01*
X58665Y-32469D01*
X58665Y-32537D02*
X58655Y-32546D01*
X58645Y-32563D01*
X58645Y-32606D01*
X58655Y-32623D01*
X58665Y-32632D01*
X58684Y-32640D01*
X58703Y-32640D01*
X58731Y-32632D01*
X58845Y-32529D01*
X58845Y-32640D01*
X58645Y-32795D02*
X58645Y-32760D01*
X58655Y-32743D01*
X58665Y-32735D01*
X58693Y-32717D01*
X58731Y-32709D01*
X58807Y-32709D01*
X58826Y-32717D01*
X58836Y-32726D01*
X58845Y-32743D01*
X58845Y-32777D01*
X58836Y-32795D01*
X58826Y-32803D01*
X58807Y-32812D01*
X58760Y-32812D01*
X58741Y-32803D01*
X58731Y-32795D01*
X58722Y-32777D01*
X58722Y-32743D01*
X58731Y-32726D01*
X58741Y-32717D01*
X58760Y-32709D01*
X58821Y-34074D02*
X58831Y-34065D01*
X58840Y-34040D01*
X58840Y-34022D01*
X58831Y-33997D01*
X58812Y-33980D01*
X58793Y-33971D01*
X58755Y-33962D01*
X58726Y-33962D01*
X58688Y-33971D01*
X58669Y-33980D01*
X58650Y-33997D01*
X58640Y-34022D01*
X58640Y-34040D01*
X58650Y-34065D01*
X58660Y-34074D01*
X58660Y-34142D02*
X58650Y-34151D01*
X58640Y-34168D01*
X58640Y-34211D01*
X58650Y-34228D01*
X58660Y-34237D01*
X58679Y-34245D01*
X58698Y-34245D01*
X58726Y-34237D01*
X58840Y-34134D01*
X58840Y-34245D01*
X58640Y-34305D02*
X58640Y-34425D01*
X58840Y-34348D01*
X50166Y-35045D02*
X50176Y-35036D01*
X50185Y-35010D01*
X50185Y-34993D01*
X50176Y-34967D01*
X50157Y-34950D01*
X50138Y-34942D01*
X50100Y-34933D01*
X50071Y-34933D01*
X50033Y-34942D01*
X50014Y-34950D01*
X49995Y-34967D01*
X49985Y-34993D01*
X49985Y-35010D01*
X49995Y-35036D01*
X50005Y-35045D01*
X49985Y-35105D02*
X49985Y-35225D01*
X50185Y-35147D01*
X50976Y-32889D02*
X50986Y-32880D01*
X50995Y-32855D01*
X50995Y-32837D01*
X50986Y-32812D01*
X50967Y-32795D01*
X50948Y-32786D01*
X50910Y-32777D01*
X50881Y-32777D01*
X50843Y-32786D01*
X50824Y-32795D01*
X50805Y-32812D01*
X50795Y-32837D01*
X50795Y-32855D01*
X50805Y-32880D01*
X50815Y-32889D01*
X50995Y-33060D02*
X50995Y-32957D01*
X50995Y-33009D02*
X50795Y-33009D01*
X50824Y-32992D01*
X50843Y-32975D01*
X50853Y-32957D01*
X50995Y-33232D02*
X50995Y-33129D01*
X50995Y-33180D02*
X50795Y-33180D01*
X50824Y-33163D01*
X50843Y-33146D01*
X50853Y-33129D01*
X55206Y-34825D02*
X55216Y-34816D01*
X55225Y-34790D01*
X55225Y-34773D01*
X55216Y-34747D01*
X55197Y-34730D01*
X55178Y-34722D01*
X55140Y-34713D01*
X55111Y-34713D01*
X55073Y-34722D01*
X55054Y-34730D01*
X55035Y-34747D01*
X55025Y-34773D01*
X55025Y-34790D01*
X55035Y-34816D01*
X55045Y-34825D01*
X55111Y-34927D02*
X55102Y-34910D01*
X55092Y-34902D01*
X55073Y-34893D01*
X55064Y-34893D01*
X55045Y-34902D01*
X55035Y-34910D01*
X55025Y-34927D01*
X55025Y-34962D01*
X55035Y-34979D01*
X55045Y-34987D01*
X55064Y-34996D01*
X55073Y-34996D01*
X55092Y-34987D01*
X55102Y-34979D01*
X55111Y-34962D01*
X55111Y-34927D01*
X55121Y-34910D01*
X55130Y-34902D01*
X55149Y-34893D01*
X55187Y-34893D01*
X55206Y-34902D01*
X55216Y-34910D01*
X55225Y-34927D01*
X55225Y-34962D01*
X55216Y-34979D01*
X55206Y-34987D01*
X55187Y-34996D01*
X55149Y-34996D01*
X55130Y-34987D01*
X55121Y-34979D01*
X55111Y-34962D01*
X54355Y-32231D02*
X54363Y-32241D01*
X54389Y-32250D01*
X54406Y-32250D01*
X54432Y-32241D01*
X54449Y-32222D01*
X54457Y-32203D01*
X54466Y-32165D01*
X54466Y-32136D01*
X54457Y-32098D01*
X54449Y-32079D01*
X54432Y-32060D01*
X54406Y-32050D01*
X54389Y-32050D01*
X54363Y-32060D01*
X54355Y-32070D01*
X54269Y-32250D02*
X54235Y-32250D01*
X54217Y-32241D01*
X54209Y-32231D01*
X54192Y-32203D01*
X54183Y-32165D01*
X54183Y-32089D01*
X54192Y-32070D01*
X54200Y-32060D01*
X54217Y-32050D01*
X54252Y-32050D01*
X54269Y-32060D01*
X54277Y-32070D01*
X54286Y-32089D01*
X54286Y-32136D01*
X54277Y-32155D01*
X54269Y-32165D01*
X54252Y-32174D01*
X54217Y-32174D01*
X54200Y-32165D01*
X54192Y-32155D01*
X54183Y-32136D01*
X51031Y-35660D02*
X51041Y-35651D01*
X51050Y-35625D01*
X51050Y-35608D01*
X51041Y-35582D01*
X51022Y-35565D01*
X51003Y-35557D01*
X50965Y-35548D01*
X50936Y-35548D01*
X50898Y-35557D01*
X50879Y-35565D01*
X50860Y-35582D01*
X50850Y-35608D01*
X50850Y-35625D01*
X50860Y-35651D01*
X50870Y-35660D01*
X50850Y-35822D02*
X50850Y-35737D01*
X50946Y-35728D01*
X50936Y-35737D01*
X50927Y-35754D01*
X50927Y-35797D01*
X50936Y-35814D01*
X50946Y-35822D01*
X50965Y-35831D01*
X51012Y-35831D01*
X51031Y-35822D01*
X51041Y-35814D01*
X51050Y-35797D01*
X51050Y-35754D01*
X51041Y-35737D01*
X51031Y-35728D01*
X53165Y-35156D02*
X53173Y-35166D01*
X53199Y-35175D01*
X53216Y-35175D01*
X53242Y-35166D01*
X53259Y-35147D01*
X53267Y-35128D01*
X53276Y-35090D01*
X53276Y-35061D01*
X53267Y-35023D01*
X53259Y-35004D01*
X53242Y-34985D01*
X53216Y-34975D01*
X53199Y-34975D01*
X53173Y-34985D01*
X53165Y-34995D01*
X53010Y-35042D02*
X53010Y-35175D01*
X53053Y-34966D02*
X53096Y-35109D01*
X52985Y-35109D01*
X54895Y-37110D02*
X54980Y-37110D01*
X54980Y-36910D01*
X54740Y-37110D02*
X54843Y-37110D01*
X54792Y-37110D02*
X54792Y-36910D01*
X54809Y-36939D01*
X54826Y-36958D01*
X54843Y-36968D01*
X59981Y-34424D02*
X59991Y-34415D01*
X60000Y-34390D01*
X60000Y-34372D01*
X59991Y-34347D01*
X59972Y-34330D01*
X59953Y-34321D01*
X59915Y-34312D01*
X59886Y-34312D01*
X59848Y-34321D01*
X59829Y-34330D01*
X59810Y-34347D01*
X59800Y-34372D01*
X59800Y-34390D01*
X59810Y-34415D01*
X59820Y-34424D01*
X60000Y-34595D02*
X60000Y-34492D01*
X60000Y-34544D02*
X59800Y-34544D01*
X59829Y-34527D01*
X59848Y-34510D01*
X59858Y-34492D01*
X59800Y-34758D02*
X59800Y-34672D01*
X59896Y-34664D01*
X59886Y-34672D01*
X59877Y-34690D01*
X59877Y-34732D01*
X59886Y-34750D01*
X59896Y-34758D01*
X59915Y-34767D01*
X59962Y-34767D01*
X59981Y-34758D01*
X59991Y-34750D01*
X60000Y-34732D01*
X60000Y-34690D01*
X59991Y-34672D01*
X59981Y-34664D01*
M02*
