G04 #@! TF.FileFunction,Legend,Top*
%FSLAX46Y46*%
G04 Gerber Fmt 4.6, Leading zero omitted, Abs format (unit mm)*
G04 Created by KiCad (PCBNEW 4.0.0-rc1-stable) date 07/11/2015 14:52:38*
%MOMM*%
G01*
G04 APERTURE LIST*
%ADD10C,0.100000*%
%ADD11C,0.150000*%
%ADD12C,0.127000*%
%ADD13C,0.203200*%
G04 APERTURE END LIST*
D10*
D11*
X186468640Y-94984200D02*
X185468640Y-94984200D01*
X185468640Y-96684200D02*
X186468640Y-96684200D01*
X181930600Y-107554280D02*
X181930600Y-108254280D01*
X180730600Y-108254280D02*
X180730600Y-107554280D01*
X164866880Y-111714800D02*
X164866880Y-112414800D01*
X163666880Y-112414800D02*
X163666880Y-111714800D01*
X177080800Y-112113960D02*
X176080800Y-112113960D01*
X176080800Y-113813960D02*
X177080800Y-113813960D01*
X164904800Y-105990760D02*
X165904800Y-105990760D01*
X165904800Y-104290760D02*
X164904800Y-104290760D01*
X173604480Y-111735120D02*
X173604480Y-112435120D01*
X172404480Y-112435120D02*
X172404480Y-111735120D01*
X169722240Y-99846880D02*
X169722240Y-99146880D01*
X170922240Y-99146880D02*
X170922240Y-99846880D01*
X178085000Y-102280160D02*
X178785000Y-102280160D01*
X178785000Y-103480160D02*
X178085000Y-103480160D01*
X165683680Y-109550760D02*
X164983680Y-109550760D01*
X164983680Y-108350760D02*
X165683680Y-108350760D01*
X168188080Y-99872280D02*
X168188080Y-99172280D01*
X169388080Y-99172280D02*
X169388080Y-99872280D01*
X128873960Y-84114120D02*
X128873960Y-83414120D01*
X130073960Y-83414120D02*
X130073960Y-84114120D01*
X152412180Y-111275420D02*
X151712180Y-111275420D01*
X151712180Y-110075420D02*
X152412180Y-110075420D01*
X155826980Y-110075420D02*
X156526980Y-110075420D01*
X156526980Y-111275420D02*
X155826980Y-111275420D01*
X132773800Y-104507400D02*
X133773800Y-104507400D01*
X133773800Y-102807400D02*
X132773800Y-102807400D01*
X133623800Y-112471760D02*
X132923800Y-112471760D01*
X132923800Y-111271760D02*
X133623800Y-111271760D01*
X172436040Y-95833640D02*
X173136040Y-95833640D01*
X173136040Y-97033640D02*
X172436040Y-97033640D01*
X176586400Y-95833640D02*
X177286400Y-95833640D01*
X177286400Y-97033640D02*
X176586400Y-97033640D01*
X170338040Y-92410800D02*
X170338040Y-93110800D01*
X169138040Y-93110800D02*
X169138040Y-92410800D01*
X183159960Y-91379560D02*
X183159960Y-92079560D01*
X181959960Y-92079560D02*
X181959960Y-91379560D01*
X168687040Y-92410800D02*
X168687040Y-93110800D01*
X167487040Y-93110800D02*
X167487040Y-92410800D01*
X165381560Y-92007320D02*
X164381560Y-92007320D01*
X164381560Y-93707320D02*
X165381560Y-93707320D01*
X147500720Y-89226760D02*
X148500720Y-89226760D01*
X148500720Y-87526760D02*
X147500720Y-87526760D01*
X147676120Y-89564920D02*
X148376120Y-89564920D01*
X148376120Y-90764920D02*
X147676120Y-90764920D01*
X164851600Y-94294400D02*
X165551600Y-94294400D01*
X165551600Y-95494400D02*
X164851600Y-95494400D01*
X145649200Y-100441200D02*
X146349200Y-100441200D01*
X146349200Y-101641200D02*
X145649200Y-101641200D01*
X164820080Y-91816480D02*
X164120080Y-91816480D01*
X164120080Y-90616480D02*
X164820080Y-90616480D01*
X146349200Y-103663040D02*
X145649200Y-103663040D01*
X145649200Y-102463040D02*
X146349200Y-102463040D01*
X165338240Y-99218040D02*
X164638240Y-99218040D01*
X164638240Y-98018040D02*
X165338240Y-98018040D01*
X145423000Y-99452800D02*
X146423000Y-99452800D01*
X146423000Y-97752800D02*
X145423000Y-97752800D01*
X140843000Y-118313200D02*
X128143000Y-118313200D01*
X128143000Y-118313200D02*
X128143000Y-115773200D01*
X128143000Y-115773200D02*
X140843000Y-115773200D01*
X143663000Y-118593200D02*
X142113000Y-118593200D01*
X140843000Y-118313200D02*
X140843000Y-115773200D01*
X142113000Y-115493200D02*
X143663000Y-115493200D01*
X143663000Y-115493200D02*
X143663000Y-118593200D01*
X145677320Y-85338720D02*
X145677320Y-82638720D01*
X144177320Y-85338720D02*
X144177320Y-82638720D01*
X145077320Y-83838720D02*
X144827320Y-83838720D01*
X144827320Y-83838720D02*
X144977320Y-83988720D01*
X144577320Y-84088720D02*
X145277320Y-84088720D01*
X144927320Y-83738720D02*
X144927320Y-83388720D01*
X144927320Y-84088720D02*
X144577320Y-83738720D01*
X144577320Y-83738720D02*
X145277320Y-83738720D01*
X145277320Y-83738720D02*
X144927320Y-84088720D01*
X178596480Y-100304600D02*
X179146480Y-99854600D01*
X179146480Y-99854600D02*
X179146480Y-100754600D01*
X179146480Y-100754600D02*
X178596480Y-100304600D01*
X178596480Y-99754600D02*
X178596480Y-100854600D01*
X177047340Y-102054660D02*
X177047340Y-101704140D01*
X177047340Y-98554540D02*
X177047340Y-98905060D01*
X181096920Y-102054660D02*
X181096920Y-101704140D01*
X176596040Y-102054660D02*
X176596040Y-101704140D01*
X176596040Y-98554540D02*
X176596040Y-98905060D01*
X181096920Y-98554540D02*
X181096920Y-98905060D01*
X176596040Y-102054660D02*
X181096920Y-102054660D01*
X176596040Y-98554540D02*
X181096920Y-98554540D01*
X124287080Y-100951600D02*
X121587080Y-100951600D01*
X124287080Y-102451600D02*
X121587080Y-102451600D01*
X122787080Y-101551600D02*
X122787080Y-101801600D01*
X122787080Y-101801600D02*
X122937080Y-101651600D01*
X123037080Y-102051600D02*
X123037080Y-101351600D01*
X122687080Y-101701600D02*
X122337080Y-101701600D01*
X123037080Y-101701600D02*
X122687080Y-102051600D01*
X122687080Y-102051600D02*
X122687080Y-101351600D01*
X122687080Y-101351600D02*
X123037080Y-101701600D01*
X168694800Y-84886600D02*
X168694800Y-82186600D01*
X167194800Y-84886600D02*
X167194800Y-82186600D01*
X168094800Y-83386600D02*
X167844800Y-83386600D01*
X167844800Y-83386600D02*
X167994800Y-83536600D01*
X167594800Y-83636600D02*
X168294800Y-83636600D01*
X167944800Y-83286600D02*
X167944800Y-82936600D01*
X167944800Y-83636600D02*
X167594800Y-83286600D01*
X167594800Y-83286600D02*
X168294800Y-83286600D01*
X168294800Y-83286600D02*
X167944800Y-83636600D01*
X124322640Y-89775600D02*
X121622640Y-89775600D01*
X124322640Y-91275600D02*
X121622640Y-91275600D01*
X122822640Y-90375600D02*
X122822640Y-90625600D01*
X122822640Y-90625600D02*
X122972640Y-90475600D01*
X123072640Y-90875600D02*
X123072640Y-90175600D01*
X122722640Y-90525600D02*
X122372640Y-90525600D01*
X123072640Y-90525600D02*
X122722640Y-90875600D01*
X122722640Y-90875600D02*
X122722640Y-90175600D01*
X122722640Y-90175600D02*
X123072640Y-90525600D01*
X124312480Y-92401960D02*
X121612480Y-92401960D01*
X124312480Y-93901960D02*
X121612480Y-93901960D01*
X122812480Y-93001960D02*
X122812480Y-93251960D01*
X122812480Y-93251960D02*
X122962480Y-93101960D01*
X123062480Y-93501960D02*
X123062480Y-92801960D01*
X122712480Y-93151960D02*
X122362480Y-93151960D01*
X123062480Y-93151960D02*
X122712480Y-93501960D01*
X122712480Y-93501960D02*
X122712480Y-92801960D01*
X122712480Y-92801960D02*
X123062480Y-93151960D01*
X180646480Y-107504280D02*
G75*
G03X180646480Y-107504280I-100000J0D01*
G01*
X180296480Y-108154280D02*
X180296480Y-107654280D01*
X177396480Y-108154280D02*
X180296480Y-108154280D01*
X177396480Y-107654280D02*
X177396480Y-108154280D01*
X180296480Y-107654280D02*
X177396480Y-107654280D01*
X169703840Y-107857200D02*
X169703840Y-107332200D01*
X174953840Y-102607200D02*
X174953840Y-103132200D01*
X169703840Y-102607200D02*
X169703840Y-103132200D01*
X174953840Y-107857200D02*
X174428840Y-107857200D01*
X174953840Y-102607200D02*
X174428840Y-102607200D01*
X169703840Y-102607200D02*
X170228840Y-102607200D01*
X169703840Y-107857200D02*
X170228840Y-107857200D01*
X127765360Y-98251720D02*
X120565360Y-98251720D01*
X120565360Y-98251720D02*
X120565360Y-95251720D01*
X120565360Y-95251720D02*
X127765360Y-95251720D01*
X127765360Y-95251720D02*
X127765360Y-98251720D01*
X167050080Y-110244480D02*
X167050080Y-113844480D01*
X167050080Y-113844480D02*
X172050080Y-113844480D01*
X172050080Y-110244480D02*
X172050080Y-113844480D01*
X167050080Y-110244480D02*
X172050080Y-110244480D01*
X190021100Y-110706900D02*
X190021100Y-101306900D01*
X189321100Y-110706900D02*
X189321100Y-101306900D01*
X146893280Y-118282720D02*
X179913280Y-118282720D01*
X179913280Y-118282720D02*
X179913280Y-115742720D01*
X179913280Y-115742720D02*
X146893280Y-115742720D01*
X144073280Y-115462720D02*
X145623280Y-115462720D01*
X146893280Y-115742720D02*
X146893280Y-118282720D01*
X145623280Y-118562720D02*
X144073280Y-118562720D01*
X144073280Y-118562720D02*
X144073280Y-115462720D01*
X184859980Y-90911680D02*
X184859980Y-90210640D01*
X184859980Y-90210640D02*
X185108900Y-90210640D01*
X187658960Y-90210640D02*
X187859620Y-90210640D01*
X187859620Y-90210640D02*
X187859620Y-90911680D01*
X145495640Y-91437840D02*
X145495640Y-92437840D01*
X144145640Y-92437840D02*
X144145640Y-91437840D01*
X186468640Y-100192200D02*
X185468640Y-100192200D01*
X185468640Y-98842200D02*
X186468640Y-98842200D01*
X185504200Y-97206440D02*
X186504200Y-97206440D01*
X186504200Y-98556440D02*
X185504200Y-98556440D01*
X165273360Y-112453040D02*
X165273360Y-111453040D01*
X166623360Y-111453040D02*
X166623360Y-112453040D01*
X176080800Y-110389040D02*
X177080800Y-110389040D01*
X177080800Y-111739040D02*
X176080800Y-111739040D01*
X141440280Y-104933120D02*
X142440280Y-104933120D01*
X142440280Y-106283120D02*
X141440280Y-106283120D01*
X141406240Y-108882560D02*
X141406240Y-109882560D01*
X140056240Y-109882560D02*
X140056240Y-108882560D01*
X146533240Y-109923200D02*
X146533240Y-108923200D01*
X147883240Y-108923200D02*
X147883240Y-109923200D01*
X126489840Y-101026600D02*
X127489840Y-101026600D01*
X127489840Y-102376600D02*
X126489840Y-102376600D01*
X168640120Y-87485600D02*
X168640120Y-88485600D01*
X167290120Y-88485600D02*
X167290120Y-87485600D01*
X127058800Y-89815040D02*
X128058800Y-89815040D01*
X128058800Y-91165040D02*
X127058800Y-91165040D01*
X127160400Y-92339800D02*
X128160400Y-92339800D01*
X128160400Y-93689800D02*
X127160400Y-93689800D01*
X152640920Y-105556680D02*
X151640920Y-105556680D01*
X151640920Y-104206680D02*
X152640920Y-104206680D01*
X155704920Y-104221920D02*
X156704920Y-104221920D01*
X156704920Y-105571920D02*
X155704920Y-105571920D01*
X132785560Y-100267800D02*
X133985560Y-100267800D01*
X133985560Y-102017800D02*
X132785560Y-102017800D01*
X135875400Y-92514040D02*
X135875400Y-91514040D01*
X137225400Y-91514040D02*
X137225400Y-92514040D01*
X131913000Y-92473400D02*
X131913000Y-91473400D01*
X133263000Y-91473400D02*
X133263000Y-92473400D01*
X133858640Y-92473400D02*
X133858640Y-91473400D01*
X135208640Y-91473400D02*
X135208640Y-92473400D01*
X139878440Y-92514040D02*
X139878440Y-91514040D01*
X141228440Y-91514040D02*
X141228440Y-92514040D01*
X137897240Y-92514040D02*
X137897240Y-91514040D01*
X139247240Y-91514040D02*
X139247240Y-92514040D01*
X143209640Y-91473400D02*
X143209640Y-92473400D01*
X141859640Y-92473400D02*
X141859640Y-91473400D01*
X146494120Y-106308520D02*
X145494120Y-106308520D01*
X145494120Y-104958520D02*
X146494120Y-104958520D01*
D12*
X139217400Y-84048600D02*
G75*
G03X139217400Y-84048600I-2540000J0D01*
G01*
X140487400Y-87858600D02*
X132867400Y-87858600D01*
X132867400Y-87858600D02*
X132867400Y-80238600D01*
X132867400Y-80238600D02*
X140487400Y-80238600D01*
X140487400Y-87858600D02*
X140487400Y-80238600D01*
D11*
X143631640Y-107758760D02*
G75*
G03X143631640Y-107758760I-100000J0D01*
G01*
X144181640Y-108008760D02*
X143681640Y-108008760D01*
X144181640Y-110908760D02*
X144181640Y-108008760D01*
X143681640Y-110908760D02*
X144181640Y-110908760D01*
X143681640Y-108008760D02*
X143681640Y-110908760D01*
X135292920Y-110535160D02*
X135292920Y-110390160D01*
X131142920Y-110535160D02*
X131142920Y-110390160D01*
X131142920Y-105385160D02*
X131142920Y-105530160D01*
X135292920Y-105385160D02*
X135292920Y-105530160D01*
X135292920Y-110535160D02*
X131142920Y-110535160D01*
X135292920Y-105385160D02*
X131142920Y-105385160D01*
X135292920Y-110390160D02*
X136692920Y-110390160D01*
X171058760Y-93047640D02*
X171163760Y-93047640D01*
X171058760Y-88897640D02*
X171163760Y-88897640D01*
X181208760Y-88897640D02*
X181103760Y-88897640D01*
X181208760Y-93047640D02*
X181103760Y-93047640D01*
X171058760Y-93047640D02*
X171058760Y-88897640D01*
X181208760Y-93047640D02*
X181208760Y-88897640D01*
X171163760Y-93047640D02*
X171163760Y-94422640D01*
X150511760Y-101060000D02*
X151586760Y-101060000D01*
X150511760Y-90710000D02*
X151586760Y-90710000D01*
X160861760Y-90710000D02*
X159786760Y-90710000D01*
X160861760Y-101060000D02*
X159786760Y-101060000D01*
X150511760Y-101060000D02*
X150511760Y-99985000D01*
X160861760Y-101060000D02*
X160861760Y-99985000D01*
X160861760Y-90710000D02*
X160861760Y-91785000D01*
X150511760Y-90710000D02*
X150511760Y-91785000D01*
X151586760Y-101060000D02*
X151586760Y-102085000D01*
X156627200Y-109377280D02*
X151627200Y-109377280D01*
X151627200Y-109377280D02*
X151627200Y-106177280D01*
X151627200Y-106177280D02*
X156627200Y-106177280D01*
X156627200Y-106177280D02*
X156627200Y-109377280D01*
X165094920Y-81183480D02*
X147314920Y-81183480D01*
X149854920Y-86263480D02*
X165094920Y-86263480D01*
X165094920Y-81183480D02*
X165094920Y-86263480D01*
X147314920Y-81183480D02*
X147314920Y-83723480D01*
X147034920Y-84993480D02*
X147034920Y-86543480D01*
X147314920Y-83723480D02*
X149854920Y-83723480D01*
X149854920Y-83723480D02*
X149854920Y-86263480D01*
X147034920Y-86543480D02*
X148584920Y-86543480D01*
X126619000Y-108966000D02*
X126619000Y-103886000D01*
X126619000Y-103886000D02*
X124079000Y-103886000D01*
X124079000Y-103886000D02*
X124079000Y-108966000D01*
X123799000Y-111786000D02*
X123799000Y-110236000D01*
X124079000Y-108966000D02*
X126619000Y-108966000D01*
X126899000Y-110236000D02*
X126899000Y-111786000D01*
X126899000Y-111786000D02*
X123799000Y-111786000D01*
X173995080Y-84754720D02*
X179075080Y-84754720D01*
X179075080Y-84754720D02*
X179075080Y-82214720D01*
X179075080Y-82214720D02*
X173995080Y-82214720D01*
X171175080Y-81934720D02*
X172725080Y-81934720D01*
X173995080Y-82214720D02*
X173995080Y-84754720D01*
X172725080Y-85034720D02*
X171175080Y-85034720D01*
X171175080Y-85034720D02*
X171175080Y-81934720D01*
X187305654Y-94682583D02*
X187258035Y-94730202D01*
X187115178Y-94777821D01*
X187019940Y-94777821D01*
X186877082Y-94730202D01*
X186781844Y-94634964D01*
X186734225Y-94539726D01*
X186686606Y-94349250D01*
X186686606Y-94206392D01*
X186734225Y-94015916D01*
X186781844Y-93920678D01*
X186877082Y-93825440D01*
X187019940Y-93777821D01*
X187115178Y-93777821D01*
X187258035Y-93825440D01*
X187305654Y-93873059D01*
X188258035Y-94777821D02*
X187686606Y-94777821D01*
X187972320Y-94777821D02*
X187972320Y-93777821D01*
X187877082Y-93920678D01*
X187781844Y-94015916D01*
X187686606Y-94063535D01*
X183155863Y-108838026D02*
X183203482Y-108885645D01*
X183251101Y-109028502D01*
X183251101Y-109123740D01*
X183203482Y-109266598D01*
X183108244Y-109361836D01*
X183013006Y-109409455D01*
X182822530Y-109457074D01*
X182679672Y-109457074D01*
X182489196Y-109409455D01*
X182393958Y-109361836D01*
X182298720Y-109266598D01*
X182251101Y-109123740D01*
X182251101Y-109028502D01*
X182298720Y-108885645D01*
X182346339Y-108838026D01*
X182346339Y-108457074D02*
X182298720Y-108409455D01*
X182251101Y-108314217D01*
X182251101Y-108076121D01*
X182298720Y-107980883D01*
X182346339Y-107933264D01*
X182441577Y-107885645D01*
X182536815Y-107885645D01*
X182679672Y-107933264D01*
X183251101Y-108504693D01*
X183251101Y-107885645D01*
X162937463Y-111784426D02*
X162985082Y-111832045D01*
X163032701Y-111974902D01*
X163032701Y-112070140D01*
X162985082Y-112212998D01*
X162889844Y-112308236D01*
X162794606Y-112355855D01*
X162604130Y-112403474D01*
X162461272Y-112403474D01*
X162270796Y-112355855D01*
X162175558Y-112308236D01*
X162080320Y-112212998D01*
X162032701Y-112070140D01*
X162032701Y-111974902D01*
X162080320Y-111832045D01*
X162127939Y-111784426D01*
X162032701Y-111451093D02*
X162032701Y-110832045D01*
X162413653Y-111165379D01*
X162413653Y-111022521D01*
X162461272Y-110927283D01*
X162508891Y-110879664D01*
X162604130Y-110832045D01*
X162842225Y-110832045D01*
X162937463Y-110879664D01*
X162985082Y-110927283D01*
X163032701Y-111022521D01*
X163032701Y-111308236D01*
X162985082Y-111403474D01*
X162937463Y-111451093D01*
X175906134Y-110125783D02*
X175858515Y-110173402D01*
X175715658Y-110221021D01*
X175620420Y-110221021D01*
X175477562Y-110173402D01*
X175382324Y-110078164D01*
X175334705Y-109982926D01*
X175287086Y-109792450D01*
X175287086Y-109649592D01*
X175334705Y-109459116D01*
X175382324Y-109363878D01*
X175477562Y-109268640D01*
X175620420Y-109221021D01*
X175715658Y-109221021D01*
X175858515Y-109268640D01*
X175906134Y-109316259D01*
X176763277Y-109554354D02*
X176763277Y-110221021D01*
X176525181Y-109173402D02*
X176287086Y-109887688D01*
X176906134Y-109887688D01*
X165202574Y-103806263D02*
X165154955Y-103853882D01*
X165012098Y-103901501D01*
X164916860Y-103901501D01*
X164774002Y-103853882D01*
X164678764Y-103758644D01*
X164631145Y-103663406D01*
X164583526Y-103472930D01*
X164583526Y-103330072D01*
X164631145Y-103139596D01*
X164678764Y-103044358D01*
X164774002Y-102949120D01*
X164916860Y-102901501D01*
X165012098Y-102901501D01*
X165154955Y-102949120D01*
X165202574Y-102996739D01*
X166107336Y-102901501D02*
X165631145Y-102901501D01*
X165583526Y-103377691D01*
X165631145Y-103330072D01*
X165726383Y-103282453D01*
X165964479Y-103282453D01*
X166059717Y-103330072D01*
X166107336Y-103377691D01*
X166154955Y-103472930D01*
X166154955Y-103711025D01*
X166107336Y-103806263D01*
X166059717Y-103853882D01*
X165964479Y-103901501D01*
X165726383Y-103901501D01*
X165631145Y-103853882D01*
X165583526Y-103806263D01*
X173162934Y-115043223D02*
X173115315Y-115090842D01*
X172972458Y-115138461D01*
X172877220Y-115138461D01*
X172734362Y-115090842D01*
X172639124Y-114995604D01*
X172591505Y-114900366D01*
X172543886Y-114709890D01*
X172543886Y-114567032D01*
X172591505Y-114376556D01*
X172639124Y-114281318D01*
X172734362Y-114186080D01*
X172877220Y-114138461D01*
X172972458Y-114138461D01*
X173115315Y-114186080D01*
X173162934Y-114233699D01*
X174020077Y-114138461D02*
X173829600Y-114138461D01*
X173734362Y-114186080D01*
X173686743Y-114233699D01*
X173591505Y-114376556D01*
X173543886Y-114567032D01*
X173543886Y-114947985D01*
X173591505Y-115043223D01*
X173639124Y-115090842D01*
X173734362Y-115138461D01*
X173924839Y-115138461D01*
X174020077Y-115090842D01*
X174067696Y-115043223D01*
X174115315Y-114947985D01*
X174115315Y-114709890D01*
X174067696Y-114614651D01*
X174020077Y-114567032D01*
X173924839Y-114519413D01*
X173734362Y-114519413D01*
X173639124Y-114567032D01*
X173591505Y-114614651D01*
X173543886Y-114709890D01*
X172061143Y-100080106D02*
X172108762Y-100127725D01*
X172156381Y-100270582D01*
X172156381Y-100365820D01*
X172108762Y-100508678D01*
X172013524Y-100603916D01*
X171918286Y-100651535D01*
X171727810Y-100699154D01*
X171584952Y-100699154D01*
X171394476Y-100651535D01*
X171299238Y-100603916D01*
X171204000Y-100508678D01*
X171156381Y-100365820D01*
X171156381Y-100270582D01*
X171204000Y-100127725D01*
X171251619Y-100080106D01*
X171156381Y-99746773D02*
X171156381Y-99080106D01*
X172156381Y-99508678D01*
X181417934Y-103399863D02*
X181370315Y-103447482D01*
X181227458Y-103495101D01*
X181132220Y-103495101D01*
X180989362Y-103447482D01*
X180894124Y-103352244D01*
X180846505Y-103257006D01*
X180798886Y-103066530D01*
X180798886Y-102923672D01*
X180846505Y-102733196D01*
X180894124Y-102637958D01*
X180989362Y-102542720D01*
X181132220Y-102495101D01*
X181227458Y-102495101D01*
X181370315Y-102542720D01*
X181417934Y-102590339D01*
X181989362Y-102923672D02*
X181894124Y-102876053D01*
X181846505Y-102828434D01*
X181798886Y-102733196D01*
X181798886Y-102685577D01*
X181846505Y-102590339D01*
X181894124Y-102542720D01*
X181989362Y-102495101D01*
X182179839Y-102495101D01*
X182275077Y-102542720D01*
X182322696Y-102590339D01*
X182370315Y-102685577D01*
X182370315Y-102733196D01*
X182322696Y-102828434D01*
X182275077Y-102876053D01*
X182179839Y-102923672D01*
X181989362Y-102923672D01*
X181894124Y-102971291D01*
X181846505Y-103018910D01*
X181798886Y-103114149D01*
X181798886Y-103304625D01*
X181846505Y-103399863D01*
X181894124Y-103447482D01*
X181989362Y-103495101D01*
X182179839Y-103495101D01*
X182275077Y-103447482D01*
X182322696Y-103399863D01*
X182370315Y-103304625D01*
X182370315Y-103114149D01*
X182322696Y-103018910D01*
X182275077Y-102971291D01*
X182179839Y-102923672D01*
X165202574Y-107997263D02*
X165154955Y-108044882D01*
X165012098Y-108092501D01*
X164916860Y-108092501D01*
X164774002Y-108044882D01*
X164678764Y-107949644D01*
X164631145Y-107854406D01*
X164583526Y-107663930D01*
X164583526Y-107521072D01*
X164631145Y-107330596D01*
X164678764Y-107235358D01*
X164774002Y-107140120D01*
X164916860Y-107092501D01*
X165012098Y-107092501D01*
X165154955Y-107140120D01*
X165202574Y-107187739D01*
X165678764Y-108092501D02*
X165869240Y-108092501D01*
X165964479Y-108044882D01*
X166012098Y-107997263D01*
X166107336Y-107854406D01*
X166154955Y-107663930D01*
X166154955Y-107282977D01*
X166107336Y-107187739D01*
X166059717Y-107140120D01*
X165964479Y-107092501D01*
X165774002Y-107092501D01*
X165678764Y-107140120D01*
X165631145Y-107187739D01*
X165583526Y-107282977D01*
X165583526Y-107521072D01*
X165631145Y-107616310D01*
X165678764Y-107663930D01*
X165774002Y-107711549D01*
X165964479Y-107711549D01*
X166059717Y-107663930D01*
X166107336Y-107616310D01*
X166154955Y-107521072D01*
X167875223Y-100596937D02*
X167922842Y-100644556D01*
X167970461Y-100787413D01*
X167970461Y-100882651D01*
X167922842Y-101025509D01*
X167827604Y-101120747D01*
X167732366Y-101168366D01*
X167541890Y-101215985D01*
X167399032Y-101215985D01*
X167208556Y-101168366D01*
X167113318Y-101120747D01*
X167018080Y-101025509D01*
X166970461Y-100882651D01*
X166970461Y-100787413D01*
X167018080Y-100644556D01*
X167065699Y-100596937D01*
X167970461Y-99644556D02*
X167970461Y-100215985D01*
X167970461Y-99930271D02*
X166970461Y-99930271D01*
X167113318Y-100025509D01*
X167208556Y-100120747D01*
X167256175Y-100215985D01*
X166970461Y-99025509D02*
X166970461Y-98930270D01*
X167018080Y-98835032D01*
X167065699Y-98787413D01*
X167160937Y-98739794D01*
X167351413Y-98692175D01*
X167589509Y-98692175D01*
X167779985Y-98739794D01*
X167875223Y-98787413D01*
X167922842Y-98835032D01*
X167970461Y-98930270D01*
X167970461Y-99025509D01*
X167922842Y-99120747D01*
X167875223Y-99168366D01*
X167779985Y-99215985D01*
X167589509Y-99263604D01*
X167351413Y-99263604D01*
X167160937Y-99215985D01*
X167065699Y-99168366D01*
X167018080Y-99120747D01*
X166970461Y-99025509D01*
X128489983Y-85946217D02*
X128537602Y-85993836D01*
X128585221Y-86136693D01*
X128585221Y-86231931D01*
X128537602Y-86374789D01*
X128442364Y-86470027D01*
X128347126Y-86517646D01*
X128156650Y-86565265D01*
X128013792Y-86565265D01*
X127823316Y-86517646D01*
X127728078Y-86470027D01*
X127632840Y-86374789D01*
X127585221Y-86231931D01*
X127585221Y-86136693D01*
X127632840Y-85993836D01*
X127680459Y-85946217D01*
X128585221Y-84993836D02*
X128585221Y-85565265D01*
X128585221Y-85279551D02*
X127585221Y-85279551D01*
X127728078Y-85374789D01*
X127823316Y-85470027D01*
X127870935Y-85565265D01*
X127585221Y-84089074D02*
X127585221Y-84565265D01*
X128061411Y-84612884D01*
X128013792Y-84565265D01*
X127966173Y-84470027D01*
X127966173Y-84231931D01*
X128013792Y-84136693D01*
X128061411Y-84089074D01*
X128156650Y-84041455D01*
X128394745Y-84041455D01*
X128489983Y-84089074D01*
X128537602Y-84136693D01*
X128585221Y-84231931D01*
X128585221Y-84470027D01*
X128537602Y-84565265D01*
X128489983Y-84612884D01*
X151462503Y-112427023D02*
X151414884Y-112474642D01*
X151272027Y-112522261D01*
X151176789Y-112522261D01*
X151033931Y-112474642D01*
X150938693Y-112379404D01*
X150891074Y-112284166D01*
X150843455Y-112093690D01*
X150843455Y-111950832D01*
X150891074Y-111760356D01*
X150938693Y-111665118D01*
X151033931Y-111569880D01*
X151176789Y-111522261D01*
X151272027Y-111522261D01*
X151414884Y-111569880D01*
X151462503Y-111617499D01*
X152414884Y-112522261D02*
X151843455Y-112522261D01*
X152129169Y-112522261D02*
X152129169Y-111522261D01*
X152033931Y-111665118D01*
X151938693Y-111760356D01*
X151843455Y-111807975D01*
X153272027Y-111522261D02*
X153081550Y-111522261D01*
X152986312Y-111569880D01*
X152938693Y-111617499D01*
X152843455Y-111760356D01*
X152795836Y-111950832D01*
X152795836Y-112331785D01*
X152843455Y-112427023D01*
X152891074Y-112474642D01*
X152986312Y-112522261D01*
X153176789Y-112522261D01*
X153272027Y-112474642D01*
X153319646Y-112427023D01*
X153367265Y-112331785D01*
X153367265Y-112093690D01*
X153319646Y-111998451D01*
X153272027Y-111950832D01*
X153176789Y-111903213D01*
X152986312Y-111903213D01*
X152891074Y-111950832D01*
X152843455Y-111998451D01*
X152795836Y-112093690D01*
X155485863Y-112538783D02*
X155438244Y-112586402D01*
X155295387Y-112634021D01*
X155200149Y-112634021D01*
X155057291Y-112586402D01*
X154962053Y-112491164D01*
X154914434Y-112395926D01*
X154866815Y-112205450D01*
X154866815Y-112062592D01*
X154914434Y-111872116D01*
X154962053Y-111776878D01*
X155057291Y-111681640D01*
X155200149Y-111634021D01*
X155295387Y-111634021D01*
X155438244Y-111681640D01*
X155485863Y-111729259D01*
X156438244Y-112634021D02*
X155866815Y-112634021D01*
X156152529Y-112634021D02*
X156152529Y-111634021D01*
X156057291Y-111776878D01*
X155962053Y-111872116D01*
X155866815Y-111919735D01*
X156771577Y-111634021D02*
X157438244Y-111634021D01*
X157009672Y-112634021D01*
X137268983Y-103455743D02*
X137221364Y-103503362D01*
X137078507Y-103550981D01*
X136983269Y-103550981D01*
X136840411Y-103503362D01*
X136745173Y-103408124D01*
X136697554Y-103312886D01*
X136649935Y-103122410D01*
X136649935Y-102979552D01*
X136697554Y-102789076D01*
X136745173Y-102693838D01*
X136840411Y-102598600D01*
X136983269Y-102550981D01*
X137078507Y-102550981D01*
X137221364Y-102598600D01*
X137268983Y-102646219D01*
X138221364Y-103550981D02*
X137649935Y-103550981D01*
X137935649Y-103550981D02*
X137935649Y-102550981D01*
X137840411Y-102693838D01*
X137745173Y-102789076D01*
X137649935Y-102836695D01*
X138792792Y-102979552D02*
X138697554Y-102931933D01*
X138649935Y-102884314D01*
X138602316Y-102789076D01*
X138602316Y-102741457D01*
X138649935Y-102646219D01*
X138697554Y-102598600D01*
X138792792Y-102550981D01*
X138983269Y-102550981D01*
X139078507Y-102598600D01*
X139126126Y-102646219D01*
X139173745Y-102741457D01*
X139173745Y-102789076D01*
X139126126Y-102884314D01*
X139078507Y-102931933D01*
X138983269Y-102979552D01*
X138792792Y-102979552D01*
X138697554Y-103027171D01*
X138649935Y-103074790D01*
X138602316Y-103170029D01*
X138602316Y-103360505D01*
X138649935Y-103455743D01*
X138697554Y-103503362D01*
X138792792Y-103550981D01*
X138983269Y-103550981D01*
X139078507Y-103503362D01*
X139126126Y-103455743D01*
X139173745Y-103360505D01*
X139173745Y-103170029D01*
X139126126Y-103074790D01*
X139078507Y-103027171D01*
X138983269Y-102979552D01*
X132707143Y-113818943D02*
X132659524Y-113866562D01*
X132516667Y-113914181D01*
X132421429Y-113914181D01*
X132278571Y-113866562D01*
X132183333Y-113771324D01*
X132135714Y-113676086D01*
X132088095Y-113485610D01*
X132088095Y-113342752D01*
X132135714Y-113152276D01*
X132183333Y-113057038D01*
X132278571Y-112961800D01*
X132421429Y-112914181D01*
X132516667Y-112914181D01*
X132659524Y-112961800D01*
X132707143Y-113009419D01*
X133659524Y-113914181D02*
X133088095Y-113914181D01*
X133373809Y-113914181D02*
X133373809Y-112914181D01*
X133278571Y-113057038D01*
X133183333Y-113152276D01*
X133088095Y-113199895D01*
X134135714Y-113914181D02*
X134326190Y-113914181D01*
X134421429Y-113866562D01*
X134469048Y-113818943D01*
X134564286Y-113676086D01*
X134611905Y-113485610D01*
X134611905Y-113104657D01*
X134564286Y-113009419D01*
X134516667Y-112961800D01*
X134421429Y-112914181D01*
X134230952Y-112914181D01*
X134135714Y-112961800D01*
X134088095Y-113009419D01*
X134040476Y-113104657D01*
X134040476Y-113342752D01*
X134088095Y-113437990D01*
X134135714Y-113485610D01*
X134230952Y-113533229D01*
X134421429Y-113533229D01*
X134516667Y-113485610D01*
X134564286Y-113437990D01*
X134611905Y-113342752D01*
X172727383Y-98116663D02*
X172679764Y-98164282D01*
X172536907Y-98211901D01*
X172441669Y-98211901D01*
X172298811Y-98164282D01*
X172203573Y-98069044D01*
X172155954Y-97973806D01*
X172108335Y-97783330D01*
X172108335Y-97640472D01*
X172155954Y-97449996D01*
X172203573Y-97354758D01*
X172298811Y-97259520D01*
X172441669Y-97211901D01*
X172536907Y-97211901D01*
X172679764Y-97259520D01*
X172727383Y-97307139D01*
X173108335Y-97307139D02*
X173155954Y-97259520D01*
X173251192Y-97211901D01*
X173489288Y-97211901D01*
X173584526Y-97259520D01*
X173632145Y-97307139D01*
X173679764Y-97402377D01*
X173679764Y-97497615D01*
X173632145Y-97640472D01*
X173060716Y-98211901D01*
X173679764Y-98211901D01*
X174298811Y-97211901D02*
X174394050Y-97211901D01*
X174489288Y-97259520D01*
X174536907Y-97307139D01*
X174584526Y-97402377D01*
X174632145Y-97592853D01*
X174632145Y-97830949D01*
X174584526Y-98021425D01*
X174536907Y-98116663D01*
X174489288Y-98164282D01*
X174394050Y-98211901D01*
X174298811Y-98211901D01*
X174203573Y-98164282D01*
X174155954Y-98116663D01*
X174108335Y-98021425D01*
X174060716Y-97830949D01*
X174060716Y-97592853D01*
X174108335Y-97402377D01*
X174155954Y-97307139D01*
X174203573Y-97259520D01*
X174298811Y-97211901D01*
X176009063Y-98131903D02*
X175961444Y-98179522D01*
X175818587Y-98227141D01*
X175723349Y-98227141D01*
X175580491Y-98179522D01*
X175485253Y-98084284D01*
X175437634Y-97989046D01*
X175390015Y-97798570D01*
X175390015Y-97655712D01*
X175437634Y-97465236D01*
X175485253Y-97369998D01*
X175580491Y-97274760D01*
X175723349Y-97227141D01*
X175818587Y-97227141D01*
X175961444Y-97274760D01*
X176009063Y-97322379D01*
X176390015Y-97322379D02*
X176437634Y-97274760D01*
X176532872Y-97227141D01*
X176770968Y-97227141D01*
X176866206Y-97274760D01*
X176913825Y-97322379D01*
X176961444Y-97417617D01*
X176961444Y-97512855D01*
X176913825Y-97655712D01*
X176342396Y-98227141D01*
X176961444Y-98227141D01*
X177913825Y-98227141D02*
X177342396Y-98227141D01*
X177628110Y-98227141D02*
X177628110Y-97227141D01*
X177532872Y-97369998D01*
X177437634Y-97465236D01*
X177342396Y-97512855D01*
X170735263Y-90081337D02*
X170782882Y-90128956D01*
X170830501Y-90271813D01*
X170830501Y-90367051D01*
X170782882Y-90509909D01*
X170687644Y-90605147D01*
X170592406Y-90652766D01*
X170401930Y-90700385D01*
X170259072Y-90700385D01*
X170068596Y-90652766D01*
X169973358Y-90605147D01*
X169878120Y-90509909D01*
X169830501Y-90367051D01*
X169830501Y-90271813D01*
X169878120Y-90128956D01*
X169925739Y-90081337D01*
X169925739Y-89700385D02*
X169878120Y-89652766D01*
X169830501Y-89557528D01*
X169830501Y-89319432D01*
X169878120Y-89224194D01*
X169925739Y-89176575D01*
X170020977Y-89128956D01*
X170116215Y-89128956D01*
X170259072Y-89176575D01*
X170830501Y-89748004D01*
X170830501Y-89128956D01*
X169925739Y-88748004D02*
X169878120Y-88700385D01*
X169830501Y-88605147D01*
X169830501Y-88367051D01*
X169878120Y-88271813D01*
X169925739Y-88224194D01*
X170020977Y-88176575D01*
X170116215Y-88176575D01*
X170259072Y-88224194D01*
X170830501Y-88795623D01*
X170830501Y-88176575D01*
X184293783Y-92387657D02*
X184341402Y-92435276D01*
X184389021Y-92578133D01*
X184389021Y-92673371D01*
X184341402Y-92816229D01*
X184246164Y-92911467D01*
X184150926Y-92959086D01*
X183960450Y-93006705D01*
X183817592Y-93006705D01*
X183627116Y-92959086D01*
X183531878Y-92911467D01*
X183436640Y-92816229D01*
X183389021Y-92673371D01*
X183389021Y-92578133D01*
X183436640Y-92435276D01*
X183484259Y-92387657D01*
X183484259Y-92006705D02*
X183436640Y-91959086D01*
X183389021Y-91863848D01*
X183389021Y-91625752D01*
X183436640Y-91530514D01*
X183484259Y-91482895D01*
X183579497Y-91435276D01*
X183674735Y-91435276D01*
X183817592Y-91482895D01*
X184389021Y-92054324D01*
X184389021Y-91435276D01*
X183389021Y-91101943D02*
X183389021Y-90482895D01*
X183769973Y-90816229D01*
X183769973Y-90673371D01*
X183817592Y-90578133D01*
X183865211Y-90530514D01*
X183960450Y-90482895D01*
X184198545Y-90482895D01*
X184293783Y-90530514D01*
X184341402Y-90578133D01*
X184389021Y-90673371D01*
X184389021Y-90959086D01*
X184341402Y-91054324D01*
X184293783Y-91101943D01*
X170344183Y-93403657D02*
X170391802Y-93451276D01*
X170439421Y-93594133D01*
X170439421Y-93689371D01*
X170391802Y-93832229D01*
X170296564Y-93927467D01*
X170201326Y-93975086D01*
X170010850Y-94022705D01*
X169867992Y-94022705D01*
X169677516Y-93975086D01*
X169582278Y-93927467D01*
X169487040Y-93832229D01*
X169439421Y-93689371D01*
X169439421Y-93594133D01*
X169487040Y-93451276D01*
X169534659Y-93403657D01*
X169534659Y-93022705D02*
X169487040Y-92975086D01*
X169439421Y-92879848D01*
X169439421Y-92641752D01*
X169487040Y-92546514D01*
X169534659Y-92498895D01*
X169629897Y-92451276D01*
X169725135Y-92451276D01*
X169867992Y-92498895D01*
X170439421Y-93070324D01*
X170439421Y-92451276D01*
X169772754Y-91594133D02*
X170439421Y-91594133D01*
X169391802Y-91832229D02*
X170106088Y-92070324D01*
X170106088Y-91451276D01*
X167306263Y-91452937D02*
X167353882Y-91500556D01*
X167401501Y-91643413D01*
X167401501Y-91738651D01*
X167353882Y-91881509D01*
X167258644Y-91976747D01*
X167163406Y-92024366D01*
X166972930Y-92071985D01*
X166830072Y-92071985D01*
X166639596Y-92024366D01*
X166544358Y-91976747D01*
X166449120Y-91881509D01*
X166401501Y-91738651D01*
X166401501Y-91643413D01*
X166449120Y-91500556D01*
X166496739Y-91452937D01*
X166496739Y-91071985D02*
X166449120Y-91024366D01*
X166401501Y-90929128D01*
X166401501Y-90691032D01*
X166449120Y-90595794D01*
X166496739Y-90548175D01*
X166591977Y-90500556D01*
X166687215Y-90500556D01*
X166830072Y-90548175D01*
X167401501Y-91119604D01*
X167401501Y-90500556D01*
X166401501Y-89595794D02*
X166401501Y-90071985D01*
X166877691Y-90119604D01*
X166830072Y-90071985D01*
X166782453Y-89976747D01*
X166782453Y-89738651D01*
X166830072Y-89643413D01*
X166877691Y-89595794D01*
X166972930Y-89548175D01*
X167211025Y-89548175D01*
X167306263Y-89595794D01*
X167353882Y-89643413D01*
X167401501Y-89738651D01*
X167401501Y-89976747D01*
X167353882Y-90071985D01*
X167306263Y-90119604D01*
X143730743Y-89196183D02*
X143683124Y-89243802D01*
X143540267Y-89291421D01*
X143445029Y-89291421D01*
X143302171Y-89243802D01*
X143206933Y-89148564D01*
X143159314Y-89053326D01*
X143111695Y-88862850D01*
X143111695Y-88719992D01*
X143159314Y-88529516D01*
X143206933Y-88434278D01*
X143302171Y-88339040D01*
X143445029Y-88291421D01*
X143540267Y-88291421D01*
X143683124Y-88339040D01*
X143730743Y-88386659D01*
X144111695Y-88386659D02*
X144159314Y-88339040D01*
X144254552Y-88291421D01*
X144492648Y-88291421D01*
X144587886Y-88339040D01*
X144635505Y-88386659D01*
X144683124Y-88481897D01*
X144683124Y-88577135D01*
X144635505Y-88719992D01*
X144064076Y-89291421D01*
X144683124Y-89291421D01*
X145540267Y-88291421D02*
X145349790Y-88291421D01*
X145254552Y-88339040D01*
X145206933Y-88386659D01*
X145111695Y-88529516D01*
X145064076Y-88719992D01*
X145064076Y-89100945D01*
X145111695Y-89196183D01*
X145159314Y-89243802D01*
X145254552Y-89291421D01*
X145445029Y-89291421D01*
X145540267Y-89243802D01*
X145587886Y-89196183D01*
X145635505Y-89100945D01*
X145635505Y-88862850D01*
X145587886Y-88767611D01*
X145540267Y-88719992D01*
X145445029Y-88672373D01*
X145254552Y-88672373D01*
X145159314Y-88719992D01*
X145111695Y-88767611D01*
X145064076Y-88862850D01*
X146311383Y-91797143D02*
X146263764Y-91844762D01*
X146120907Y-91892381D01*
X146025669Y-91892381D01*
X145882811Y-91844762D01*
X145787573Y-91749524D01*
X145739954Y-91654286D01*
X145692335Y-91463810D01*
X145692335Y-91320952D01*
X145739954Y-91130476D01*
X145787573Y-91035238D01*
X145882811Y-90940000D01*
X146025669Y-90892381D01*
X146120907Y-90892381D01*
X146263764Y-90940000D01*
X146311383Y-90987619D01*
X146692335Y-90987619D02*
X146739954Y-90940000D01*
X146835192Y-90892381D01*
X147073288Y-90892381D01*
X147168526Y-90940000D01*
X147216145Y-90987619D01*
X147263764Y-91082857D01*
X147263764Y-91178095D01*
X147216145Y-91320952D01*
X146644716Y-91892381D01*
X147263764Y-91892381D01*
X147597097Y-90892381D02*
X148263764Y-90892381D01*
X147835192Y-91892381D01*
X164457143Y-96673943D02*
X164409524Y-96721562D01*
X164266667Y-96769181D01*
X164171429Y-96769181D01*
X164028571Y-96721562D01*
X163933333Y-96626324D01*
X163885714Y-96531086D01*
X163838095Y-96340610D01*
X163838095Y-96197752D01*
X163885714Y-96007276D01*
X163933333Y-95912038D01*
X164028571Y-95816800D01*
X164171429Y-95769181D01*
X164266667Y-95769181D01*
X164409524Y-95816800D01*
X164457143Y-95864419D01*
X164838095Y-95864419D02*
X164885714Y-95816800D01*
X164980952Y-95769181D01*
X165219048Y-95769181D01*
X165314286Y-95816800D01*
X165361905Y-95864419D01*
X165409524Y-95959657D01*
X165409524Y-96054895D01*
X165361905Y-96197752D01*
X164790476Y-96769181D01*
X165409524Y-96769181D01*
X165980952Y-96197752D02*
X165885714Y-96150133D01*
X165838095Y-96102514D01*
X165790476Y-96007276D01*
X165790476Y-95959657D01*
X165838095Y-95864419D01*
X165885714Y-95816800D01*
X165980952Y-95769181D01*
X166171429Y-95769181D01*
X166266667Y-95816800D01*
X166314286Y-95864419D01*
X166361905Y-95959657D01*
X166361905Y-96007276D01*
X166314286Y-96102514D01*
X166266667Y-96150133D01*
X166171429Y-96197752D01*
X165980952Y-96197752D01*
X165885714Y-96245371D01*
X165838095Y-96292990D01*
X165790476Y-96388229D01*
X165790476Y-96578705D01*
X165838095Y-96673943D01*
X165885714Y-96721562D01*
X165980952Y-96769181D01*
X166171429Y-96769181D01*
X166266667Y-96721562D01*
X166314286Y-96673943D01*
X166361905Y-96578705D01*
X166361905Y-96388229D01*
X166314286Y-96292990D01*
X166266667Y-96245371D01*
X166171429Y-96197752D01*
X142105143Y-101251023D02*
X142057524Y-101298642D01*
X141914667Y-101346261D01*
X141819429Y-101346261D01*
X141676571Y-101298642D01*
X141581333Y-101203404D01*
X141533714Y-101108166D01*
X141486095Y-100917690D01*
X141486095Y-100774832D01*
X141533714Y-100584356D01*
X141581333Y-100489118D01*
X141676571Y-100393880D01*
X141819429Y-100346261D01*
X141914667Y-100346261D01*
X142057524Y-100393880D01*
X142105143Y-100441499D01*
X142486095Y-100441499D02*
X142533714Y-100393880D01*
X142628952Y-100346261D01*
X142867048Y-100346261D01*
X142962286Y-100393880D01*
X143009905Y-100441499D01*
X143057524Y-100536737D01*
X143057524Y-100631975D01*
X143009905Y-100774832D01*
X142438476Y-101346261D01*
X143057524Y-101346261D01*
X143533714Y-101346261D02*
X143724190Y-101346261D01*
X143819429Y-101298642D01*
X143867048Y-101251023D01*
X143962286Y-101108166D01*
X144009905Y-100917690D01*
X144009905Y-100536737D01*
X143962286Y-100441499D01*
X143914667Y-100393880D01*
X143819429Y-100346261D01*
X143628952Y-100346261D01*
X143533714Y-100393880D01*
X143486095Y-100441499D01*
X143438476Y-100536737D01*
X143438476Y-100774832D01*
X143486095Y-100870070D01*
X143533714Y-100917690D01*
X143628952Y-100965309D01*
X143819429Y-100965309D01*
X143914667Y-100917690D01*
X143962286Y-100870070D01*
X144009905Y-100774832D01*
X164513023Y-90242663D02*
X164465404Y-90290282D01*
X164322547Y-90337901D01*
X164227309Y-90337901D01*
X164084451Y-90290282D01*
X163989213Y-90195044D01*
X163941594Y-90099806D01*
X163893975Y-89909330D01*
X163893975Y-89766472D01*
X163941594Y-89575996D01*
X163989213Y-89480758D01*
X164084451Y-89385520D01*
X164227309Y-89337901D01*
X164322547Y-89337901D01*
X164465404Y-89385520D01*
X164513023Y-89433139D01*
X164846356Y-89337901D02*
X165465404Y-89337901D01*
X165132070Y-89718853D01*
X165274928Y-89718853D01*
X165370166Y-89766472D01*
X165417785Y-89814091D01*
X165465404Y-89909330D01*
X165465404Y-90147425D01*
X165417785Y-90242663D01*
X165370166Y-90290282D01*
X165274928Y-90337901D01*
X164989213Y-90337901D01*
X164893975Y-90290282D01*
X164846356Y-90242663D01*
X166084451Y-89337901D02*
X166179690Y-89337901D01*
X166274928Y-89385520D01*
X166322547Y-89433139D01*
X166370166Y-89528377D01*
X166417785Y-89718853D01*
X166417785Y-89956949D01*
X166370166Y-90147425D01*
X166322547Y-90242663D01*
X166274928Y-90290282D01*
X166179690Y-90337901D01*
X166084451Y-90337901D01*
X165989213Y-90290282D01*
X165941594Y-90242663D01*
X165893975Y-90147425D01*
X165846356Y-89956949D01*
X165846356Y-89718853D01*
X165893975Y-89528377D01*
X165941594Y-89433139D01*
X165989213Y-89385520D01*
X166084451Y-89337901D01*
X142242303Y-102785183D02*
X142194684Y-102832802D01*
X142051827Y-102880421D01*
X141956589Y-102880421D01*
X141813731Y-102832802D01*
X141718493Y-102737564D01*
X141670874Y-102642326D01*
X141623255Y-102451850D01*
X141623255Y-102308992D01*
X141670874Y-102118516D01*
X141718493Y-102023278D01*
X141813731Y-101928040D01*
X141956589Y-101880421D01*
X142051827Y-101880421D01*
X142194684Y-101928040D01*
X142242303Y-101975659D01*
X142575636Y-101880421D02*
X143194684Y-101880421D01*
X142861350Y-102261373D01*
X143004208Y-102261373D01*
X143099446Y-102308992D01*
X143147065Y-102356611D01*
X143194684Y-102451850D01*
X143194684Y-102689945D01*
X143147065Y-102785183D01*
X143099446Y-102832802D01*
X143004208Y-102880421D01*
X142718493Y-102880421D01*
X142623255Y-102832802D01*
X142575636Y-102785183D01*
X144147065Y-102880421D02*
X143575636Y-102880421D01*
X143861350Y-102880421D02*
X143861350Y-101880421D01*
X143766112Y-102023278D01*
X143670874Y-102118516D01*
X143575636Y-102166135D01*
X164111703Y-100392503D02*
X164064084Y-100440122D01*
X163921227Y-100487741D01*
X163825989Y-100487741D01*
X163683131Y-100440122D01*
X163587893Y-100344884D01*
X163540274Y-100249646D01*
X163492655Y-100059170D01*
X163492655Y-99916312D01*
X163540274Y-99725836D01*
X163587893Y-99630598D01*
X163683131Y-99535360D01*
X163825989Y-99487741D01*
X163921227Y-99487741D01*
X164064084Y-99535360D01*
X164111703Y-99582979D01*
X164445036Y-99487741D02*
X165064084Y-99487741D01*
X164730750Y-99868693D01*
X164873608Y-99868693D01*
X164968846Y-99916312D01*
X165016465Y-99963931D01*
X165064084Y-100059170D01*
X165064084Y-100297265D01*
X165016465Y-100392503D01*
X164968846Y-100440122D01*
X164873608Y-100487741D01*
X164587893Y-100487741D01*
X164492655Y-100440122D01*
X164445036Y-100392503D01*
X165445036Y-99582979D02*
X165492655Y-99535360D01*
X165587893Y-99487741D01*
X165825989Y-99487741D01*
X165921227Y-99535360D01*
X165968846Y-99582979D01*
X166016465Y-99678217D01*
X166016465Y-99773455D01*
X165968846Y-99916312D01*
X165397417Y-100487741D01*
X166016465Y-100487741D01*
X141205983Y-99417143D02*
X141158364Y-99464762D01*
X141015507Y-99512381D01*
X140920269Y-99512381D01*
X140777411Y-99464762D01*
X140682173Y-99369524D01*
X140634554Y-99274286D01*
X140586935Y-99083810D01*
X140586935Y-98940952D01*
X140634554Y-98750476D01*
X140682173Y-98655238D01*
X140777411Y-98560000D01*
X140920269Y-98512381D01*
X141015507Y-98512381D01*
X141158364Y-98560000D01*
X141205983Y-98607619D01*
X141539316Y-98512381D02*
X142158364Y-98512381D01*
X141825030Y-98893333D01*
X141967888Y-98893333D01*
X142063126Y-98940952D01*
X142110745Y-98988571D01*
X142158364Y-99083810D01*
X142158364Y-99321905D01*
X142110745Y-99417143D01*
X142063126Y-99464762D01*
X141967888Y-99512381D01*
X141682173Y-99512381D01*
X141586935Y-99464762D01*
X141539316Y-99417143D01*
X142491697Y-98512381D02*
X143110745Y-98512381D01*
X142777411Y-98893333D01*
X142920269Y-98893333D01*
X143015507Y-98940952D01*
X143063126Y-98988571D01*
X143110745Y-99083810D01*
X143110745Y-99321905D01*
X143063126Y-99417143D01*
X143015507Y-99464762D01*
X142920269Y-99512381D01*
X142634554Y-99512381D01*
X142539316Y-99464762D01*
X142491697Y-99417143D01*
X135833955Y-115134663D02*
X135786336Y-115182282D01*
X135643479Y-115229901D01*
X135548241Y-115229901D01*
X135405383Y-115182282D01*
X135310145Y-115087044D01*
X135262526Y-114991806D01*
X135214907Y-114801330D01*
X135214907Y-114658472D01*
X135262526Y-114467996D01*
X135310145Y-114372758D01*
X135405383Y-114277520D01*
X135548241Y-114229901D01*
X135643479Y-114229901D01*
X135786336Y-114277520D01*
X135833955Y-114325139D01*
X136453002Y-114229901D02*
X136643479Y-114229901D01*
X136738717Y-114277520D01*
X136833955Y-114372758D01*
X136881574Y-114563234D01*
X136881574Y-114896568D01*
X136833955Y-115087044D01*
X136738717Y-115182282D01*
X136643479Y-115229901D01*
X136453002Y-115229901D01*
X136357764Y-115182282D01*
X136262526Y-115087044D01*
X136214907Y-114896568D01*
X136214907Y-114563234D01*
X136262526Y-114372758D01*
X136357764Y-114277520D01*
X136453002Y-114229901D01*
X137310145Y-115229901D02*
X137310145Y-114229901D01*
X137881574Y-115229901D01*
X137881574Y-114229901D01*
X138881574Y-115229901D02*
X138310145Y-115229901D01*
X138595859Y-115229901D02*
X138595859Y-114229901D01*
X138500621Y-114372758D01*
X138405383Y-114467996D01*
X138310145Y-114515615D01*
X143926821Y-83719895D02*
X142926821Y-83719895D01*
X142926821Y-83481800D01*
X142974440Y-83338942D01*
X143069678Y-83243704D01*
X143164916Y-83196085D01*
X143355392Y-83148466D01*
X143498250Y-83148466D01*
X143688726Y-83196085D01*
X143783964Y-83243704D01*
X143879202Y-83338942D01*
X143926821Y-83481800D01*
X143926821Y-83719895D01*
X143926821Y-82196085D02*
X143926821Y-82767514D01*
X143926821Y-82481800D02*
X142926821Y-82481800D01*
X143069678Y-82577038D01*
X143164916Y-82672276D01*
X143212535Y-82767514D01*
X180287705Y-98272861D02*
X180287705Y-97272861D01*
X180525800Y-97272861D01*
X180668658Y-97320480D01*
X180763896Y-97415718D01*
X180811515Y-97510956D01*
X180859134Y-97701432D01*
X180859134Y-97844290D01*
X180811515Y-98034766D01*
X180763896Y-98130004D01*
X180668658Y-98225242D01*
X180525800Y-98272861D01*
X180287705Y-98272861D01*
X181240086Y-97368099D02*
X181287705Y-97320480D01*
X181382943Y-97272861D01*
X181621039Y-97272861D01*
X181716277Y-97320480D01*
X181763896Y-97368099D01*
X181811515Y-97463337D01*
X181811515Y-97558575D01*
X181763896Y-97701432D01*
X181192467Y-98272861D01*
X181811515Y-98272861D01*
X121948985Y-103903981D02*
X121948985Y-102903981D01*
X122187080Y-102903981D01*
X122329938Y-102951600D01*
X122425176Y-103046838D01*
X122472795Y-103142076D01*
X122520414Y-103332552D01*
X122520414Y-103475410D01*
X122472795Y-103665886D01*
X122425176Y-103761124D01*
X122329938Y-103856362D01*
X122187080Y-103903981D01*
X121948985Y-103903981D01*
X122853747Y-102903981D02*
X123472795Y-102903981D01*
X123139461Y-103284933D01*
X123282319Y-103284933D01*
X123377557Y-103332552D01*
X123425176Y-103380171D01*
X123472795Y-103475410D01*
X123472795Y-103713505D01*
X123425176Y-103808743D01*
X123377557Y-103856362D01*
X123282319Y-103903981D01*
X122996604Y-103903981D01*
X122901366Y-103856362D01*
X122853747Y-103808743D01*
X166647181Y-84024695D02*
X165647181Y-84024695D01*
X165647181Y-83786600D01*
X165694800Y-83643742D01*
X165790038Y-83548504D01*
X165885276Y-83500885D01*
X166075752Y-83453266D01*
X166218610Y-83453266D01*
X166409086Y-83500885D01*
X166504324Y-83548504D01*
X166599562Y-83643742D01*
X166647181Y-83786600D01*
X166647181Y-84024695D01*
X165980514Y-82596123D02*
X166647181Y-82596123D01*
X165599562Y-82834219D02*
X166313848Y-83072314D01*
X166313848Y-82453266D01*
X122075985Y-89514941D02*
X122075985Y-88514941D01*
X122314080Y-88514941D01*
X122456938Y-88562560D01*
X122552176Y-88657798D01*
X122599795Y-88753036D01*
X122647414Y-88943512D01*
X122647414Y-89086370D01*
X122599795Y-89276846D01*
X122552176Y-89372084D01*
X122456938Y-89467322D01*
X122314080Y-89514941D01*
X122075985Y-89514941D01*
X123552176Y-88514941D02*
X123075985Y-88514941D01*
X123028366Y-88991131D01*
X123075985Y-88943512D01*
X123171223Y-88895893D01*
X123409319Y-88895893D01*
X123504557Y-88943512D01*
X123552176Y-88991131D01*
X123599795Y-89086370D01*
X123599795Y-89324465D01*
X123552176Y-89419703D01*
X123504557Y-89467322D01*
X123409319Y-89514941D01*
X123171223Y-89514941D01*
X123075985Y-89467322D01*
X123028366Y-89419703D01*
X122136945Y-95102941D02*
X122136945Y-94102941D01*
X122375040Y-94102941D01*
X122517898Y-94150560D01*
X122613136Y-94245798D01*
X122660755Y-94341036D01*
X122708374Y-94531512D01*
X122708374Y-94674370D01*
X122660755Y-94864846D01*
X122613136Y-94960084D01*
X122517898Y-95055322D01*
X122375040Y-95102941D01*
X122136945Y-95102941D01*
X123565517Y-94102941D02*
X123375040Y-94102941D01*
X123279802Y-94150560D01*
X123232183Y-94198179D01*
X123136945Y-94341036D01*
X123089326Y-94531512D01*
X123089326Y-94912465D01*
X123136945Y-95007703D01*
X123184564Y-95055322D01*
X123279802Y-95102941D01*
X123470279Y-95102941D01*
X123565517Y-95055322D01*
X123613136Y-95007703D01*
X123660755Y-94912465D01*
X123660755Y-94674370D01*
X123613136Y-94579131D01*
X123565517Y-94531512D01*
X123470279Y-94483893D01*
X123279802Y-94483893D01*
X123184564Y-94531512D01*
X123136945Y-94579131D01*
X123089326Y-94674370D01*
X177514690Y-105770941D02*
X177514690Y-104770941D01*
X178562309Y-105675703D02*
X178514690Y-105723322D01*
X178371833Y-105770941D01*
X178276595Y-105770941D01*
X178133737Y-105723322D01*
X178038499Y-105628084D01*
X177990880Y-105532846D01*
X177943261Y-105342370D01*
X177943261Y-105199512D01*
X177990880Y-105009036D01*
X178038499Y-104913798D01*
X178133737Y-104818560D01*
X178276595Y-104770941D01*
X178371833Y-104770941D01*
X178514690Y-104818560D01*
X178562309Y-104866179D01*
X179514690Y-105770941D02*
X178943261Y-105770941D01*
X179228975Y-105770941D02*
X179228975Y-104770941D01*
X179133737Y-104913798D01*
X179038499Y-105009036D01*
X178943261Y-105056655D01*
X171352650Y-109434581D02*
X171352650Y-108434581D01*
X172400269Y-109339343D02*
X172352650Y-109386962D01*
X172209793Y-109434581D01*
X172114555Y-109434581D01*
X171971697Y-109386962D01*
X171876459Y-109291724D01*
X171828840Y-109196486D01*
X171781221Y-109006010D01*
X171781221Y-108863152D01*
X171828840Y-108672676D01*
X171876459Y-108577438D01*
X171971697Y-108482200D01*
X172114555Y-108434581D01*
X172209793Y-108434581D01*
X172352650Y-108482200D01*
X172400269Y-108529819D01*
X172781221Y-108529819D02*
X172828840Y-108482200D01*
X172924078Y-108434581D01*
X173162174Y-108434581D01*
X173257412Y-108482200D01*
X173305031Y-108529819D01*
X173352650Y-108625057D01*
X173352650Y-108720295D01*
X173305031Y-108863152D01*
X172733602Y-109434581D01*
X173352650Y-109434581D01*
X128017021Y-97922293D02*
X128731307Y-97922293D01*
X128874164Y-97969913D01*
X128969402Y-98065151D01*
X129017021Y-98208008D01*
X129017021Y-98303246D01*
X129017021Y-97446103D02*
X128017021Y-97446103D01*
X128017021Y-97065150D01*
X128064640Y-96969912D01*
X128112259Y-96922293D01*
X128207497Y-96874674D01*
X128350354Y-96874674D01*
X128445592Y-96922293D01*
X128493211Y-96969912D01*
X128540830Y-97065150D01*
X128540830Y-97446103D01*
X128112259Y-96493722D02*
X128064640Y-96446103D01*
X128017021Y-96350865D01*
X128017021Y-96112769D01*
X128064640Y-96017531D01*
X128112259Y-95969912D01*
X128207497Y-95922293D01*
X128302735Y-95922293D01*
X128445592Y-95969912D01*
X129017021Y-96541341D01*
X129017021Y-95922293D01*
D13*
X167911660Y-114139859D02*
X168105183Y-114139859D01*
X168201945Y-114188240D01*
X168298707Y-114285002D01*
X168347088Y-114478526D01*
X168347088Y-114817192D01*
X168298707Y-115010716D01*
X168201945Y-115107478D01*
X168105183Y-115155859D01*
X167911660Y-115155859D01*
X167814898Y-115107478D01*
X167718136Y-115010716D01*
X167669755Y-114817192D01*
X167669755Y-114478526D01*
X167718136Y-114285002D01*
X167814898Y-114188240D01*
X167911660Y-114139859D01*
X168734136Y-115107478D02*
X168879279Y-115155859D01*
X169121183Y-115155859D01*
X169217945Y-115107478D01*
X169266326Y-115059097D01*
X169314707Y-114962335D01*
X169314707Y-114865573D01*
X169266326Y-114768811D01*
X169217945Y-114720430D01*
X169121183Y-114672050D01*
X168927660Y-114623669D01*
X168830898Y-114575288D01*
X168782517Y-114526907D01*
X168734136Y-114430145D01*
X168734136Y-114333383D01*
X168782517Y-114236621D01*
X168830898Y-114188240D01*
X168927660Y-114139859D01*
X169169564Y-114139859D01*
X169314707Y-114188240D01*
X170330707Y-115059097D02*
X170282326Y-115107478D01*
X170137183Y-115155859D01*
X170040421Y-115155859D01*
X169895279Y-115107478D01*
X169798517Y-115010716D01*
X169750136Y-114913954D01*
X169701755Y-114720430D01*
X169701755Y-114575288D01*
X169750136Y-114381764D01*
X169798517Y-114285002D01*
X169895279Y-114188240D01*
X170040421Y-114139859D01*
X170137183Y-114139859D01*
X170282326Y-114188240D01*
X170330707Y-114236621D01*
X171298326Y-115155859D02*
X170717755Y-115155859D01*
X171008041Y-115155859D02*
X171008041Y-114139859D01*
X170911279Y-114285002D01*
X170814517Y-114381764D01*
X170717755Y-114430145D01*
D11*
X185799505Y-112740701D02*
X185799505Y-111740701D01*
X186180458Y-111740701D01*
X186275696Y-111788320D01*
X186323315Y-111835939D01*
X186370934Y-111931177D01*
X186370934Y-112074034D01*
X186323315Y-112169272D01*
X186275696Y-112216891D01*
X186180458Y-112264510D01*
X185799505Y-112264510D01*
X187323315Y-112740701D02*
X186751886Y-112740701D01*
X187037600Y-112740701D02*
X187037600Y-111740701D01*
X186942362Y-111883558D01*
X186847124Y-111978796D01*
X186751886Y-112026415D01*
X152962385Y-115118141D02*
X152962385Y-114118141D01*
X153343338Y-114118141D01*
X153438576Y-114165760D01*
X153486195Y-114213379D01*
X153533814Y-114308617D01*
X153533814Y-114451474D01*
X153486195Y-114546712D01*
X153438576Y-114594331D01*
X153343338Y-114641950D01*
X152962385Y-114641950D01*
X154390957Y-114451474D02*
X154390957Y-115118141D01*
X154152861Y-114070522D02*
X153914766Y-114784808D01*
X154533814Y-114784808D01*
X188723282Y-92805499D02*
X188628044Y-92757880D01*
X188532806Y-92662642D01*
X188389949Y-92519785D01*
X188294710Y-92472166D01*
X188199472Y-92472166D01*
X188247091Y-92710261D02*
X188151853Y-92662642D01*
X188056615Y-92567404D01*
X188008996Y-92376928D01*
X188008996Y-92043594D01*
X188056615Y-91853118D01*
X188151853Y-91757880D01*
X188247091Y-91710261D01*
X188437568Y-91710261D01*
X188532806Y-91757880D01*
X188628044Y-91853118D01*
X188675663Y-92043594D01*
X188675663Y-92376928D01*
X188628044Y-92567404D01*
X188532806Y-92662642D01*
X188437568Y-92710261D01*
X188247091Y-92710261D01*
X189628044Y-92710261D02*
X189056615Y-92710261D01*
X189342329Y-92710261D02*
X189342329Y-91710261D01*
X189247091Y-91853118D01*
X189151853Y-91948356D01*
X189056615Y-91995975D01*
X146609061Y-93039226D02*
X146132870Y-93372560D01*
X146609061Y-93610655D02*
X145609061Y-93610655D01*
X145609061Y-93229702D01*
X145656680Y-93134464D01*
X145704299Y-93086845D01*
X145799537Y-93039226D01*
X145942394Y-93039226D01*
X146037632Y-93086845D01*
X146085251Y-93134464D01*
X146132870Y-93229702D01*
X146132870Y-93610655D01*
X146609061Y-92086845D02*
X146609061Y-92658274D01*
X146609061Y-92372560D02*
X145609061Y-92372560D01*
X145751918Y-92467798D01*
X145847156Y-92563036D01*
X145894775Y-92658274D01*
X185746094Y-101402141D02*
X185412760Y-100925950D01*
X185174665Y-101402141D02*
X185174665Y-100402141D01*
X185555618Y-100402141D01*
X185650856Y-100449760D01*
X185698475Y-100497379D01*
X185746094Y-100592617D01*
X185746094Y-100735474D01*
X185698475Y-100830712D01*
X185650856Y-100878331D01*
X185555618Y-100925950D01*
X185174665Y-100925950D01*
X186127046Y-100497379D02*
X186174665Y-100449760D01*
X186269903Y-100402141D01*
X186507999Y-100402141D01*
X186603237Y-100449760D01*
X186650856Y-100497379D01*
X186698475Y-100592617D01*
X186698475Y-100687855D01*
X186650856Y-100830712D01*
X186079427Y-101402141D01*
X186698475Y-101402141D01*
X188651854Y-98242381D02*
X188318520Y-97766190D01*
X188080425Y-98242381D02*
X188080425Y-97242381D01*
X188461378Y-97242381D01*
X188556616Y-97290000D01*
X188604235Y-97337619D01*
X188651854Y-97432857D01*
X188651854Y-97575714D01*
X188604235Y-97670952D01*
X188556616Y-97718571D01*
X188461378Y-97766190D01*
X188080425Y-97766190D01*
X188985187Y-97242381D02*
X189604235Y-97242381D01*
X189270901Y-97623333D01*
X189413759Y-97623333D01*
X189508997Y-97670952D01*
X189556616Y-97718571D01*
X189604235Y-97813810D01*
X189604235Y-98051905D01*
X189556616Y-98147143D01*
X189508997Y-98194762D01*
X189413759Y-98242381D01*
X189128044Y-98242381D01*
X189032806Y-98194762D01*
X188985187Y-98147143D01*
X165751214Y-115331501D02*
X165417880Y-114855310D01*
X165179785Y-115331501D02*
X165179785Y-114331501D01*
X165560738Y-114331501D01*
X165655976Y-114379120D01*
X165703595Y-114426739D01*
X165751214Y-114521977D01*
X165751214Y-114664834D01*
X165703595Y-114760072D01*
X165655976Y-114807691D01*
X165560738Y-114855310D01*
X165179785Y-114855310D01*
X166608357Y-114664834D02*
X166608357Y-115331501D01*
X166370261Y-114283882D02*
X166132166Y-114998168D01*
X166751214Y-114998168D01*
X176007734Y-115321341D02*
X175674400Y-114845150D01*
X175436305Y-115321341D02*
X175436305Y-114321341D01*
X175817258Y-114321341D01*
X175912496Y-114368960D01*
X175960115Y-114416579D01*
X176007734Y-114511817D01*
X176007734Y-114654674D01*
X175960115Y-114749912D01*
X175912496Y-114797531D01*
X175817258Y-114845150D01*
X175436305Y-114845150D01*
X176912496Y-114321341D02*
X176436305Y-114321341D01*
X176388686Y-114797531D01*
X176436305Y-114749912D01*
X176531543Y-114702293D01*
X176769639Y-114702293D01*
X176864877Y-114749912D01*
X176912496Y-114797531D01*
X176960115Y-114892770D01*
X176960115Y-115130865D01*
X176912496Y-115226103D01*
X176864877Y-115273722D01*
X176769639Y-115321341D01*
X176531543Y-115321341D01*
X176436305Y-115273722D01*
X176388686Y-115226103D01*
X141712654Y-104531421D02*
X141379320Y-104055230D01*
X141141225Y-104531421D02*
X141141225Y-103531421D01*
X141522178Y-103531421D01*
X141617416Y-103579040D01*
X141665035Y-103626659D01*
X141712654Y-103721897D01*
X141712654Y-103864754D01*
X141665035Y-103959992D01*
X141617416Y-104007611D01*
X141522178Y-104055230D01*
X141141225Y-104055230D01*
X142569797Y-103531421D02*
X142379320Y-103531421D01*
X142284082Y-103579040D01*
X142236463Y-103626659D01*
X142141225Y-103769516D01*
X142093606Y-103959992D01*
X142093606Y-104340945D01*
X142141225Y-104436183D01*
X142188844Y-104483802D01*
X142284082Y-104531421D01*
X142474559Y-104531421D01*
X142569797Y-104483802D01*
X142617416Y-104436183D01*
X142665035Y-104340945D01*
X142665035Y-104102850D01*
X142617416Y-104007611D01*
X142569797Y-103959992D01*
X142474559Y-103912373D01*
X142284082Y-103912373D01*
X142188844Y-103959992D01*
X142141225Y-104007611D01*
X142093606Y-104102850D01*
X139283621Y-109549226D02*
X138807430Y-109882560D01*
X139283621Y-110120655D02*
X138283621Y-110120655D01*
X138283621Y-109739702D01*
X138331240Y-109644464D01*
X138378859Y-109596845D01*
X138474097Y-109549226D01*
X138616954Y-109549226D01*
X138712192Y-109596845D01*
X138759811Y-109644464D01*
X138807430Y-109739702D01*
X138807430Y-110120655D01*
X138283621Y-109215893D02*
X138283621Y-108549226D01*
X139283621Y-108977798D01*
X149276061Y-109610186D02*
X148799870Y-109943520D01*
X149276061Y-110181615D02*
X148276061Y-110181615D01*
X148276061Y-109800662D01*
X148323680Y-109705424D01*
X148371299Y-109657805D01*
X148466537Y-109610186D01*
X148609394Y-109610186D01*
X148704632Y-109657805D01*
X148752251Y-109705424D01*
X148799870Y-109800662D01*
X148799870Y-110181615D01*
X148704632Y-109038758D02*
X148657013Y-109133996D01*
X148609394Y-109181615D01*
X148514156Y-109229234D01*
X148466537Y-109229234D01*
X148371299Y-109181615D01*
X148323680Y-109133996D01*
X148276061Y-109038758D01*
X148276061Y-108848281D01*
X148323680Y-108753043D01*
X148371299Y-108705424D01*
X148466537Y-108657805D01*
X148514156Y-108657805D01*
X148609394Y-108705424D01*
X148657013Y-108753043D01*
X148704632Y-108848281D01*
X148704632Y-109038758D01*
X148752251Y-109133996D01*
X148799870Y-109181615D01*
X148895109Y-109229234D01*
X149085585Y-109229234D01*
X149180823Y-109181615D01*
X149228442Y-109133996D01*
X149276061Y-109038758D01*
X149276061Y-108848281D01*
X149228442Y-108753043D01*
X149180823Y-108705424D01*
X149085585Y-108657805D01*
X148895109Y-108657805D01*
X148799870Y-108705424D01*
X148752251Y-108753043D01*
X148704632Y-108848281D01*
X127661374Y-103662741D02*
X127328040Y-103186550D01*
X127089945Y-103662741D02*
X127089945Y-102662741D01*
X127470898Y-102662741D01*
X127566136Y-102710360D01*
X127613755Y-102757979D01*
X127661374Y-102853217D01*
X127661374Y-102996074D01*
X127613755Y-103091312D01*
X127566136Y-103138931D01*
X127470898Y-103186550D01*
X127089945Y-103186550D01*
X128137564Y-103662741D02*
X128328040Y-103662741D01*
X128423279Y-103615122D01*
X128470898Y-103567503D01*
X128566136Y-103424646D01*
X128613755Y-103234170D01*
X128613755Y-102853217D01*
X128566136Y-102757979D01*
X128518517Y-102710360D01*
X128423279Y-102662741D01*
X128232802Y-102662741D01*
X128137564Y-102710360D01*
X128089945Y-102757979D01*
X128042326Y-102853217D01*
X128042326Y-103091312D01*
X128089945Y-103186550D01*
X128137564Y-103234170D01*
X128232802Y-103281789D01*
X128423279Y-103281789D01*
X128518517Y-103234170D01*
X128566136Y-103186550D01*
X128613755Y-103091312D01*
X167015421Y-87063817D02*
X166539230Y-87397151D01*
X167015421Y-87635246D02*
X166015421Y-87635246D01*
X166015421Y-87254293D01*
X166063040Y-87159055D01*
X166110659Y-87111436D01*
X166205897Y-87063817D01*
X166348754Y-87063817D01*
X166443992Y-87111436D01*
X166491611Y-87159055D01*
X166539230Y-87254293D01*
X166539230Y-87635246D01*
X167015421Y-86111436D02*
X167015421Y-86682865D01*
X167015421Y-86397151D02*
X166015421Y-86397151D01*
X166158278Y-86492389D01*
X166253516Y-86587627D01*
X166301135Y-86682865D01*
X166015421Y-85492389D02*
X166015421Y-85397150D01*
X166063040Y-85301912D01*
X166110659Y-85254293D01*
X166205897Y-85206674D01*
X166396373Y-85159055D01*
X166634469Y-85159055D01*
X166824945Y-85206674D01*
X166920183Y-85254293D01*
X166967802Y-85301912D01*
X167015421Y-85397150D01*
X167015421Y-85492389D01*
X166967802Y-85587627D01*
X166920183Y-85635246D01*
X166824945Y-85682865D01*
X166634469Y-85730484D01*
X166396373Y-85730484D01*
X166205897Y-85682865D01*
X166110659Y-85635246D01*
X166063040Y-85587627D01*
X166015421Y-85492389D01*
X125767863Y-89535261D02*
X125434529Y-89059070D01*
X125196434Y-89535261D02*
X125196434Y-88535261D01*
X125577387Y-88535261D01*
X125672625Y-88582880D01*
X125720244Y-88630499D01*
X125767863Y-88725737D01*
X125767863Y-88868594D01*
X125720244Y-88963832D01*
X125672625Y-89011451D01*
X125577387Y-89059070D01*
X125196434Y-89059070D01*
X126720244Y-89535261D02*
X126148815Y-89535261D01*
X126434529Y-89535261D02*
X126434529Y-88535261D01*
X126339291Y-88678118D01*
X126244053Y-88773356D01*
X126148815Y-88820975D01*
X127672625Y-89535261D02*
X127101196Y-89535261D01*
X127386910Y-89535261D02*
X127386910Y-88535261D01*
X127291672Y-88678118D01*
X127196434Y-88773356D01*
X127101196Y-88820975D01*
X128897143Y-94899741D02*
X128563809Y-94423550D01*
X128325714Y-94899741D02*
X128325714Y-93899741D01*
X128706667Y-93899741D01*
X128801905Y-93947360D01*
X128849524Y-93994979D01*
X128897143Y-94090217D01*
X128897143Y-94233074D01*
X128849524Y-94328312D01*
X128801905Y-94375931D01*
X128706667Y-94423550D01*
X128325714Y-94423550D01*
X129849524Y-94899741D02*
X129278095Y-94899741D01*
X129563809Y-94899741D02*
X129563809Y-93899741D01*
X129468571Y-94042598D01*
X129373333Y-94137836D01*
X129278095Y-94185455D01*
X130230476Y-93994979D02*
X130278095Y-93947360D01*
X130373333Y-93899741D01*
X130611429Y-93899741D01*
X130706667Y-93947360D01*
X130754286Y-93994979D01*
X130801905Y-94090217D01*
X130801905Y-94185455D01*
X130754286Y-94328312D01*
X130182857Y-94899741D01*
X130801905Y-94899741D01*
X150873223Y-103931981D02*
X150539889Y-103455790D01*
X150301794Y-103931981D02*
X150301794Y-102931981D01*
X150682747Y-102931981D01*
X150777985Y-102979600D01*
X150825604Y-103027219D01*
X150873223Y-103122457D01*
X150873223Y-103265314D01*
X150825604Y-103360552D01*
X150777985Y-103408171D01*
X150682747Y-103455790D01*
X150301794Y-103455790D01*
X151825604Y-103931981D02*
X151254175Y-103931981D01*
X151539889Y-103931981D02*
X151539889Y-102931981D01*
X151444651Y-103074838D01*
X151349413Y-103170076D01*
X151254175Y-103217695D01*
X152158937Y-102931981D02*
X152777985Y-102931981D01*
X152444651Y-103312933D01*
X152587509Y-103312933D01*
X152682747Y-103360552D01*
X152730366Y-103408171D01*
X152777985Y-103503410D01*
X152777985Y-103741505D01*
X152730366Y-103836743D01*
X152682747Y-103884362D01*
X152587509Y-103931981D01*
X152301794Y-103931981D01*
X152206556Y-103884362D01*
X152158937Y-103836743D01*
X155887183Y-103977701D02*
X155553849Y-103501510D01*
X155315754Y-103977701D02*
X155315754Y-102977701D01*
X155696707Y-102977701D01*
X155791945Y-103025320D01*
X155839564Y-103072939D01*
X155887183Y-103168177D01*
X155887183Y-103311034D01*
X155839564Y-103406272D01*
X155791945Y-103453891D01*
X155696707Y-103501510D01*
X155315754Y-103501510D01*
X156839564Y-103977701D02*
X156268135Y-103977701D01*
X156553849Y-103977701D02*
X156553849Y-102977701D01*
X156458611Y-103120558D01*
X156363373Y-103215796D01*
X156268135Y-103263415D01*
X157696707Y-103311034D02*
X157696707Y-103977701D01*
X157458611Y-102930082D02*
X157220516Y-103644368D01*
X157839564Y-103644368D01*
X132798583Y-99918781D02*
X132465249Y-99442590D01*
X132227154Y-99918781D02*
X132227154Y-98918781D01*
X132608107Y-98918781D01*
X132703345Y-98966400D01*
X132750964Y-99014019D01*
X132798583Y-99109257D01*
X132798583Y-99252114D01*
X132750964Y-99347352D01*
X132703345Y-99394971D01*
X132608107Y-99442590D01*
X132227154Y-99442590D01*
X133750964Y-99918781D02*
X133179535Y-99918781D01*
X133465249Y-99918781D02*
X133465249Y-98918781D01*
X133370011Y-99061638D01*
X133274773Y-99156876D01*
X133179535Y-99204495D01*
X134655726Y-98918781D02*
X134179535Y-98918781D01*
X134131916Y-99394971D01*
X134179535Y-99347352D01*
X134274773Y-99299733D01*
X134512869Y-99299733D01*
X134608107Y-99347352D01*
X134655726Y-99394971D01*
X134703345Y-99490210D01*
X134703345Y-99728305D01*
X134655726Y-99823543D01*
X134608107Y-99871162D01*
X134512869Y-99918781D01*
X134274773Y-99918781D01*
X134179535Y-99871162D01*
X134131916Y-99823543D01*
X136967221Y-96116377D02*
X136491030Y-96449711D01*
X136967221Y-96687806D02*
X135967221Y-96687806D01*
X135967221Y-96306853D01*
X136014840Y-96211615D01*
X136062459Y-96163996D01*
X136157697Y-96116377D01*
X136300554Y-96116377D01*
X136395792Y-96163996D01*
X136443411Y-96211615D01*
X136491030Y-96306853D01*
X136491030Y-96687806D01*
X136967221Y-95163996D02*
X136967221Y-95735425D01*
X136967221Y-95449711D02*
X135967221Y-95449711D01*
X136110078Y-95544949D01*
X136205316Y-95640187D01*
X136252935Y-95735425D01*
X135967221Y-94306853D02*
X135967221Y-94497330D01*
X136014840Y-94592568D01*
X136062459Y-94640187D01*
X136205316Y-94735425D01*
X136395792Y-94783044D01*
X136776745Y-94783044D01*
X136871983Y-94735425D01*
X136919602Y-94687806D01*
X136967221Y-94592568D01*
X136967221Y-94402091D01*
X136919602Y-94306853D01*
X136871983Y-94259234D01*
X136776745Y-94211615D01*
X136538650Y-94211615D01*
X136443411Y-94259234D01*
X136395792Y-94306853D01*
X136348173Y-94402091D01*
X136348173Y-94592568D01*
X136395792Y-94687806D01*
X136443411Y-94735425D01*
X136538650Y-94783044D01*
X133055621Y-96284017D02*
X132579430Y-96617351D01*
X133055621Y-96855446D02*
X132055621Y-96855446D01*
X132055621Y-96474493D01*
X132103240Y-96379255D01*
X132150859Y-96331636D01*
X132246097Y-96284017D01*
X132388954Y-96284017D01*
X132484192Y-96331636D01*
X132531811Y-96379255D01*
X132579430Y-96474493D01*
X132579430Y-96855446D01*
X133055621Y-95331636D02*
X133055621Y-95903065D01*
X133055621Y-95617351D02*
X132055621Y-95617351D01*
X132198478Y-95712589D01*
X132293716Y-95807827D01*
X132341335Y-95903065D01*
X132055621Y-94998303D02*
X132055621Y-94331636D01*
X133055621Y-94760208D01*
X134986021Y-96197657D02*
X134509830Y-96530991D01*
X134986021Y-96769086D02*
X133986021Y-96769086D01*
X133986021Y-96388133D01*
X134033640Y-96292895D01*
X134081259Y-96245276D01*
X134176497Y-96197657D01*
X134319354Y-96197657D01*
X134414592Y-96245276D01*
X134462211Y-96292895D01*
X134509830Y-96388133D01*
X134509830Y-96769086D01*
X134986021Y-95245276D02*
X134986021Y-95816705D01*
X134986021Y-95530991D02*
X133986021Y-95530991D01*
X134128878Y-95626229D01*
X134224116Y-95721467D01*
X134271735Y-95816705D01*
X134414592Y-94673848D02*
X134366973Y-94769086D01*
X134319354Y-94816705D01*
X134224116Y-94864324D01*
X134176497Y-94864324D01*
X134081259Y-94816705D01*
X134033640Y-94769086D01*
X133986021Y-94673848D01*
X133986021Y-94483371D01*
X134033640Y-94388133D01*
X134081259Y-94340514D01*
X134176497Y-94292895D01*
X134224116Y-94292895D01*
X134319354Y-94340514D01*
X134366973Y-94388133D01*
X134414592Y-94483371D01*
X134414592Y-94673848D01*
X134462211Y-94769086D01*
X134509830Y-94816705D01*
X134605069Y-94864324D01*
X134795545Y-94864324D01*
X134890783Y-94816705D01*
X134938402Y-94769086D01*
X134986021Y-94673848D01*
X134986021Y-94483371D01*
X134938402Y-94388133D01*
X134890783Y-94340514D01*
X134795545Y-94292895D01*
X134605069Y-94292895D01*
X134509830Y-94340514D01*
X134462211Y-94388133D01*
X134414592Y-94483371D01*
X140990581Y-96085897D02*
X140514390Y-96419231D01*
X140990581Y-96657326D02*
X139990581Y-96657326D01*
X139990581Y-96276373D01*
X140038200Y-96181135D01*
X140085819Y-96133516D01*
X140181057Y-96085897D01*
X140323914Y-96085897D01*
X140419152Y-96133516D01*
X140466771Y-96181135D01*
X140514390Y-96276373D01*
X140514390Y-96657326D01*
X140990581Y-95133516D02*
X140990581Y-95704945D01*
X140990581Y-95419231D02*
X139990581Y-95419231D01*
X140133438Y-95514469D01*
X140228676Y-95609707D01*
X140276295Y-95704945D01*
X140990581Y-94657326D02*
X140990581Y-94466850D01*
X140942962Y-94371611D01*
X140895343Y-94323992D01*
X140752486Y-94228754D01*
X140562010Y-94181135D01*
X140181057Y-94181135D01*
X140085819Y-94228754D01*
X140038200Y-94276373D01*
X139990581Y-94371611D01*
X139990581Y-94562088D01*
X140038200Y-94657326D01*
X140085819Y-94704945D01*
X140181057Y-94752564D01*
X140419152Y-94752564D01*
X140514390Y-94704945D01*
X140562010Y-94657326D01*
X140609629Y-94562088D01*
X140609629Y-94371611D01*
X140562010Y-94276373D01*
X140514390Y-94228754D01*
X140419152Y-94181135D01*
X139034781Y-96141777D02*
X138558590Y-96475111D01*
X139034781Y-96713206D02*
X138034781Y-96713206D01*
X138034781Y-96332253D01*
X138082400Y-96237015D01*
X138130019Y-96189396D01*
X138225257Y-96141777D01*
X138368114Y-96141777D01*
X138463352Y-96189396D01*
X138510971Y-96237015D01*
X138558590Y-96332253D01*
X138558590Y-96713206D01*
X138130019Y-95760825D02*
X138082400Y-95713206D01*
X138034781Y-95617968D01*
X138034781Y-95379872D01*
X138082400Y-95284634D01*
X138130019Y-95237015D01*
X138225257Y-95189396D01*
X138320495Y-95189396D01*
X138463352Y-95237015D01*
X139034781Y-95808444D01*
X139034781Y-95189396D01*
X138034781Y-94570349D02*
X138034781Y-94475110D01*
X138082400Y-94379872D01*
X138130019Y-94332253D01*
X138225257Y-94284634D01*
X138415733Y-94237015D01*
X138653829Y-94237015D01*
X138844305Y-94284634D01*
X138939543Y-94332253D01*
X138987162Y-94379872D01*
X139034781Y-94475110D01*
X139034781Y-94570349D01*
X138987162Y-94665587D01*
X138939543Y-94713206D01*
X138844305Y-94760825D01*
X138653829Y-94808444D01*
X138415733Y-94808444D01*
X138225257Y-94760825D01*
X138130019Y-94713206D01*
X138082400Y-94665587D01*
X138034781Y-94570349D01*
X143002261Y-96197657D02*
X142526070Y-96530991D01*
X143002261Y-96769086D02*
X142002261Y-96769086D01*
X142002261Y-96388133D01*
X142049880Y-96292895D01*
X142097499Y-96245276D01*
X142192737Y-96197657D01*
X142335594Y-96197657D01*
X142430832Y-96245276D01*
X142478451Y-96292895D01*
X142526070Y-96388133D01*
X142526070Y-96769086D01*
X142097499Y-95816705D02*
X142049880Y-95769086D01*
X142002261Y-95673848D01*
X142002261Y-95435752D01*
X142049880Y-95340514D01*
X142097499Y-95292895D01*
X142192737Y-95245276D01*
X142287975Y-95245276D01*
X142430832Y-95292895D01*
X143002261Y-95864324D01*
X143002261Y-95245276D01*
X143002261Y-94292895D02*
X143002261Y-94864324D01*
X143002261Y-94578610D02*
X142002261Y-94578610D01*
X142145118Y-94673848D01*
X142240356Y-94769086D01*
X142287975Y-94864324D01*
X145234423Y-107548941D02*
X144901089Y-107072750D01*
X144662994Y-107548941D02*
X144662994Y-106548941D01*
X145043947Y-106548941D01*
X145139185Y-106596560D01*
X145186804Y-106644179D01*
X145234423Y-106739417D01*
X145234423Y-106882274D01*
X145186804Y-106977512D01*
X145139185Y-107025131D01*
X145043947Y-107072750D01*
X144662994Y-107072750D01*
X145615375Y-106644179D02*
X145662994Y-106596560D01*
X145758232Y-106548941D01*
X145996328Y-106548941D01*
X146091566Y-106596560D01*
X146139185Y-106644179D01*
X146186804Y-106739417D01*
X146186804Y-106834655D01*
X146139185Y-106977512D01*
X145567756Y-107548941D01*
X146186804Y-107548941D01*
X147043947Y-106882274D02*
X147043947Y-107548941D01*
X146805851Y-106501322D02*
X146567756Y-107215608D01*
X147186804Y-107215608D01*
D13*
X135322734Y-85221838D02*
X135467877Y-85270219D01*
X135709781Y-85270219D01*
X135806543Y-85221838D01*
X135854924Y-85173457D01*
X135903305Y-85076695D01*
X135903305Y-84979933D01*
X135854924Y-84883171D01*
X135806543Y-84834790D01*
X135709781Y-84786410D01*
X135516258Y-84738029D01*
X135419496Y-84689648D01*
X135371115Y-84641267D01*
X135322734Y-84544505D01*
X135322734Y-84447743D01*
X135371115Y-84350981D01*
X135419496Y-84302600D01*
X135516258Y-84254219D01*
X135758162Y-84254219D01*
X135903305Y-84302600D01*
X136241972Y-84254219D02*
X136483877Y-85270219D01*
X136677400Y-84544505D01*
X136870924Y-85270219D01*
X137112829Y-84254219D01*
X138032067Y-85270219D02*
X137451496Y-85270219D01*
X137741782Y-85270219D02*
X137741782Y-84254219D01*
X137645020Y-84399362D01*
X137548258Y-84496124D01*
X137451496Y-84544505D01*
D11*
X143124015Y-111781341D02*
X143124015Y-112590865D01*
X143171634Y-112686103D01*
X143219253Y-112733722D01*
X143314491Y-112781341D01*
X143504968Y-112781341D01*
X143600206Y-112733722D01*
X143647825Y-112686103D01*
X143695444Y-112590865D01*
X143695444Y-111781341D01*
X144124015Y-111876579D02*
X144171634Y-111828960D01*
X144266872Y-111781341D01*
X144504968Y-111781341D01*
X144600206Y-111828960D01*
X144647825Y-111876579D01*
X144695444Y-111971817D01*
X144695444Y-112067055D01*
X144647825Y-112209912D01*
X144076396Y-112781341D01*
X144695444Y-112781341D01*
X127538575Y-108504741D02*
X127538575Y-109314265D01*
X127586194Y-109409503D01*
X127633813Y-109457122D01*
X127729051Y-109504741D01*
X127919528Y-109504741D01*
X128014766Y-109457122D01*
X128062385Y-109409503D01*
X128110004Y-109314265D01*
X128110004Y-108504741D01*
X128490956Y-108504741D02*
X129110004Y-108504741D01*
X128776670Y-108885693D01*
X128919528Y-108885693D01*
X129014766Y-108933312D01*
X129062385Y-108980931D01*
X129110004Y-109076170D01*
X129110004Y-109314265D01*
X129062385Y-109409503D01*
X129014766Y-109457122D01*
X128919528Y-109504741D01*
X128633813Y-109504741D01*
X128538575Y-109457122D01*
X128490956Y-109409503D01*
X181732941Y-89666985D02*
X182542465Y-89666985D01*
X182637703Y-89619366D01*
X182685322Y-89571747D01*
X182732941Y-89476509D01*
X182732941Y-89286032D01*
X182685322Y-89190794D01*
X182637703Y-89143175D01*
X182542465Y-89095556D01*
X181732941Y-89095556D01*
X182066274Y-88190794D02*
X182732941Y-88190794D01*
X181685322Y-88428890D02*
X182399608Y-88666985D01*
X182399608Y-88047937D01*
X147939141Y-96646905D02*
X148748665Y-96646905D01*
X148843903Y-96599286D01*
X148891522Y-96551667D01*
X148939141Y-96456429D01*
X148939141Y-96265952D01*
X148891522Y-96170714D01*
X148843903Y-96123095D01*
X148748665Y-96075476D01*
X147939141Y-96075476D01*
X147939141Y-95170714D02*
X147939141Y-95361191D01*
X147986760Y-95456429D01*
X148034379Y-95504048D01*
X148177236Y-95599286D01*
X148367712Y-95646905D01*
X148748665Y-95646905D01*
X148843903Y-95599286D01*
X148891522Y-95551667D01*
X148939141Y-95456429D01*
X148939141Y-95265952D01*
X148891522Y-95170714D01*
X148843903Y-95123095D01*
X148748665Y-95075476D01*
X148510570Y-95075476D01*
X148415331Y-95123095D01*
X148367712Y-95170714D01*
X148320093Y-95265952D01*
X148320093Y-95456429D01*
X148367712Y-95551667D01*
X148415331Y-95599286D01*
X148510570Y-95646905D01*
X157623261Y-108464884D02*
X158623261Y-107798217D01*
X157623261Y-107798217D02*
X158623261Y-108464884D01*
X158623261Y-106893455D02*
X158623261Y-107464884D01*
X158623261Y-107179170D02*
X157623261Y-107179170D01*
X157766118Y-107274408D01*
X157861356Y-107369646D01*
X157908975Y-107464884D01*
X160363945Y-87792821D02*
X160363945Y-86792821D01*
X160744898Y-86792821D01*
X160840136Y-86840440D01*
X160887755Y-86888059D01*
X160935374Y-86983297D01*
X160935374Y-87126154D01*
X160887755Y-87221392D01*
X160840136Y-87269011D01*
X160744898Y-87316630D01*
X160363945Y-87316630D01*
X161840136Y-86792821D02*
X161363945Y-86792821D01*
X161316326Y-87269011D01*
X161363945Y-87221392D01*
X161459183Y-87173773D01*
X161697279Y-87173773D01*
X161792517Y-87221392D01*
X161840136Y-87269011D01*
X161887755Y-87364250D01*
X161887755Y-87602345D01*
X161840136Y-87697583D01*
X161792517Y-87745202D01*
X161697279Y-87792821D01*
X161459183Y-87792821D01*
X161363945Y-87745202D01*
X161316326Y-87697583D01*
X121080305Y-108244901D02*
X121080305Y-107244901D01*
X121461258Y-107244901D01*
X121556496Y-107292520D01*
X121604115Y-107340139D01*
X121651734Y-107435377D01*
X121651734Y-107578234D01*
X121604115Y-107673472D01*
X121556496Y-107721091D01*
X121461258Y-107768710D01*
X121080305Y-107768710D01*
X122032686Y-107340139D02*
X122080305Y-107292520D01*
X122175543Y-107244901D01*
X122413639Y-107244901D01*
X122508877Y-107292520D01*
X122556496Y-107340139D01*
X122604115Y-107435377D01*
X122604115Y-107530615D01*
X122556496Y-107673472D01*
X121985067Y-108244901D01*
X122604115Y-108244901D01*
X174252665Y-86842861D02*
X174252665Y-85842861D01*
X174633618Y-85842861D01*
X174728856Y-85890480D01*
X174776475Y-85938099D01*
X174824094Y-86033337D01*
X174824094Y-86176194D01*
X174776475Y-86271432D01*
X174728856Y-86319051D01*
X174633618Y-86366670D01*
X174252665Y-86366670D01*
X175157427Y-85842861D02*
X175776475Y-85842861D01*
X175443141Y-86223813D01*
X175585999Y-86223813D01*
X175681237Y-86271432D01*
X175728856Y-86319051D01*
X175776475Y-86414290D01*
X175776475Y-86652385D01*
X175728856Y-86747623D01*
X175681237Y-86795242D01*
X175585999Y-86842861D01*
X175300284Y-86842861D01*
X175205046Y-86795242D01*
X175157427Y-86747623D01*
M02*
