G04 #@! TF.FileFunction,Legend,Bot*
%FSLAX46Y46*%
G04 Gerber Fmt 4.6, Leading zero omitted, Abs format (unit mm)*
G04 Created by KiCad (PCBNEW 4.0.0-rc1-stable) date 07/11/2015 14:52:38*
%MOMM*%
G01*
G04 APERTURE LIST*
%ADD10C,0.100000*%
%ADD11C,0.200000*%
%ADD12C,0.150000*%
G04 APERTURE END LIST*
D10*
D11*
X180660705Y-112733181D02*
X180660705Y-111733181D01*
X180089276Y-112733181D01*
X180089276Y-111733181D01*
X179470229Y-112733181D02*
X179565467Y-112685562D01*
X179613086Y-112637943D01*
X179660705Y-112542705D01*
X179660705Y-112256990D01*
X179613086Y-112161752D01*
X179565467Y-112114133D01*
X179470229Y-112066514D01*
X179327371Y-112066514D01*
X179232133Y-112114133D01*
X179184514Y-112161752D01*
X179136895Y-112256990D01*
X179136895Y-112542705D01*
X179184514Y-112637943D01*
X179232133Y-112685562D01*
X179327371Y-112733181D01*
X179470229Y-112733181D01*
X178565467Y-112733181D02*
X178660705Y-112685562D01*
X178708324Y-112637943D01*
X178755943Y-112542705D01*
X178755943Y-112256990D01*
X178708324Y-112161752D01*
X178660705Y-112114133D01*
X178565467Y-112066514D01*
X178422609Y-112066514D01*
X178327371Y-112114133D01*
X178279752Y-112161752D01*
X178232133Y-112256990D01*
X178232133Y-112542705D01*
X178279752Y-112637943D01*
X178327371Y-112685562D01*
X178422609Y-112733181D01*
X178565467Y-112733181D01*
X177374990Y-112733181D02*
X177374990Y-111733181D01*
X177374990Y-112685562D02*
X177470228Y-112733181D01*
X177660705Y-112733181D01*
X177755943Y-112685562D01*
X177803562Y-112637943D01*
X177851181Y-112542705D01*
X177851181Y-112256990D01*
X177803562Y-112161752D01*
X177755943Y-112114133D01*
X177660705Y-112066514D01*
X177470228Y-112066514D01*
X177374990Y-112114133D01*
X176755943Y-112733181D02*
X176851181Y-112685562D01*
X176898800Y-112590324D01*
X176898800Y-111733181D01*
X175994037Y-112685562D02*
X176089275Y-112733181D01*
X176279752Y-112733181D01*
X176374990Y-112685562D01*
X176422609Y-112590324D01*
X176422609Y-112209371D01*
X176374990Y-112114133D01*
X176279752Y-112066514D01*
X176089275Y-112066514D01*
X175994037Y-112114133D01*
X175946418Y-112209371D01*
X175946418Y-112304610D01*
X176422609Y-112399848D01*
X175517847Y-112733181D02*
X175517847Y-111733181D01*
X175517847Y-112114133D02*
X175422609Y-112066514D01*
X175232132Y-112066514D01*
X175136894Y-112114133D01*
X175089275Y-112161752D01*
X175041656Y-112256990D01*
X175041656Y-112542705D01*
X175089275Y-112637943D01*
X175136894Y-112685562D01*
X175232132Y-112733181D01*
X175422609Y-112733181D01*
X175517847Y-112685562D01*
X174470228Y-112733181D02*
X174565466Y-112685562D01*
X174613085Y-112637943D01*
X174660704Y-112542705D01*
X174660704Y-112256990D01*
X174613085Y-112161752D01*
X174565466Y-112114133D01*
X174470228Y-112066514D01*
X174327370Y-112066514D01*
X174232132Y-112114133D01*
X174184513Y-112161752D01*
X174136894Y-112256990D01*
X174136894Y-112542705D01*
X174184513Y-112637943D01*
X174232132Y-112685562D01*
X174327370Y-112733181D01*
X174470228Y-112733181D01*
X173279751Y-112733181D02*
X173279751Y-112209371D01*
X173327370Y-112114133D01*
X173422608Y-112066514D01*
X173613085Y-112066514D01*
X173708323Y-112114133D01*
X173279751Y-112685562D02*
X173374989Y-112733181D01*
X173613085Y-112733181D01*
X173708323Y-112685562D01*
X173755942Y-112590324D01*
X173755942Y-112495086D01*
X173708323Y-112399848D01*
X173613085Y-112352229D01*
X173374989Y-112352229D01*
X173279751Y-112304610D01*
X172803561Y-112733181D02*
X172803561Y-112066514D01*
X172803561Y-112256990D02*
X172755942Y-112161752D01*
X172708323Y-112114133D01*
X172613085Y-112066514D01*
X172517846Y-112066514D01*
X171755941Y-112733181D02*
X171755941Y-111733181D01*
X171755941Y-112685562D02*
X171851179Y-112733181D01*
X172041656Y-112733181D01*
X172136894Y-112685562D01*
X172184513Y-112637943D01*
X172232132Y-112542705D01*
X172232132Y-112256990D01*
X172184513Y-112161752D01*
X172136894Y-112114133D01*
X172041656Y-112066514D01*
X171851179Y-112066514D01*
X171755941Y-112114133D01*
X170517846Y-112352229D02*
X169755941Y-112352229D01*
X167994036Y-112733181D02*
X168565465Y-112733181D01*
X168279751Y-112733181D02*
X168279751Y-111733181D01*
X168374989Y-111876038D01*
X168470227Y-111971276D01*
X168565465Y-112018895D01*
X167565465Y-112637943D02*
X167517846Y-112685562D01*
X167565465Y-112733181D01*
X167613084Y-112685562D01*
X167565465Y-112637943D01*
X167565465Y-112733181D01*
X166898799Y-111733181D02*
X166803560Y-111733181D01*
X166708322Y-111780800D01*
X166660703Y-111828419D01*
X166613084Y-111923657D01*
X166565465Y-112114133D01*
X166565465Y-112352229D01*
X166613084Y-112542705D01*
X166660703Y-112637943D01*
X166708322Y-112685562D01*
X166803560Y-112733181D01*
X166898799Y-112733181D01*
X166994037Y-112685562D01*
X167041656Y-112637943D01*
X167089275Y-112542705D01*
X167136894Y-112352229D01*
X167136894Y-112114133D01*
X167089275Y-111923657D01*
X167041656Y-111828419D01*
X166994037Y-111780800D01*
X166898799Y-111733181D01*
X166136894Y-112637943D02*
X166089275Y-112685562D01*
X166136894Y-112733181D01*
X166184513Y-112685562D01*
X166136894Y-112637943D01*
X166136894Y-112733181D01*
X165470228Y-111733181D02*
X165374989Y-111733181D01*
X165279751Y-111780800D01*
X165232132Y-111828419D01*
X165184513Y-111923657D01*
X165136894Y-112114133D01*
X165136894Y-112352229D01*
X165184513Y-112542705D01*
X165232132Y-112637943D01*
X165279751Y-112685562D01*
X165374989Y-112733181D01*
X165470228Y-112733181D01*
X165565466Y-112685562D01*
X165613085Y-112637943D01*
X165660704Y-112542705D01*
X165708323Y-112352229D01*
X165708323Y-112114133D01*
X165660704Y-111923657D01*
X165613085Y-111828419D01*
X165565466Y-111780800D01*
X165470228Y-111733181D01*
X180232133Y-113666514D02*
X180232133Y-114476038D01*
X180279752Y-114571276D01*
X180327371Y-114618895D01*
X180422610Y-114666514D01*
X180565467Y-114666514D01*
X180660705Y-114618895D01*
X180232133Y-114285562D02*
X180327371Y-114333181D01*
X180517848Y-114333181D01*
X180613086Y-114285562D01*
X180660705Y-114237943D01*
X180708324Y-114142705D01*
X180708324Y-113856990D01*
X180660705Y-113761752D01*
X180613086Y-113714133D01*
X180517848Y-113666514D01*
X180327371Y-113666514D01*
X180232133Y-113714133D01*
X179755943Y-114333181D02*
X179755943Y-113666514D01*
X179755943Y-113333181D02*
X179803562Y-113380800D01*
X179755943Y-113428419D01*
X179708324Y-113380800D01*
X179755943Y-113333181D01*
X179755943Y-113428419D01*
X179422610Y-113666514D02*
X179041658Y-113666514D01*
X179279753Y-113333181D02*
X179279753Y-114190324D01*
X179232134Y-114285562D01*
X179136896Y-114333181D01*
X179041658Y-114333181D01*
X178708324Y-114333181D02*
X178708324Y-113333181D01*
X178279752Y-114333181D02*
X178279752Y-113809371D01*
X178327371Y-113714133D01*
X178422609Y-113666514D01*
X178565467Y-113666514D01*
X178660705Y-113714133D01*
X178708324Y-113761752D01*
X177374990Y-113666514D02*
X177374990Y-114333181D01*
X177803562Y-113666514D02*
X177803562Y-114190324D01*
X177755943Y-114285562D01*
X177660705Y-114333181D01*
X177517847Y-114333181D01*
X177422609Y-114285562D01*
X177374990Y-114237943D01*
X176898800Y-114333181D02*
X176898800Y-113333181D01*
X176898800Y-113714133D02*
X176803562Y-113666514D01*
X176613085Y-113666514D01*
X176517847Y-113714133D01*
X176470228Y-113761752D01*
X176422609Y-113856990D01*
X176422609Y-114142705D01*
X176470228Y-114237943D01*
X176517847Y-114285562D01*
X176613085Y-114333181D01*
X176803562Y-114333181D01*
X176898800Y-114285562D01*
X175994038Y-114237943D02*
X175946419Y-114285562D01*
X175994038Y-114333181D01*
X176041657Y-114285562D01*
X175994038Y-114237943D01*
X175994038Y-114333181D01*
X175089276Y-114285562D02*
X175184514Y-114333181D01*
X175374991Y-114333181D01*
X175470229Y-114285562D01*
X175517848Y-114237943D01*
X175565467Y-114142705D01*
X175565467Y-113856990D01*
X175517848Y-113761752D01*
X175470229Y-113714133D01*
X175374991Y-113666514D01*
X175184514Y-113666514D01*
X175089276Y-113714133D01*
X174517848Y-114333181D02*
X174613086Y-114285562D01*
X174660705Y-114237943D01*
X174708324Y-114142705D01*
X174708324Y-113856990D01*
X174660705Y-113761752D01*
X174613086Y-113714133D01*
X174517848Y-113666514D01*
X174374990Y-113666514D01*
X174279752Y-113714133D01*
X174232133Y-113761752D01*
X174184514Y-113856990D01*
X174184514Y-114142705D01*
X174232133Y-114237943D01*
X174279752Y-114285562D01*
X174374990Y-114333181D01*
X174517848Y-114333181D01*
X173755943Y-114333181D02*
X173755943Y-113666514D01*
X173755943Y-113761752D02*
X173708324Y-113714133D01*
X173613086Y-113666514D01*
X173470228Y-113666514D01*
X173374990Y-113714133D01*
X173327371Y-113809371D01*
X173327371Y-114333181D01*
X173327371Y-113809371D02*
X173279752Y-113714133D01*
X173184514Y-113666514D01*
X173041657Y-113666514D01*
X172946419Y-113714133D01*
X172898800Y-113809371D01*
X172898800Y-114333181D01*
X171708324Y-113285562D02*
X172565467Y-114571276D01*
X171374991Y-113666514D02*
X171374991Y-114523657D01*
X171422610Y-114618895D01*
X171517848Y-114666514D01*
X171565467Y-114666514D01*
X171374991Y-113333181D02*
X171422610Y-113380800D01*
X171374991Y-113428419D01*
X171327372Y-113380800D01*
X171374991Y-113333181D01*
X171374991Y-113428419D01*
X170470229Y-114333181D02*
X170470229Y-113809371D01*
X170517848Y-113714133D01*
X170613086Y-113666514D01*
X170803563Y-113666514D01*
X170898801Y-113714133D01*
X170470229Y-114285562D02*
X170565467Y-114333181D01*
X170803563Y-114333181D01*
X170898801Y-114285562D01*
X170946420Y-114190324D01*
X170946420Y-114095086D01*
X170898801Y-113999848D01*
X170803563Y-113952229D01*
X170565467Y-113952229D01*
X170470229Y-113904610D01*
X170089277Y-113666514D02*
X169851182Y-114333181D01*
X169613086Y-113666514D01*
X169232134Y-114333181D02*
X169232134Y-113666514D01*
X169232134Y-113333181D02*
X169279753Y-113380800D01*
X169232134Y-113428419D01*
X169184515Y-113380800D01*
X169232134Y-113333181D01*
X169232134Y-113428419D01*
X168898801Y-113666514D02*
X168517849Y-113666514D01*
X168755944Y-114333181D02*
X168755944Y-113476038D01*
X168708325Y-113380800D01*
X168613087Y-113333181D01*
X168517849Y-113333181D01*
X167803562Y-114285562D02*
X167898800Y-114333181D01*
X168089277Y-114333181D01*
X168184515Y-114285562D01*
X168232134Y-114190324D01*
X168232134Y-113809371D01*
X168184515Y-113714133D01*
X168089277Y-113666514D01*
X167898800Y-113666514D01*
X167803562Y-113714133D01*
X167755943Y-113809371D01*
X167755943Y-113904610D01*
X168232134Y-113999848D01*
X167327372Y-114333181D02*
X167327372Y-113666514D01*
X167327372Y-113856990D02*
X167279753Y-113761752D01*
X167232134Y-113714133D01*
X167136896Y-113666514D01*
X167041657Y-113666514D01*
X166279752Y-114285562D02*
X166374990Y-114333181D01*
X166565467Y-114333181D01*
X166660705Y-114285562D01*
X166708324Y-114237943D01*
X166755943Y-114142705D01*
X166755943Y-113856990D01*
X166708324Y-113761752D01*
X166660705Y-113714133D01*
X166565467Y-113666514D01*
X166374990Y-113666514D01*
X166279752Y-113714133D01*
X165470228Y-114285562D02*
X165565466Y-114333181D01*
X165755943Y-114333181D01*
X165851181Y-114285562D01*
X165898800Y-114190324D01*
X165898800Y-113809371D01*
X165851181Y-113714133D01*
X165755943Y-113666514D01*
X165565466Y-113666514D01*
X165470228Y-113714133D01*
X165422609Y-113809371D01*
X165422609Y-113904610D01*
X165898800Y-113999848D01*
X164994038Y-113666514D02*
X164994038Y-114666514D01*
X164994038Y-113714133D02*
X164898800Y-113666514D01*
X164708323Y-113666514D01*
X164613085Y-113714133D01*
X164565466Y-113761752D01*
X164517847Y-113856990D01*
X164517847Y-114142705D01*
X164565466Y-114237943D01*
X164613085Y-114285562D01*
X164708323Y-114333181D01*
X164898800Y-114333181D01*
X164994038Y-114285562D01*
X163374990Y-113285562D02*
X164232133Y-114571276D01*
X163041657Y-114333181D02*
X163041657Y-113333181D01*
X162470228Y-114333181D01*
X162470228Y-113333181D01*
X161851181Y-114333181D02*
X161946419Y-114285562D01*
X161994038Y-114237943D01*
X162041657Y-114142705D01*
X162041657Y-113856990D01*
X161994038Y-113761752D01*
X161946419Y-113714133D01*
X161851181Y-113666514D01*
X161708323Y-113666514D01*
X161613085Y-113714133D01*
X161565466Y-113761752D01*
X161517847Y-113856990D01*
X161517847Y-114142705D01*
X161565466Y-114237943D01*
X161613085Y-114285562D01*
X161708323Y-114333181D01*
X161851181Y-114333181D01*
X160946419Y-114333181D02*
X161041657Y-114285562D01*
X161089276Y-114237943D01*
X161136895Y-114142705D01*
X161136895Y-113856990D01*
X161089276Y-113761752D01*
X161041657Y-113714133D01*
X160946419Y-113666514D01*
X160803561Y-113666514D01*
X160708323Y-113714133D01*
X160660704Y-113761752D01*
X160613085Y-113856990D01*
X160613085Y-114142705D01*
X160660704Y-114237943D01*
X160708323Y-114285562D01*
X160803561Y-114333181D01*
X160946419Y-114333181D01*
X159755942Y-114333181D02*
X159755942Y-113333181D01*
X159755942Y-114285562D02*
X159851180Y-114333181D01*
X160041657Y-114333181D01*
X160136895Y-114285562D01*
X160184514Y-114237943D01*
X160232133Y-114142705D01*
X160232133Y-113856990D01*
X160184514Y-113761752D01*
X160136895Y-113714133D01*
X160041657Y-113666514D01*
X159851180Y-113666514D01*
X159755942Y-113714133D01*
X159136895Y-114333181D02*
X159232133Y-114285562D01*
X159279752Y-114190324D01*
X159279752Y-113333181D01*
X158374989Y-114285562D02*
X158470227Y-114333181D01*
X158660704Y-114333181D01*
X158755942Y-114285562D01*
X158803561Y-114190324D01*
X158803561Y-113809371D01*
X158755942Y-113714133D01*
X158660704Y-113666514D01*
X158470227Y-113666514D01*
X158374989Y-113714133D01*
X158327370Y-113809371D01*
X158327370Y-113904610D01*
X158803561Y-113999848D01*
X157898799Y-114333181D02*
X157898799Y-113333181D01*
X157898799Y-113714133D02*
X157803561Y-113666514D01*
X157613084Y-113666514D01*
X157517846Y-113714133D01*
X157470227Y-113761752D01*
X157422608Y-113856990D01*
X157422608Y-114142705D01*
X157470227Y-114237943D01*
X157517846Y-114285562D01*
X157613084Y-114333181D01*
X157803561Y-114333181D01*
X157898799Y-114285562D01*
X156851180Y-114333181D02*
X156946418Y-114285562D01*
X156994037Y-114237943D01*
X157041656Y-114142705D01*
X157041656Y-113856990D01*
X156994037Y-113761752D01*
X156946418Y-113714133D01*
X156851180Y-113666514D01*
X156708322Y-113666514D01*
X156613084Y-113714133D01*
X156565465Y-113761752D01*
X156517846Y-113856990D01*
X156517846Y-114142705D01*
X156565465Y-114237943D01*
X156613084Y-114285562D01*
X156708322Y-114333181D01*
X156851180Y-114333181D01*
X155660703Y-114333181D02*
X155660703Y-113809371D01*
X155708322Y-113714133D01*
X155803560Y-113666514D01*
X155994037Y-113666514D01*
X156089275Y-113714133D01*
X155660703Y-114285562D02*
X155755941Y-114333181D01*
X155994037Y-114333181D01*
X156089275Y-114285562D01*
X156136894Y-114190324D01*
X156136894Y-114095086D01*
X156089275Y-113999848D01*
X155994037Y-113952229D01*
X155755941Y-113952229D01*
X155660703Y-113904610D01*
X155184513Y-114333181D02*
X155184513Y-113666514D01*
X155184513Y-113856990D02*
X155136894Y-113761752D01*
X155089275Y-113714133D01*
X154994037Y-113666514D01*
X154898798Y-113666514D01*
X154136893Y-114333181D02*
X154136893Y-113333181D01*
X154136893Y-114285562D02*
X154232131Y-114333181D01*
X154422608Y-114333181D01*
X154517846Y-114285562D01*
X154565465Y-114237943D01*
X154613084Y-114142705D01*
X154613084Y-113856990D01*
X154565465Y-113761752D01*
X154517846Y-113714133D01*
X154422608Y-113666514D01*
X154232131Y-113666514D01*
X154136893Y-113714133D01*
D12*
X180704120Y-92925520D02*
X180704120Y-91925520D01*
X182404120Y-91925520D02*
X182404120Y-92925520D01*
X178198400Y-89755080D02*
X177198400Y-89755080D01*
X177198400Y-88055080D02*
X178198400Y-88055080D01*
X164584900Y-107241900D02*
X165284900Y-107241900D01*
X165284900Y-106041900D02*
X164584900Y-106041900D01*
X164650000Y-105600000D02*
X165350000Y-105600000D01*
X165350000Y-104400000D02*
X164650000Y-104400000D01*
X148140040Y-113548800D02*
X147140040Y-113548800D01*
X147140040Y-114898800D02*
X148140040Y-114898800D01*
X155357200Y-91844240D02*
X155357200Y-92844240D01*
X156707200Y-92844240D02*
X156707200Y-91844240D01*
X158373440Y-92854400D02*
X158373440Y-91854400D01*
X157023440Y-91854400D02*
X157023440Y-92854400D01*
X175376080Y-93396120D02*
X175376080Y-90896120D01*
X175376080Y-90896120D02*
X173376080Y-90896120D01*
X173376080Y-90896120D02*
X173376080Y-93396120D01*
X173376080Y-93396120D02*
X175376080Y-93396120D01*
X160823280Y-105722800D02*
X160823280Y-106722800D01*
X162173280Y-106722800D02*
X162173280Y-105722800D01*
X142491080Y-106700960D02*
X141491080Y-106700960D01*
X141491080Y-108050960D02*
X142491080Y-108050960D01*
X141521560Y-109950880D02*
X142521560Y-109950880D01*
X142521560Y-108600880D02*
X141521560Y-108600880D01*
X178891440Y-92440000D02*
X178891440Y-90440000D01*
X178891440Y-90440000D02*
X176891440Y-90440000D01*
X176891440Y-90440000D02*
X176891440Y-92440000D01*
X176891440Y-92440000D02*
X178891440Y-92440000D01*
X143776600Y-85078600D02*
X129476600Y-85078600D01*
X143776600Y-80478600D02*
X143776600Y-96378600D01*
X143776600Y-96378600D02*
X129476600Y-96378600D01*
X129476600Y-80478600D02*
X129476600Y-96378600D01*
X129476600Y-80478600D02*
X143776600Y-80478600D01*
X184009303Y-91813143D02*
X184056922Y-91765524D01*
X184104541Y-91622667D01*
X184104541Y-91527429D01*
X184056922Y-91384571D01*
X183961684Y-91289333D01*
X183866446Y-91241714D01*
X183675970Y-91194095D01*
X183533112Y-91194095D01*
X183342636Y-91241714D01*
X183247398Y-91289333D01*
X183152160Y-91384571D01*
X183104541Y-91527429D01*
X183104541Y-91622667D01*
X183152160Y-91765524D01*
X183199779Y-91813143D01*
X184104541Y-92765524D02*
X184104541Y-92194095D01*
X184104541Y-92479809D02*
X183104541Y-92479809D01*
X183247398Y-92384571D01*
X183342636Y-92289333D01*
X183390255Y-92194095D01*
X184104541Y-93717905D02*
X184104541Y-93146476D01*
X184104541Y-93432190D02*
X183104541Y-93432190D01*
X183247398Y-93336952D01*
X183342636Y-93241714D01*
X183390255Y-93146476D01*
X178422537Y-87468983D02*
X178470156Y-87516602D01*
X178613013Y-87564221D01*
X178708251Y-87564221D01*
X178851109Y-87516602D01*
X178946347Y-87421364D01*
X178993966Y-87326126D01*
X179041585Y-87135650D01*
X179041585Y-86992792D01*
X178993966Y-86802316D01*
X178946347Y-86707078D01*
X178851109Y-86611840D01*
X178708251Y-86564221D01*
X178613013Y-86564221D01*
X178470156Y-86611840D01*
X178422537Y-86659459D01*
X177470156Y-87564221D02*
X178041585Y-87564221D01*
X177755871Y-87564221D02*
X177755871Y-86564221D01*
X177851109Y-86707078D01*
X177946347Y-86802316D01*
X178041585Y-86849935D01*
X177089204Y-86659459D02*
X177041585Y-86611840D01*
X176946347Y-86564221D01*
X176708251Y-86564221D01*
X176613013Y-86611840D01*
X176565394Y-86659459D01*
X176517775Y-86754697D01*
X176517775Y-86849935D01*
X176565394Y-86992792D01*
X177136823Y-87564221D01*
X176517775Y-87564221D01*
X165539657Y-108825303D02*
X165587276Y-108872922D01*
X165730133Y-108920541D01*
X165825371Y-108920541D01*
X165968229Y-108872922D01*
X166063467Y-108777684D01*
X166111086Y-108682446D01*
X166158705Y-108491970D01*
X166158705Y-108349112D01*
X166111086Y-108158636D01*
X166063467Y-108063398D01*
X165968229Y-107968160D01*
X165825371Y-107920541D01*
X165730133Y-107920541D01*
X165587276Y-107968160D01*
X165539657Y-108015779D01*
X164587276Y-108920541D02*
X165158705Y-108920541D01*
X164872991Y-108920541D02*
X164872991Y-107920541D01*
X164968229Y-108063398D01*
X165063467Y-108158636D01*
X165158705Y-108206255D01*
X164253943Y-107920541D02*
X163634895Y-107920541D01*
X163968229Y-108301493D01*
X163825371Y-108301493D01*
X163730133Y-108349112D01*
X163682514Y-108396731D01*
X163634895Y-108491970D01*
X163634895Y-108730065D01*
X163682514Y-108825303D01*
X163730133Y-108872922D01*
X163825371Y-108920541D01*
X164111086Y-108920541D01*
X164206324Y-108872922D01*
X164253943Y-108825303D01*
X165600617Y-103603063D02*
X165648236Y-103650682D01*
X165791093Y-103698301D01*
X165886331Y-103698301D01*
X166029189Y-103650682D01*
X166124427Y-103555444D01*
X166172046Y-103460206D01*
X166219665Y-103269730D01*
X166219665Y-103126872D01*
X166172046Y-102936396D01*
X166124427Y-102841158D01*
X166029189Y-102745920D01*
X165886331Y-102698301D01*
X165791093Y-102698301D01*
X165648236Y-102745920D01*
X165600617Y-102793539D01*
X164648236Y-103698301D02*
X165219665Y-103698301D01*
X164933951Y-103698301D02*
X164933951Y-102698301D01*
X165029189Y-102841158D01*
X165124427Y-102936396D01*
X165219665Y-102984015D01*
X163791093Y-103031634D02*
X163791093Y-103698301D01*
X164029189Y-102650682D02*
X164267284Y-103364968D01*
X163648236Y-103364968D01*
X149291253Y-112086141D02*
X149291253Y-112800427D01*
X149338873Y-112943284D01*
X149434111Y-113038522D01*
X149576968Y-113086141D01*
X149672206Y-113086141D01*
X148815063Y-113086141D02*
X148815063Y-112086141D01*
X148434110Y-112086141D01*
X148338872Y-112133760D01*
X148291253Y-112181379D01*
X148243634Y-112276617D01*
X148243634Y-112419474D01*
X148291253Y-112514712D01*
X148338872Y-112562331D01*
X148434110Y-112609950D01*
X148815063Y-112609950D01*
X147291253Y-113086141D02*
X147862682Y-113086141D01*
X147576968Y-113086141D02*
X147576968Y-112086141D01*
X147672206Y-112228998D01*
X147767444Y-112324236D01*
X147862682Y-112371855D01*
X159005021Y-89245227D02*
X159719307Y-89245227D01*
X159862164Y-89197607D01*
X159957402Y-89102369D01*
X160005021Y-88959512D01*
X160005021Y-88864274D01*
X160005021Y-89721417D02*
X159005021Y-89721417D01*
X159005021Y-90102370D01*
X159052640Y-90197608D01*
X159100259Y-90245227D01*
X159195497Y-90292846D01*
X159338354Y-90292846D01*
X159433592Y-90245227D01*
X159481211Y-90197608D01*
X159528830Y-90102370D01*
X159528830Y-89721417D01*
X159005021Y-90626179D02*
X159005021Y-91245227D01*
X159385973Y-90911893D01*
X159385973Y-91054751D01*
X159433592Y-91149989D01*
X159481211Y-91197608D01*
X159576450Y-91245227D01*
X159814545Y-91245227D01*
X159909783Y-91197608D01*
X159957402Y-91149989D01*
X160005021Y-91054751D01*
X160005021Y-90769036D01*
X159957402Y-90673798D01*
X159909783Y-90626179D01*
X153843741Y-89163947D02*
X154558027Y-89163947D01*
X154700884Y-89116327D01*
X154796122Y-89021089D01*
X154843741Y-88878232D01*
X154843741Y-88782994D01*
X154843741Y-89640137D02*
X153843741Y-89640137D01*
X153843741Y-90021090D01*
X153891360Y-90116328D01*
X153938979Y-90163947D01*
X154034217Y-90211566D01*
X154177074Y-90211566D01*
X154272312Y-90163947D01*
X154319931Y-90116328D01*
X154367550Y-90021090D01*
X154367550Y-89640137D01*
X154177074Y-91068709D02*
X154843741Y-91068709D01*
X153796122Y-90830613D02*
X154510408Y-90592518D01*
X154510408Y-91211566D01*
X172669461Y-91979454D02*
X172669461Y-91503263D01*
X171669461Y-91503263D01*
X172669461Y-92836597D02*
X172669461Y-92265168D01*
X172669461Y-92550882D02*
X171669461Y-92550882D01*
X171812318Y-92455644D01*
X171907556Y-92360406D01*
X171955175Y-92265168D01*
X159883101Y-106188214D02*
X159883101Y-105712023D01*
X158883101Y-105712023D01*
X158978339Y-106473928D02*
X158930720Y-106521547D01*
X158883101Y-106616785D01*
X158883101Y-106854881D01*
X158930720Y-106950119D01*
X158978339Y-106997738D01*
X159073577Y-107045357D01*
X159168815Y-107045357D01*
X159311672Y-106997738D01*
X159883101Y-106426309D01*
X159883101Y-107045357D01*
X142273257Y-111374181D02*
X142606591Y-110897990D01*
X142844686Y-111374181D02*
X142844686Y-110374181D01*
X142463733Y-110374181D01*
X142368495Y-110421800D01*
X142320876Y-110469419D01*
X142273257Y-110564657D01*
X142273257Y-110707514D01*
X142320876Y-110802752D01*
X142368495Y-110850371D01*
X142463733Y-110897990D01*
X142844686Y-110897990D01*
X141892305Y-110469419D02*
X141844686Y-110421800D01*
X141749448Y-110374181D01*
X141511352Y-110374181D01*
X141416114Y-110421800D01*
X141368495Y-110469419D01*
X141320876Y-110564657D01*
X141320876Y-110659895D01*
X141368495Y-110802752D01*
X141939924Y-111374181D01*
X141320876Y-111374181D01*
X140939924Y-110469419D02*
X140892305Y-110421800D01*
X140797067Y-110374181D01*
X140558971Y-110374181D01*
X140463733Y-110421800D01*
X140416114Y-110469419D01*
X140368495Y-110564657D01*
X140368495Y-110659895D01*
X140416114Y-110802752D01*
X140987543Y-111374181D01*
X140368495Y-111374181D01*
X142242777Y-106177341D02*
X142576111Y-105701150D01*
X142814206Y-106177341D02*
X142814206Y-105177341D01*
X142433253Y-105177341D01*
X142338015Y-105224960D01*
X142290396Y-105272579D01*
X142242777Y-105367817D01*
X142242777Y-105510674D01*
X142290396Y-105605912D01*
X142338015Y-105653531D01*
X142433253Y-105701150D01*
X142814206Y-105701150D01*
X141861825Y-105272579D02*
X141814206Y-105224960D01*
X141718968Y-105177341D01*
X141480872Y-105177341D01*
X141385634Y-105224960D01*
X141338015Y-105272579D01*
X141290396Y-105367817D01*
X141290396Y-105463055D01*
X141338015Y-105605912D01*
X141909444Y-106177341D01*
X141290396Y-106177341D01*
X140957063Y-105177341D02*
X140338015Y-105177341D01*
X140671349Y-105558293D01*
X140528491Y-105558293D01*
X140433253Y-105605912D01*
X140385634Y-105653531D01*
X140338015Y-105748770D01*
X140338015Y-105986865D01*
X140385634Y-106082103D01*
X140433253Y-106129722D01*
X140528491Y-106177341D01*
X140814206Y-106177341D01*
X140909444Y-106129722D01*
X140957063Y-106082103D01*
X178704145Y-92924381D02*
X178704145Y-93733905D01*
X178656526Y-93829143D01*
X178608907Y-93876762D01*
X178513669Y-93924381D01*
X178323192Y-93924381D01*
X178227954Y-93876762D01*
X178180335Y-93829143D01*
X178132716Y-93733905D01*
X178132716Y-92924381D01*
X177132716Y-93924381D02*
X177704145Y-93924381D01*
X177418431Y-93924381D02*
X177418431Y-92924381D01*
X177513669Y-93067238D01*
X177608907Y-93162476D01*
X177704145Y-93210095D01*
X134762145Y-98918781D02*
X134762145Y-99728305D01*
X134714526Y-99823543D01*
X134666907Y-99871162D01*
X134571669Y-99918781D01*
X134381192Y-99918781D01*
X134285954Y-99871162D01*
X134238335Y-99823543D01*
X134190716Y-99728305D01*
X134190716Y-98918781D01*
X133238335Y-98918781D02*
X133714526Y-98918781D01*
X133762145Y-99394971D01*
X133714526Y-99347352D01*
X133619288Y-99299733D01*
X133381192Y-99299733D01*
X133285954Y-99347352D01*
X133238335Y-99394971D01*
X133190716Y-99490210D01*
X133190716Y-99728305D01*
X133238335Y-99823543D01*
X133285954Y-99871162D01*
X133381192Y-99918781D01*
X133619288Y-99918781D01*
X133714526Y-99871162D01*
X133762145Y-99823543D01*
M02*
