G04 #@! TF.FileFunction,Soldermask,Top*
%FSLAX46Y46*%
G04 Gerber Fmt 4.6, Leading zero omitted, Abs format (unit mm)*
G04 Created by KiCad (PCBNEW 4.0.0-rc1-stable) date 07/11/2015 14:52:38*
%MOMM*%
G01*
G04 APERTURE LIST*
%ADD10C,0.100000*%
%ADD11R,1.900000X1.650000*%
%ADD12R,1.150000X1.600000*%
%ADD13R,1.600000X1.150000*%
%ADD14R,2.127200X2.432000*%
%ADD15O,2.127200X2.432000*%
%ADD16R,1.598880X1.598880*%
%ADD17R,3.900120X2.200860*%
%ADD18R,1.050000X1.460000*%
%ADD19R,1.100000X0.650000*%
%ADD20R,0.650000X1.100000*%
%ADD21R,2.125000X2.125000*%
%ADD22R,1.400000X1.600000*%
%ADD23C,1.250000*%
%ADD24R,1.800000X1.600000*%
%ADD25R,2.300000X2.200000*%
%ADD26R,2.300000X2.500000*%
%ADD27R,1.750000X0.800000*%
%ADD28O,1.700000X1.450000*%
%ADD29R,1.200100X2.200860*%
%ADD30R,1.300000X1.600000*%
%ADD31R,1.600000X1.300000*%
%ADD32R,1.900000X1.700000*%
%ADD33R,2.500000X1.800000*%
%ADD34R,1.460000X1.050000*%
%ADD35R,1.950000X1.000000*%
%ADD36R,1.000000X1.900000*%
%ADD37R,0.650000X1.400000*%
%ADD38R,1.400000X0.650000*%
%ADD39R,2.100000X2.800000*%
%ADD40R,2.127200X2.127200*%
%ADD41O,2.127200X2.127200*%
%ADD42C,3.400000*%
%ADD43R,2.432000X2.127200*%
%ADD44O,2.432000X2.127200*%
G04 APERTURE END LIST*
D10*
D11*
X184718640Y-95834200D03*
X187218640Y-95834200D03*
D12*
X181330600Y-106954280D03*
X181330600Y-108854280D03*
X164266880Y-111114800D03*
X164266880Y-113014800D03*
D11*
X175330800Y-112963960D03*
X177830800Y-112963960D03*
X166654800Y-105140760D03*
X164154800Y-105140760D03*
D12*
X173004480Y-111135120D03*
X173004480Y-113035120D03*
X170322240Y-100446880D03*
X170322240Y-98546880D03*
D13*
X177485000Y-102880160D03*
X179385000Y-102880160D03*
X166283680Y-108950760D03*
X164383680Y-108950760D03*
D12*
X168788080Y-100472280D03*
X168788080Y-98572280D03*
X129473960Y-84714120D03*
X129473960Y-82814120D03*
D13*
X153012180Y-110675420D03*
X151112180Y-110675420D03*
X155226980Y-110675420D03*
X157126980Y-110675420D03*
D11*
X134523800Y-103657400D03*
X132023800Y-103657400D03*
D13*
X134223800Y-111871760D03*
X132323800Y-111871760D03*
X171836040Y-96433640D03*
X173736040Y-96433640D03*
X175986400Y-96433640D03*
X177886400Y-96433640D03*
D12*
X169738040Y-91810800D03*
X169738040Y-93710800D03*
X182559960Y-90779560D03*
X182559960Y-92679560D03*
X168087040Y-91810800D03*
X168087040Y-93710800D03*
D11*
X163631560Y-92857320D03*
X166131560Y-92857320D03*
X149250720Y-88376760D03*
X146750720Y-88376760D03*
D13*
X147076120Y-90164920D03*
X148976120Y-90164920D03*
X164251600Y-94894400D03*
X166151600Y-94894400D03*
X145049200Y-101041200D03*
X146949200Y-101041200D03*
X165420080Y-91216480D03*
X163520080Y-91216480D03*
X146949200Y-103063040D03*
X145049200Y-103063040D03*
X165938240Y-98618040D03*
X164038240Y-98618040D03*
D11*
X147173000Y-98602800D03*
X144673000Y-98602800D03*
D14*
X142113000Y-117043200D03*
D15*
X139573000Y-117043200D03*
X137033000Y-117043200D03*
X134493000Y-117043200D03*
X131953000Y-117043200D03*
X129413000Y-117043200D03*
D16*
X144927320Y-82689700D03*
X144927320Y-84787740D03*
D17*
X176347120Y-100304600D03*
X181345840Y-100304600D03*
D16*
X121638060Y-101701600D03*
X123736100Y-101701600D03*
X167944800Y-82237580D03*
X167944800Y-84335620D03*
X121673620Y-90525600D03*
X123771660Y-90525600D03*
X121663460Y-93151960D03*
X123761500Y-93151960D03*
D18*
X179796480Y-106804280D03*
X178846480Y-106804280D03*
X177896480Y-106804280D03*
X177896480Y-109004280D03*
X179796480Y-109004280D03*
X178846480Y-109004280D03*
D19*
X174728840Y-106982200D03*
X174728840Y-106482200D03*
X174728840Y-105982200D03*
X174728840Y-105482200D03*
X174728840Y-104982200D03*
X174728840Y-104482200D03*
X174728840Y-103982200D03*
X174728840Y-103482200D03*
D20*
X174078840Y-102832200D03*
X173578840Y-102832200D03*
X173078840Y-102832200D03*
X172578840Y-102832200D03*
X172078840Y-102832200D03*
X171578840Y-102832200D03*
X171078840Y-102832200D03*
X170578840Y-102832200D03*
D19*
X169928840Y-103482200D03*
X169928840Y-103982200D03*
X169928840Y-104482200D03*
X169928840Y-104982200D03*
X169928840Y-105482200D03*
X169928840Y-105982200D03*
X169928840Y-106482200D03*
X169928840Y-106982200D03*
D20*
X170578840Y-107632200D03*
X171078840Y-107632200D03*
X171578840Y-107632200D03*
X172078840Y-107632200D03*
X172578840Y-107632200D03*
X173078840Y-107632200D03*
X173578840Y-107632200D03*
X174078840Y-107632200D03*
D21*
X171466340Y-104369700D03*
X171466340Y-106094700D03*
X173191340Y-104369700D03*
X173191340Y-106094700D03*
D22*
X124165360Y-98851720D03*
X126665360Y-98851720D03*
X121665360Y-98851720D03*
D23*
X125665360Y-96251720D03*
X122665360Y-96251720D03*
D24*
X170820080Y-110944480D03*
X170820080Y-113144480D03*
X168280080Y-110944480D03*
X168280080Y-113144480D03*
D25*
X187871100Y-104856900D03*
D26*
X188051100Y-109696900D03*
X188051100Y-102316900D03*
D27*
X185196100Y-106006900D03*
X185196100Y-106656900D03*
X185196100Y-107306900D03*
X185196100Y-105356900D03*
X185196100Y-104706900D03*
D28*
X184871100Y-108231900D03*
X184871100Y-103781900D03*
D25*
X187871100Y-107156900D03*
D14*
X145623280Y-117012720D03*
D15*
X148163280Y-117012720D03*
X150703280Y-117012720D03*
X153243280Y-117012720D03*
X155783280Y-117012720D03*
X158323280Y-117012720D03*
X160863280Y-117012720D03*
X163403280Y-117012720D03*
X165943280Y-117012720D03*
X168483280Y-117012720D03*
X171023280Y-117012720D03*
X173563280Y-117012720D03*
X176103280Y-117012720D03*
X178643280Y-117012720D03*
D29*
X185409800Y-92362020D03*
X187309800Y-92362020D03*
X186359800Y-89359740D03*
D30*
X144820640Y-93037840D03*
X144820640Y-90837840D03*
D31*
X184868640Y-99517200D03*
X187068640Y-99517200D03*
X187104200Y-97881440D03*
X184904200Y-97881440D03*
D30*
X165948360Y-110853040D03*
X165948360Y-113053040D03*
D31*
X177680800Y-111064040D03*
X175480800Y-111064040D03*
X143040280Y-105608120D03*
X140840280Y-105608120D03*
D30*
X140731240Y-110482560D03*
X140731240Y-108282560D03*
X147208240Y-108323200D03*
X147208240Y-110523200D03*
D31*
X128089840Y-101701600D03*
X125889840Y-101701600D03*
D30*
X167965120Y-89085600D03*
X167965120Y-86885600D03*
D31*
X128658800Y-90490040D03*
X126458800Y-90490040D03*
X128760400Y-93014800D03*
X126560400Y-93014800D03*
X151040920Y-104881680D03*
X153240920Y-104881680D03*
X157304920Y-104896920D03*
X155104920Y-104896920D03*
D32*
X134735560Y-101142800D03*
X132035560Y-101142800D03*
D30*
X136550400Y-90914040D03*
X136550400Y-93114040D03*
X132588000Y-90873400D03*
X132588000Y-93073400D03*
X134533640Y-90873400D03*
X134533640Y-93073400D03*
X140553440Y-90914040D03*
X140553440Y-93114040D03*
X138572240Y-90914040D03*
X138572240Y-93114040D03*
X142534640Y-93073400D03*
X142534640Y-90873400D03*
D31*
X144894120Y-105633520D03*
X147094120Y-105633520D03*
D33*
X131677400Y-86298600D03*
X131677400Y-81798600D03*
X141677400Y-86298600D03*
X141677400Y-81798600D03*
D34*
X142831640Y-108508760D03*
X142831640Y-109458760D03*
X142831640Y-110408760D03*
X145031640Y-110408760D03*
X145031640Y-108508760D03*
X145031640Y-109458760D03*
D35*
X135917920Y-109865160D03*
X135917920Y-108595160D03*
X135917920Y-107325160D03*
X135917920Y-106055160D03*
X130517920Y-106055160D03*
X130517920Y-107325160D03*
X130517920Y-108595160D03*
X130517920Y-109865160D03*
D36*
X171688760Y-93672640D03*
X172958760Y-93672640D03*
X174228760Y-93672640D03*
X175498760Y-93672640D03*
X176768760Y-93672640D03*
X178038760Y-93672640D03*
X179308760Y-93672640D03*
X180578760Y-93672640D03*
X180578760Y-88272640D03*
X179308760Y-88272640D03*
X178038760Y-88272640D03*
X176768760Y-88272640D03*
X175498760Y-88272640D03*
X174228760Y-88272640D03*
X172958760Y-88272640D03*
X171688760Y-88272640D03*
D37*
X151936760Y-101585000D03*
X152436760Y-101585000D03*
X152936760Y-101585000D03*
X153436760Y-101585000D03*
X153936760Y-101585000D03*
X154436760Y-101585000D03*
X154936760Y-101585000D03*
X155436760Y-101585000D03*
X155936760Y-101585000D03*
X156436760Y-101585000D03*
X156936760Y-101585000D03*
X157436760Y-101585000D03*
X157936760Y-101585000D03*
X158436760Y-101585000D03*
X158936760Y-101585000D03*
X159436760Y-101585000D03*
D38*
X161386760Y-99635000D03*
X161386760Y-99135000D03*
X161386760Y-98635000D03*
X161386760Y-98135000D03*
X161386760Y-97635000D03*
X161386760Y-97135000D03*
X161386760Y-96635000D03*
X161386760Y-96135000D03*
X161386760Y-95635000D03*
X161386760Y-95135000D03*
X161386760Y-94635000D03*
X161386760Y-94135000D03*
X161386760Y-93635000D03*
X161386760Y-93135000D03*
X161386760Y-92635000D03*
X161386760Y-92135000D03*
D37*
X159436760Y-90185000D03*
X158936760Y-90185000D03*
X158436760Y-90185000D03*
X157936760Y-90185000D03*
X157436760Y-90185000D03*
X156936760Y-90185000D03*
X156436760Y-90185000D03*
X155936760Y-90185000D03*
X155436760Y-90185000D03*
X154936760Y-90185000D03*
X154436760Y-90185000D03*
X153936760Y-90185000D03*
X153436760Y-90185000D03*
X152936760Y-90185000D03*
X152436760Y-90185000D03*
X151936760Y-90185000D03*
D38*
X149986760Y-92135000D03*
X149986760Y-92635000D03*
X149986760Y-93135000D03*
X149986760Y-93635000D03*
X149986760Y-94135000D03*
X149986760Y-94635000D03*
X149986760Y-95135000D03*
X149986760Y-95635000D03*
X149986760Y-96135000D03*
X149986760Y-96635000D03*
X149986760Y-97135000D03*
X149986760Y-97635000D03*
X149986760Y-98135000D03*
X149986760Y-98635000D03*
X149986760Y-99135000D03*
X149986760Y-99635000D03*
D39*
X155977200Y-107777280D03*
X152277200Y-107777280D03*
D40*
X148584920Y-84993480D03*
D41*
X148584920Y-82453480D03*
X151124920Y-84993480D03*
X151124920Y-82453480D03*
X153664920Y-84993480D03*
X153664920Y-82453480D03*
X156204920Y-84993480D03*
X156204920Y-82453480D03*
X158744920Y-84993480D03*
X158744920Y-82453480D03*
X161284920Y-84993480D03*
X161284920Y-82453480D03*
X163824920Y-84993480D03*
X163824920Y-82453480D03*
D42*
X124000000Y-84000000D03*
X186000000Y-84000000D03*
X186000000Y-116000000D03*
X124000000Y-116000000D03*
D43*
X125349000Y-110236000D03*
D44*
X125349000Y-107696000D03*
X125349000Y-105156000D03*
D14*
X172725080Y-83484720D03*
D15*
X175265080Y-83484720D03*
X177805080Y-83484720D03*
M02*
